<?xml version="1.0" encoding="UTF-8"?>
<svg width="326px" height="385px" viewBox="0 0 326 385" version="1.1" xmlns="http://www.w3.org/2000/svg" xmlns:xlink="http://www.w3.org/1999/xlink">
    <!-- Generator: Sketch 51.2 (57519) - http://www.bohemiancoding.com/sketch -->
    <title>2man</title>
    <desc>Created with Sketch.</desc>
    <defs>
        <linearGradient x1="203.936924%" y1="41.6551548%" x2="-24.212446%" y2="52.0644882%" id="linearGradient-1">
            <stop stop-color="#FFFFFF" stop-opacity="0" offset="0%"></stop>
            <stop stop-color="#E6F4FF" offset="100%"></stop>
        </linearGradient>
        <linearGradient x1="5.65804329%" y1="45.7389957%" x2="50%" y2="45.7389957%" id="linearGradient-2">
            <stop stop-color="#A9DCFF" offset="0%"></stop>
            <stop stop-color="#86CCFB" offset="95.2236216%"></stop>
            <stop stop-color="#63BCF8" offset="100%"></stop>
        </linearGradient>
        <linearGradient x1="5.65804329%" y1="45.7389957%" x2="44.0148313%" y2="45.7389957%" id="linearGradient-3">
            <stop stop-color="#A9DCFF" offset="0%"></stop>
            <stop stop-color="#86CCFB" offset="86.964773%"></stop>
            <stop stop-color="#63BCF8" offset="100%"></stop>
        </linearGradient>
        <linearGradient x1="50%" y1="52.549395%" x2="68.3177848%" y2="71.9606434%" id="linearGradient-4">
            <stop stop-color="#C3F9DF" stop-opacity="0" offset="0%"></stop>
            <stop stop-color="#90F0BC" offset="100%"></stop>
        </linearGradient>
        <linearGradient x1="61.4776866%" y1="79.2072243%" x2="10.6905996%" y2="7.22216976%" id="linearGradient-5">
            <stop stop-color="#A9DCFF" stop-opacity="0" offset="0%"></stop>
            <stop stop-color="#A9DCFF" offset="100%"></stop>
        </linearGradient>
        <linearGradient x1="-83.4418681%" y1="-20.1283251%" x2="61.4269872%" y2="61.1031601%" id="linearGradient-6">
            <stop stop-color="#C6E7FF" offset="0%"></stop>
            <stop stop-color="#FFFFFF" offset="100%"></stop>
        </linearGradient>
        <linearGradient x1="-9.52482464%" y1="18.3130357%" x2="50%" y2="57.0642165%" id="linearGradient-7">
            <stop stop-color="#54A4FF" offset="0%"></stop>
            <stop stop-color="#087CFF" offset="100%"></stop>
        </linearGradient>
        <linearGradient x1="50%" y1="18.4353244%" x2="20.2184854%" y2="87.5880435%" id="linearGradient-8">
            <stop stop-color="#54A4FF" offset="0%"></stop>
            <stop stop-color="#087CFF" offset="100%"></stop>
        </linearGradient>
        <path d="M83.7396093,14.8449495 L13.8515364,14.8449495 C6.26126045,14.8449495 0.107778973,11.615001 0.107778973,7.63030404 C0.107778973,3.64638838 6.26126045,0.415658586 13.8515364,0.415658586 L83.7396093,0.415658586 L83.7396093,14.8449495 Z" id="path-9"></path>
        <linearGradient x1="50%" y1="-48.152603%" x2="-22.3198003%" y2="82.9489195%" id="linearGradient-11">
            <stop stop-color="#288CFF" offset="0%"></stop>
            <stop stop-color="#FFFFFF" offset="100%"></stop>
        </linearGradient>
        <linearGradient x1="50%" y1="-48.152603%" x2="36.5293771%" y2="58.4166033%" id="linearGradient-12">
            <stop stop-color="#288CFF" offset="0%"></stop>
            <stop stop-color="#FFFFFF" offset="100%"></stop>
        </linearGradient>
        <path d="M1.83455556,21.6054591 C1.68698208,26.5117982 -1.94692115,33.105462 4.23093907,37.5942076 C4.36203226,35.8806871 5.71716129,30.9820526 5.83851613,27.4671784 C6.17336559,17.8463465 5.82128674,3.65586988 6.39659857,1.88148246 C6.97191039,0.107095029 9.02145878,0.101701754 13.5864982,2.2828962 C18.1515376,4.46486111 13.4389247,5.29465497 13.4389247,5.29465497 C12.2171362,16.2368392 14.3288602,23.965402 14.1363405,32.9644664 C14.0906452,35.0963509 13.4516595,41.2870599 13.2891039,42.2963728 C20.4467921,44.0021886 25.0170753,44.1385614 25.9070108,38.8947573 C26.9415233,32.794193 25.7257276,13.5579225 21.0071219,7.39263889 C18.0691362,3.55339766 11.9152473,0.184141813 7.6378638,0.184141813 C4.95082796,0.184912281 3.00465591,1.5139693 3.0593405,4.88938889 C3.19717563,13.3814854 2.00160573,16.0681067 1.83455556,21.6054591 Z" id="path-13"></path>
        <path d="M0.606582865,85.097234 C0.621263936,87.1378863 2.26386606,87.8273188 4.26804198,86.6334649 L60.3087579,55.1802841 C62.3120949,53.9868556 63.9303684,51.3554434 63.9152678,49.3152165 L63.9152678,2.29477708 C63.9001673,0.253699519 62.2575652,-0.434882387 60.2538087,0.75769554 L3.65017862,32.5344717 C1.64642215,33.7287509 0.0277292068,36.3588871 0.042829737,38.3999647 L0.606582865,85.097234 Z" id="path-15"></path>
        <path d="M1.42259577,11.8296289 L19.0339993,0.943171402 C19.5037768,0.652779301 20.120016,0.798199877 20.4104081,1.26797735 C20.5080705,1.42596918 20.5598007,1.60803874 20.5598007,1.79377876 L20.5598007,23.8636676 C20.5598007,24.9033122 20.0215343,25.8688431 19.137205,26.4154897 L1.52580141,37.3019472 C1.05602394,37.5923393 0.439784743,37.4469187 0.149392642,36.9771413 C0.0517302786,36.8191494 -1.30952104e-15,36.6370799 -1.33226763e-15,36.4513398 L1.33226763e-15,14.381451 C7.43252941e-16,13.3418064 0.538266428,12.3762755 1.42259577,11.8296289 Z" id="path-17"></path>
    </defs>
    <g id="web" stroke="none" stroke-width="1" fill="none" fill-rule="evenodd">
        <g id="index" transform="translate(-1022.000000, -2768.000000)">
            <g id="2man" transform="translate(1022.000000, 2768.000000)">
                <g id="Group-39" transform="translate(0.000000, 105.000000)">
                    <path d="M185.650085,87 L141,87 L272.783975,162.804211 C278.730312,166.223967 278.730312,174.775269 272.783975,178.195789 L141,254 L185.650085,254 C189.999528,254 194.272234,252.859317 198.039245,250.691866 L320.27409,180.380824 C327.908637,175.989347 327.908637,165.010653 320.27409,160.618411 L198.039245,90.3073697 C194.272234,88.1406832 189.999528,87 185.650085,87" id="Fill-146" fill="url(#linearGradient-1)"></path>
                    <path d="M198.992096,238.500018 C198.880834,236.810377 197.593916,235.054616 195.181465,233.669882 L136.84406,200.189906 C132.226494,197.540208 125.242805,197.254949 121.245724,199.553269 L60.694849,234.370372 C58.7863056,235.467959 57.9064617,236.95584 58.0078507,238.500018 C58.1187331,240.189658 59.4056518,241.945419 61.8184821,243.330154 L120.156267,276.809751 C124.773833,279.459827 131.757142,279.745086 135.754223,277.446767 L196.305098,242.629663 C198.213642,241.532076 199.093865,240.043817 198.992096,238.500018" id="Path" stroke="#BDE4FF"></path>
                    <path d="M127.835767,138.128452 L47.9192844,183.918301 L0.0129922551,160.838835 L0.0129922551,171.568108 C-0.00235888159,171.855003 -0.00619666575,172.141898 0.0129922551,172.430315 C0.237886407,175.833486 2.83913651,179.370593 7.71542507,182.15964 L125.633646,249.592196 C130.474627,252.360697 136.602033,253.843877 142.50608,253.988466 C147.985669,254.12164 153.273368,253.102667 157.161811,250.875234 L279.552585,180.748755 C283.407256,178.539586 285.186452,175.54583 284.984585,172.439447 L284.999936,172.430315 L284.999936,160.838835 L237.147373,183.891666 L159.364699,139.410729 C154.264284,136.493834 147.735445,135 141.544332,135 C136.406306,135 131.500083,136.028866 127.835767,138.128452" id="Fill-151" fill="#3BADFB"></path>
                    <path d="M127.835767,135.128452 L47.9192844,180.918301 L0.0129922551,157.838835 L0.0129922551,168.568108 C-0.00235888159,168.855003 -0.00619666575,169.141898 0.0129922551,169.430315 C0.237886407,172.833486 2.83913651,176.370593 7.71542507,179.15964 L125.633646,246.592196 C130.474627,249.360697 136.602033,250.843877 142.50608,250.988466 C147.985669,251.12164 153.273368,250.102667 157.161811,247.875234 L279.552585,177.748755 C283.407256,175.539586 285.186452,172.54583 284.984585,169.439447 L284.999936,169.430315 L284.999936,157.838835 L237.147373,180.891666 L159.364699,136.410729 C154.264284,133.493834 147.735445,132 141.544332,132 C136.406306,132 131.500083,133.028866 127.835767,135.128452" id="Fill-151" fill="url(#linearGradient-2)"></path>
                    <path d="M284.984024,155.999964 C284.759133,152.579728 282.157908,149.02409 277.281667,146.22043 L159.365365,78.4345784 C150.031965,73.0689921 135.915965,72.4914305 127.83674,77.1448181 L5.44639306,147.638707 C1.58869008,149.860981 -0.189721737,152.874246 0.0159814859,155.999964 C0.240105893,159.4202 2.8413306,162.975838 7.71757155,165.779499 L125.634641,233.566115 C134.968041,238.930937 149.083274,239.508498 157.162498,234.855111 L279.552845,164.361221 C283.410548,162.138948 285.189728,159.125682 284.984024,155.999964" id="Fill-154" fill="#FFFFFF"></path>
                    <path d="M284.984024,154.999964 C284.759133,151.579728 282.157908,148.02409 277.281667,145.22043 L159.365365,77.4345784 C150.031965,72.0689921 135.915965,71.4914305 127.83674,76.1448181 L5.44639306,146.638707 C1.58869008,148.860981 -0.189721737,151.874246 0.0159814859,154.999964 C0.240105893,158.420965 2.8413306,161.975838 7.71757155,164.779499 L125.634641,232.566115 C134.968041,237.930937 149.083274,238.508498 157.162498,233.855111 L279.552845,163.361221 C283.410548,161.138948 285.189728,158.125682 284.984024,154.999964" id="Fill-156" fill="#E6F4FF"></path>
                    <g id="Group-258" transform="translate(50.000000, 102.000000)" fill="#A9DCFF">
                        <path d="M3.44963539,51.299166 C4.2133244,51.734353 4.2133244,52.4397345 3.44963539,52.8749215 C2.68671314,53.3101085 1.44840214,53.3101085 0.684713137,52.8749215 C-0.0789758713,52.4397345 -0.0789758713,51.734353 0.684713137,51.299166 C1.44840214,50.863979 2.68594638,50.863979 3.44963539,51.299166" id="Fill-158"></path>
                        <path d="M18.263592,42.856689 C19.027281,43.291876 19.027281,43.9972574 18.263592,44.4324445 C17.4999029,44.8676315 16.2623587,44.8676315 15.4986697,44.4324445 C14.7342139,43.9972574 14.7342139,43.291876 15.4986697,42.856689 C16.2623587,42.421502 17.4999029,42.421502 18.263592,42.856689" id="Fill-160"></path>
                        <path d="M33.0775485,34.4145904 C33.8412375,34.8497774 33.8412375,35.5551588 33.0775485,35.9903459 C32.3138595,36.4255329 31.0763153,36.4255329 30.3126263,35.9903459 C29.5481705,35.5551588 29.5481705,34.8497774 30.3126263,34.4145904 C31.0763153,33.9794034 32.3138595,33.9794034 33.0775485,34.4145904" id="Fill-162"></path>
                        <path d="M47.8915818,25.9721134 C48.654504,26.4073004 48.654504,27.1126818 47.8915818,27.5486257 C47.1278928,27.9830559 45.8895818,27.9830559 45.1266595,27.5486257 C44.3622038,27.1126818 44.3622038,26.4073004 45.1266595,25.9721134 C45.8895818,25.5369263 47.1278928,25.5369263 47.8915818,25.9721134" id="Fill-164"></path>
                        <path d="M18.2643587,59.7412646 C19.027281,60.1764516 19.027281,60.8818331 18.2643587,61.3177769 C17.5006697,61.7522071 16.2631255,61.7522071 15.4994365,61.3177769 C14.7349807,60.8818331 14.7349807,60.1764516 15.4994365,59.7412646 C16.2623587,59.3060776 17.5006697,59.3060776 18.2643587,59.7412646" id="Fill-166"></path>
                        <path d="M33.0775485,51.299166 C33.8412375,51.734353 33.8412375,52.4397345 33.0775485,52.8756783 C32.3146263,53.3101085 31.0763153,53.3101085 30.313393,52.8749215 C29.5489373,52.4397345 29.5489373,51.734353 30.3126263,51.299166 C31.0763153,50.863979 32.3146263,50.863979 33.0775485,51.299166" id="Fill-168"></path>
                        <path d="M47.8915818,42.8570674 C48.6552708,43.2922544 48.6552708,43.9976359 47.8915818,44.4328229 C47.1278928,44.8680099 45.8903485,44.8680099 45.1266595,44.4328229 C44.3622038,43.9976359 44.3622038,43.2922544 45.1266595,42.8570674 C45.8903485,42.4218804 47.1278928,42.4218804 47.8915818,42.8570674" id="Fill-170"></path>
                        <path d="M62.7055383,34.4145904 C63.4692273,34.8497774 63.4692273,35.5551588 62.7055383,35.9911027 C61.9418493,36.4255329 60.7043051,36.4255329 59.9406161,35.9911027 C59.1761603,35.5551588 59.1761603,34.8497774 59.9406161,34.4145904 C60.7043051,33.9794034 61.9418493,33.9794034 62.7055383,34.4145904" id="Fill-172"></path>
                        <path d="M33.0783153,68.1837416 C33.8420043,68.6189287 33.8420043,69.3243101 33.0783153,69.760254 C32.3146263,70.1946841 31.077082,70.1946841 30.313393,69.760254 C29.5489373,69.3243101 29.5489373,68.6189287 30.313393,68.1837416 C31.077082,67.7485546 32.3146263,67.7485546 33.0783153,68.1837416" id="Fill-174"></path>
                        <path d="M47.8922718,59.741643 C48.6559609,60.1768301 48.6559609,60.8822115 47.8922718,61.3181554 C47.1285828,61.7525855 45.8910386,61.7525855 45.1273496,61.3173985 C44.3628938,60.8822115 44.3628938,60.1768301 45.1273496,59.741643 C45.8910386,59.306456 47.1285828,59.306456 47.8922718,59.741643" id="Fill-176"></path>
                        <path d="M62.7063051,51.2995444 C63.4692273,51.7347315 63.4692273,52.4401129 62.7063051,52.8752999 C61.9426161,53.3104869 60.7043051,53.3104869 59.9413828,52.8752999 C59.1769271,52.4401129 59.1769271,51.7347315 59.9413828,51.2995444 C60.7043051,50.8643574 61.9426161,50.8643574 62.7063051,51.2995444" id="Fill-178"></path>
                        <path d="M77.5194949,42.8570674 C78.2831839,43.2922544 78.2831839,43.9976359 77.5194949,44.4335797 C76.7565727,44.8680099 75.5182617,44.8680099 74.7545727,44.4335797 C73.9908836,43.9976359 73.9908836,43.2922544 74.7545727,42.8570674 C75.5182617,42.4218804 76.7565727,42.4218804 77.5194949,42.8570674" id="Fill-180"></path>
                        <path d="M47.8922718,76.6262187 C48.6559609,77.0614057 48.6559609,77.7667871 47.8922718,78.202731 C47.1293496,78.6371612 45.8910386,78.6371612 45.1273496,78.202731 C44.3636606,77.7667871 44.3636606,77.0614057 45.1273496,76.6262187 C45.8910386,76.1910316 47.1293496,76.1910316 47.8922718,76.6262187" id="Fill-182"></path>
                        <path d="M62.7063051,68.1841201 C63.4699941,68.6193071 63.4699941,69.3246885 62.7063051,69.7606324 C61.9426161,70.1950626 60.7050718,70.1950626 59.9413828,69.7598755 C59.1769271,69.3246885 59.1769271,68.6193071 59.9413828,68.1841201 C60.7050718,67.748933 61.9426161,67.748933 62.7063051,68.1841201" id="Fill-184"></path>
                        <path d="M77.5202617,59.7420215 C78.2839507,60.1772085 78.2839507,60.8825899 77.5202617,61.3177769 C76.7565727,61.752964 75.5190284,61.752964 74.7553394,61.3177769 C73.9908836,60.8825899 73.9908836,60.1772085 74.7553394,59.7420215 C75.5190284,59.3068344 76.7565727,59.3068344 77.5202617,59.7420215" id="Fill-186"></path>
                        <path d="M92.3342182,51.2995444 C93.0979072,51.7347315 93.0979072,52.4401129 92.3342182,52.8760568 C91.5705292,53.3104869 90.332985,53.3104869 89.569296,52.8760568 C88.8048402,52.4401129 88.8048402,51.7347315 89.569296,51.2995444 C90.3322182,50.8643574 91.5705292,50.8643574 92.3342182,51.2995444" id="Fill-188"></path>
                        <path d="M62.7069952,85.06862 C63.4706842,85.503807 63.4706842,86.2091885 62.7069952,86.6451323 C61.9433062,87.0795625 60.7057619,87.0795625 59.9420729,86.6451323 C59.1776172,86.2091885 59.1776172,85.503807 59.9420729,85.06862 C60.7057619,84.633433 61.9433062,84.633433 62.7069952,85.06862" id="Fill-190"></path>
                        <path d="M77.5209517,76.6265214 C78.283874,77.0617084 78.283874,77.7670898 77.5209517,78.2022769 C76.7572627,78.6374639 75.5189517,78.6374639 74.7560295,78.2022769 C73.9915737,77.7670898 73.9915737,77.0617084 74.7552627,76.6265214 C75.5189517,76.1913344 76.7572627,76.1913344 77.5209517,76.6265214" id="Fill-192"></path>
                        <path d="M92.3342182,68.1844228 C93.0979072,68.6196098 93.0979072,69.3249912 92.3342182,69.7601783 C91.571296,70.1953653 90.332985,70.1953653 89.569296,69.7601783 C88.8048402,69.3249912 88.8048402,68.6196098 89.569296,68.1844228 C90.332985,67.7492358 91.571296,67.7492358 92.3342182,68.1844228" id="Fill-194"></path>
                        <path d="M107.148175,59.7420215 C107.911864,60.1772085 107.911864,60.8825899 107.148175,61.3185338 C106.384486,61.752964 105.146942,61.752964 104.383253,61.3185338 C103.618797,60.8825899 103.618797,60.1772085 104.383253,59.7420215 C105.146942,59.3068344 106.384486,59.3068344 107.148175,59.7420215" id="Fill-196"></path>
                        <path d="M107.148175,59.7420215 C107.911864,60.1772085 107.911864,60.8825899 107.148175,61.3185338 C106.384486,61.752964 105.146942,61.752964 104.383253,61.3185338 C103.618797,60.8825899 103.618797,60.1772085 104.383253,59.7420215 C105.146942,59.3068344 106.384486,59.3068344 107.148175,59.7420215" id="Fill-198"></path>
                        <path d="M62.7047716,17.5300148 C63.4684606,17.9652018 63.4684606,18.6705832 62.7055383,19.1057702 C61.9418493,19.5409573 60.7035383,19.5409573 59.9398493,19.1057702 C59.1761603,18.6705832 59.1761603,17.9652018 59.9398493,17.5300148 C60.7035383,17.0948277 61.9418493,17.0948277 62.7047716,17.5300148" id="Fill-200"></path>
                        <path d="M77.5187282,9.08799184 C78.2824172,9.52317887 78.2824172,10.2285603 77.5187282,10.6637473 C76.7550391,11.0989343 75.5174949,11.0989343 74.7538059,10.6637473 C73.9893501,10.2285603 73.9893501,9.52317887 74.7538059,9.08799184 C75.5174949,8.65280481 76.7550391,8.65280481 77.5187282,9.08799184" id="Fill-202"></path>
                        <path d="M92.3326847,0.645514815 C93.0963737,1.08070185 93.0963737,1.78608326 92.3326847,2.22202714 C91.5689957,2.65645732 90.3314515,2.65645732 89.5677625,2.22202714 C88.8033067,1.78608326 88.8033067,1.08070185 89.5677625,0.645514815 C90.3314515,0.210327784 91.5689957,0.210327784 92.3326847,0.645514815" id="Fill-204"></path>
                        <path d="M77.5194949,25.9724918 C78.2831839,26.4076788 78.2831839,27.1130602 77.5194949,27.5482473 C76.7558059,27.9834343 75.5182617,27.9834343 74.7545727,27.5482473 C73.9901169,27.1130602 73.9901169,26.4076788 74.7545727,25.9724918 C75.5182617,25.5373048 76.7558059,25.5373048 77.5194949,25.9724918" id="Fill-206"></path>
                        <path d="M92.3334515,17.5303932 C93.0963737,17.9655802 93.0963737,18.6709616 92.3334515,19.1061487 C91.5697625,19.5413357 90.3314515,19.5413357 89.5685292,19.1061487 C88.8040735,18.6709616 88.8040735,17.9655802 89.5685292,17.5303932 C90.3314515,17.0952062 91.5697625,17.0952062 92.3334515,17.5303932" id="Fill-208"></path>
                        <path d="M107.146641,9.08799184 C107.91033,9.52317887 107.91033,10.2285603 107.146641,10.6645042 C106.383719,11.0989343 105.145408,11.0989343 104.381719,10.6645042 C103.61803,10.2285603 103.61803,9.52317887 104.381719,9.08799184 C105.145408,8.65280481 106.383719,8.65280481 107.146641,9.08799184" id="Fill-210"></path>
                        <path d="M92.3334515,34.4149688 C93.0971405,34.8501558 93.0971405,35.5555373 92.3334515,35.9907243 C91.5697625,36.4259113 90.3322182,36.4259113 89.5685292,35.9907243 C88.8040735,35.5555373 88.8040735,34.8501558 89.5685292,34.4149688 C90.3322182,33.9797818 91.5697625,33.9797818 92.3334515,34.4149688" id="Fill-212"></path>
                        <path d="M107.147408,25.9728702 C107.911097,26.4080572 107.911097,27.1134387 107.147408,27.5486257 C106.383719,27.9838127 105.146175,27.9838127 104.382486,27.5486257 C103.61803,27.1134387 103.61803,26.4080572 104.382486,25.9728702 C105.146175,25.5376832 106.383719,25.5376832 107.147408,25.9728702" id="Fill-214"></path>
                        <path d="M121.961365,17.5303932 C122.725054,17.9655802 122.725054,18.6709616 121.961365,19.1069055 C121.197676,19.5413357 119.960131,19.5413357 119.196442,19.1069055 C118.431987,18.6709616 118.431987,17.9655802 119.196442,17.5303932 C119.960131,17.0952062 121.197676,17.0952062 121.961365,17.5303932" id="Fill-216"></path>
                        <path d="M107.148175,42.8574458 C107.911097,43.2926329 107.911097,43.9980143 107.148175,44.4339582 C106.384486,44.8683883 105.146175,44.8683883 104.383253,44.4332013 C103.618797,43.9980143 103.618797,43.2926329 104.382486,42.8574458 C105.146175,42.4222588 106.384486,42.4222588 107.148175,42.8574458" id="Fill-218"></path>
                        <path d="M121.961365,34.4153472 C122.725054,34.8505343 122.725054,35.5559157 121.961365,35.9911027 C121.198442,36.4262897 119.960131,36.4262897 119.196442,35.9911027 C118.432753,35.5559157 118.431987,34.8505343 119.196442,34.4153472 C119.960131,33.9801602 121.197676,33.9801602 121.961365,34.4153472" id="Fill-220"></path>
                        <path d="M136.775321,25.9728702 C137.53901,26.4080572 137.53901,27.1134387 136.775321,27.5493825 C136.011632,27.9838127 134.774088,27.9838127 134.010399,27.5493825 C133.245943,27.1134387 133.245943,26.4080572 134.010399,25.9728702 C134.774088,25.5376832 136.011632,25.5376832 136.775321,25.9728702" id="Fill-222"></path>
                        <path d="M121.962131,51.2999229 C122.72582,51.7351099 122.72582,52.4404913 121.962131,52.8764352 C121.198442,53.3108654 119.960898,53.3108654 119.197209,52.8756783 C118.432753,52.4404913 118.432753,51.7351099 119.197209,51.2999229 C119.960898,50.8647358 121.198442,50.8647358 121.962131,51.2999229" id="Fill-224"></path>
                        <path d="M136.776088,42.8578243 C137.53901,43.2930113 137.53901,43.9983927 136.776088,44.4335797 C136.012399,44.8687668 134.774855,44.8687668 134.011166,44.4335797 C133.24671,43.9983927 133.24671,43.2930113 134.011166,42.8578243 C134.774088,42.4226372 136.012399,42.4226372 136.776088,42.8578243" id="Fill-226"></path>
                        <path d="M151.589278,34.4153472 C152.352967,34.8505343 152.352967,35.5559157 151.589278,35.9918596 C150.826355,36.4262897 149.588045,36.4262897 148.825122,35.9918596 C148.060666,35.5559157 148.060666,34.8505343 148.824355,34.4153472 C149.588045,33.9801602 150.826355,33.9801602 151.589278,34.4153472" id="Fill-228"></path>
                        <path d="M77.5209517,93.511097 C78.2846408,93.9462841 78.2846408,94.6516655 77.5209517,95.0876094 C76.7572627,95.5220395 75.5197185,95.5220395 74.7560295,95.0876094 C73.9915737,94.6516655 73.9915737,93.9462841 74.7560295,93.511097 C75.5197185,93.07591 76.7572627,93.07591 77.5209517,93.511097" id="Fill-230"></path>
                        <path d="M92.334985,85.0689984 C93.098674,85.5041855 93.098674,86.2095669 92.334985,86.6447539 C91.571296,87.0799409 90.3337517,87.0799409 89.5700627,86.6447539 C88.805607,86.2095669 88.805607,85.5041855 89.5700627,85.0689984 C90.3337517,84.6338114 91.571296,84.6338114 92.334985,85.0689984" id="Fill-232"></path>
                        <path d="M107.148942,76.6268998 C107.912631,77.0620869 107.912631,77.7674683 107.148942,78.2026553 C106.385253,78.6378423 105.146942,78.6378423 104.384019,78.2026553 C103.619564,77.7674683 103.619564,77.0620869 104.384019,76.6268998 C105.146942,76.1917128 106.385253,76.1917128 107.148942,76.6268998" id="Fill-234"></path>
                        <path d="M121.962131,68.1844228 C122.72582,68.6196098 122.72582,69.3249912 121.962898,69.7609351 C121.199209,70.1953653 119.960898,70.1953653 119.197209,69.7609351 C118.43352,69.3249912 118.43352,68.6196098 119.197209,68.1844228 C119.960898,67.7492358 121.199209,67.7492358 121.962131,68.1844228" id="Fill-236"></path>
                        <path d="M92.334985,101.953952 C93.098674,102.38914 93.098674,103.094521 92.3357517,103.529708 C91.5720627,103.964895 90.3337517,103.964895 89.5708295,103.529708 C88.8063737,103.094521 88.8063737,102.38914 89.5700627,101.953952 C90.3337517,101.518765 91.5720627,101.518765 92.334985,101.953952" id="Fill-238"></path>
                        <path d="M107.148942,93.5114755 C107.912631,93.9466625 107.912631,94.6520439 107.148942,95.0872309 C106.386019,95.522418 105.147708,95.522418 104.384019,95.0872309 C103.619564,94.6520439 103.619564,93.9466625 104.384019,93.5114755 C105.147708,93.0762884 106.385253,93.0762884 107.148942,93.5114755" id="Fill-240"></path>
                        <path d="M121.962898,85.0693769 C122.726587,85.5045639 122.726587,86.2099453 121.962898,86.6451323 C121.199209,87.0803194 119.961665,87.0803194 119.197976,86.6451323 C118.43352,86.2099453 118.43352,85.5045639 119.197976,85.0693769 C119.961665,84.6341898 121.199209,84.6341898 121.962898,85.0693769" id="Fill-242"></path>
                        <path d="M136.776855,76.6268998 C137.540544,77.0620869 137.540544,77.7674683 136.776855,78.2034121 C136.013166,78.6378423 134.775621,78.6378423 134.011932,78.2034121 C133.247477,77.7674683 133.247477,77.0620869 134.011932,76.6268998 C134.775621,76.1917128 136.013166,76.1917128 136.776855,76.6268998" id="Fill-244"></path>
                        <path d="M136.776088,59.7423999 C137.539777,60.1775869 137.539777,60.8829683 136.776088,61.3181554 C136.012399,61.7533424 134.774855,61.7533424 134.011166,61.3181554 C133.24671,60.8829683 133.24671,60.1775869 134.011166,59.7423999 C134.774855,59.3072129 136.012399,59.3072129 136.776088,59.7423999" id="Fill-246"></path>
                        <path d="M151.590045,51.3003013 C152.353734,51.7354883 152.353734,52.4408697 151.590045,52.8760568 C150.826355,53.3112438 149.588811,53.3112438 148.825122,52.8760568 C148.060666,52.4408697 148.060666,51.7354883 148.825122,51.3003013 C149.588811,50.8651143 150.826355,50.8651143 151.590045,51.3003013" id="Fill-248"></path>
                        <path d="M166.404001,42.8578243 C167.16769,43.2930113 167.16769,43.9983927 166.404001,44.4343366 C165.640312,44.8687668 164.402768,44.8687668 163.639079,44.4343366 C162.874623,43.9983927 162.874623,43.2930113 163.639079,42.8578243 C164.402768,42.4226372 165.640312,42.4226372 166.404001,42.8578243" id="Fill-250"></path>
                        <path d="M151.590811,68.1848012 C152.353734,68.6199883 152.353734,69.3253697 151.590811,69.7605567 C150.827122,70.1957437 149.588811,70.1957437 148.825889,69.7605567 C148.061433,69.3253697 148.061433,68.6199883 148.825889,68.1848012 C149.588811,67.7496142 150.827122,67.7496142 151.590811,68.1848012" id="Fill-252"></path>
                        <path d="M166.404001,59.7427026 C167.16769,60.1778897 167.16769,60.8832711 166.404001,61.3184581 C165.641079,61.7536451 164.402768,61.7536451 163.639079,61.3184581 C162.87539,60.8832711 162.87539,60.1778897 163.639079,59.7427026 C164.402768,59.3075156 165.641079,59.3075156 166.404001,59.7427026" id="Fill-254"></path>
                        <path d="M181.218034,51.3003013 C181.981723,51.7354883 181.981723,52.4408697 181.218034,52.8768136 C180.454345,53.3112438 179.216801,53.3112438 178.453112,52.8768136 C177.688656,52.4408697 177.688656,51.7354883 178.453112,51.3003013 C179.216801,50.8651143 180.454345,50.8651143 181.218034,51.3003013" id="Fill-256"></path>
                    </g>
                    <path d="M50.0042895,101.523794 L50.0042895,147.000344 C49.9989574,147.105065 49.9981956,147.209787 50.0042895,147.314508 C50.0857957,148.552818 51.0196893,149.839284 52.7739771,150.854393 L95.1747251,175.395861 C96.9153016,176.403325 99.1190162,176.943748 101.241986,176.995727 C103.211847,177.044648 105.112389,176.673919 106.510944,175.862903 L179.041566,133.816929 C180.427171,133.013557 181.066271,131.924303 180.993906,130.793772 L181,130.78995 L181,85 L50.0042895,101.523794 Z" id="Fill-264" fill="url(#linearGradient-3)"></path>
                    <path d="M181.994111,85.7273034 C181.913518,84.4873368 180.970201,83.1983838 179.203306,82.1819173 L136.480045,57.6076155 C133.098228,55.6627049 127.984055,55.4529821 125.056627,57.1399491 L51.9737692,99.2421744 C50.5760641,100.047387 49.9313237,101.139629 50.0057759,102.273204 C50.0879035,103.513171 51.029685,104.802124 52.7965807,105.81859 L95.5206093,130.392126 C98.9016585,132.337802 104.016599,132.54676 106.944027,130.859793 L180.026885,88.758333 C181.42459,87.9531201 182.06933,86.8601124 181.994111,85.7273034" id="Fill-267" fill="#FFFFFF"></path>
                    <path d="M181.994111,83.727038 C181.913518,82.4870642 180.970201,81.1981039 179.203306,80.1816316 L136.480045,55.6071888 C133.098228,53.662267 127.984055,53.4533085 125.056627,55.1402851 L51.9737692,97.2419865 C50.5760641,98.047204 49.9313237,99.1394525 50.0057759,100.273033 C50.0879035,101.513007 51.029685,102.801968 52.7965807,103.81844 L95.5206093,128.392117 C98.9016585,130.337804 104.016599,130.546763 106.944027,128.859786 L180.026885,86.7580849 C181.42459,85.9528674 182.06933,84.8598535 181.994111,83.727038" id="Fill-269" fill="#E6F4FF"></path>
                    <path d="M140.427214,84.922947 C139.255091,84.922947 138.084477,85.2225246 137.039825,85.8231816 L105.048574,104.209291 C104.346357,104.613233 103.926987,105.335523 103.926987,106.142656 C103.926987,106.949038 104.346357,107.672079 105.048574,108.07527 L112.186152,112.177006 C114.275456,113.37832 116.872379,113.376818 118.960175,112.177006 L150.951426,93.7916471 C151.653643,93.3877053 152.072258,92.6654153 152.072258,91.8582825 C152.072258,91.0519005 151.653643,90.3288597 150.951426,89.9256687 L143.813848,85.8231816 C142.769196,85.2225246 141.598582,84.922947 140.427214,84.922947 M115.572786,114 C114.24076,114 112.910243,113.658376 111.721527,112.97588 L104.583949,108.874144 C103.592095,108.30427 103,107.282403 103,106.142656 C103,105.002159 103.592095,103.981042 104.583949,103.410418 L136.575954,85.0243078 C138.951878,83.6585641 141.903304,83.6585641 144.277719,85.0243078 L151.415296,89.1267949 C152.407905,89.6966682 153,90.7185359 153,91.8582825 C153,92.9987799 152.407905,94.0198968 151.415296,94.5905209 L119.424046,112.97588 C118.236084,113.658376 116.904058,114 115.572786,114" id="Fill-271" fill="#A9DCFF"></path>
                    <polygon id="Path-14" fill="url(#linearGradient-4)" points="63 108 138 63.8717001 138 0 63 42.4691025"></polygon>
                    <path d="M64,107 L139,64" id="Path-15" stroke="#48D88A" stroke-width="2" stroke-linecap="round" stroke-linejoin="round" fill-rule="nonzero"></path>
                    <g id="Group-33" transform="translate(122.000000, 43.000000)">
                        <g id="Group-14">
                            <g id="Group-3" transform="translate(31.303404, 121.369173)" fill="url(#linearGradient-5)">
                                <path d="M14.7840325,0.112981415 C6.8256501,0.112981415 0.373083445,3.4597886 0.373083445,7.58784129 C0.373083445,10.3404161 16.7317474,18.8364648 49.4490754,33.0759873 L80.3834856,16.7978042 L14.7840325,0.112981415 Z" id="Fill-1"></path>
                            </g>
                            <path d="M18.0975957,8.43129868 C16.3779411,6.13127952 15.223374,5.87545198 14.350131,4.90395497 C13.476888,3.93245796 14.0557977,3.69363162 14.6981273,4.12837653 C15.3396438,4.56231186 15.7461815,4.8561897 15.7104062,4.50159329 C15.69821,4.37367952 15.8136668,3.7154903 13.8240712,2.66789269 C11.8344756,1.61948551 11.1929591,0.0990926946 12.3215078,0.533837605 C13.4516826,0.967772934 14.015957,1.88826635 15.223374,1.73525557 C16.4291649,1.58143521 17.173942,0.788855569 18.0975957,2.37401485 C19.0220624,3.95836455 19.8172502,6.56521485 19.8172502,6.56521485 L18.0975957,8.43129868 Z" id="Fill-4" fill="#FFD6D6"></path>
                            <path d="M6.85666515,60.3950544 C4.89227489,62.0028819 4.52964325,61.8555382 3.10838739,62.7622687 C1.68713153,63.6689993 -0.0406537718,63.5637538 0.000813075435,64.0907909 C0.0422799226,64.617828 2.29287273,64.0146903 2.77258723,64.0049753 C3.05960286,64.0001178 3.45150522,65.539131 4.51988634,65.693761 C6.29808232,65.9503981 6.37776371,64.0065945 7.39248186,63.2051095 C8.4072,62.4036244 6.85666515,60.3950544 6.85666515,60.3950544" id="Fill-6" fill="#FFD6D6"></path>
                            <path d="M32.900447,30.7002769 C36.2828408,27.9161284 45.5120601,30.9188637 47.8838011,36.9081428 C47.8838011,36.9081428 44.5648272,29.4421883 42.0735641,25.7877404 C39.582301,22.1324829 29.105824,16.8718266 28.4187752,15.9140925 C27.7325396,14.9571679 22.6963503,7.90409964 20.2741986,5.71499305 C18.64073,4.2383176 16.7202459,7.61507928 17.2406141,8.50237988 C20.3059085,13.720938 24.783515,20.581326 24.783515,20.581326 L32.900447,30.7002769 Z" id="Fill-8" fill="url(#linearGradient-6)"></path>
                            <path d="M29.6775786,128.745293 C28.8669424,130.133724 33.4738278,132.152009 35.6496177,132.645853 C36.9228938,132.934874 38.6140907,134.676282 39.8906192,134.308732 C43.0941364,133.383382 41.6444229,130.954639 41.1516992,129.965331 C40.3500068,128.356694 38.9157417,128.395554 38.9157417,128.395554 C38.9157417,128.395554 35.5349741,128.570423 34.4478922,128.313786 C33.4559402,128.079817 30.7573428,126.894591 29.6775786,128.745293" id="Fill-10" fill="#334659"></path>
                            <path d="M41.632308,121.316012 C40.8224849,122.704444 45.4293703,124.722729 47.6051602,125.216573 C48.8784363,125.505593 50.5696332,127.247002 51.8453486,126.879452 C55.0496789,125.954101 53.5999654,123.525359 53.1064286,122.536051 C52.3055493,120.927414 50.8712842,120.966274 50.8712842,120.966274 C50.8712842,120.966274 47.4905166,121.141143 46.4026216,120.884506 C45.4106696,120.650537 42.7128853,119.465311 41.632308,121.316012" id="Fill-12" fill="#334659"></path>
                        </g>
                        <g id="Group-17" transform="translate(42.000000, 59.000000)" fill="url(#linearGradient-7)">
                            <path d="M0.0499471445,35.7320772 C-0.236523404,38.2874105 4.63935655,54.364205 8.0072757,63.5018284 C8.3214692,64.3552394 11.6524244,63.2780632 11.5541339,62.3756524 C10.9517897,56.8395054 10.0881776,43.4054269 10.1730267,37.5475153 C10.2251122,33.9558389 14.255862,16.1648723 11.5289312,2.33226307 C10.7968357,-1.38193465 6.47163263,2.75667267 5.05604843,1.77775004 C4.11949846,1.1300952 0.537199104,31.397239 0.0499471445,35.7320772 Z" id="Fill-15"></path>
                        </g>
                        <g id="Group-20" transform="translate(28.000000, 58.000000)" fill="url(#linearGradient-8)">
                            <path d="M4.21374935,45.6322577 C4.433,49.0297436 6.18038634,65.290425 8.09820903,72.2815943 C8.38778537,73.3386081 12.959782,74.963777 12.8274043,72.2300924 C12.531209,66.0874772 13.2890717,51.3228013 13.6961333,46.5829978 C15.0678977,30.625605 19.5811517,4.429975 19.5811517,4.429975 L1.99973143,0.148783069 C-1.77137981,12.9048875 3.29455133,31.4014024 4.21374935,45.6322577" id="Fill-18"></path>
                        </g>
                        <g id="Group-23" transform="translate(25.000000, 27.000000)" fill="#FFFFFF">
                            <path d="M8.56074799,1.67785314 C7.49442782,2.13463377 -1.68800034,5.93896388 0.931704394,12.0500362 C2.61807303,15.984875 2.33007684,20.4662193 1.52727726,27.2371765 C0.205595015,38.3728357 1.35105296,44.7571607 3.94057112,46.0467503 C12.2924607,50.2042697 33.1676974,40.8622902 27.5032284,32.5154398 C21.5940034,23.8064277 26.3251363,21.5037639 22.4212786,9.51979776 C20.1222042,2.46498405 17.2822191,0.522850687 14.0302281,0.522850687 C12.3153046,0.522850687 10.4861616,1.06283065 8.56074799,1.67785314" id="Fill-21"></path>
                        </g>
                        <g id="Group-32" transform="translate(6.000000, 13.000000)">
                            <path d="M23.815273,17.7692606 C27.642365,16.8809838 24.0507241,47.82411 21.5230634,33.6019645 C21.5230634,33.6019645 19.4015761,39.5057257 15.4579723,42.8547803 C11.613889,46.1196226 7.92920048,47.1325982 2.51544316,49.9966228 C1.03558033,50.7796344 -0.0316362145,48.1463836 0.816311428,47.3811862 C3.85209345,44.6418604 7.04969754,41.2636555 11.4148479,37.5299779 C12.8623463,36.2918966 20.2907884,18.5870907 23.815273,17.7692606" id="Fill-24" fill="#FFFFFF"></path>
                            <path d="M31.7863045,0.767626618 C24.6637061,3.81384111 23.8359862,5.96530094 24.0884287,7.5062223 C24.3416802,9.04633394 25.908927,9.09977629 26.4364669,10.8026442 C26.9640068,12.5055121 26.9025145,13.2885236 26.2657446,15.0019181 C25.8247795,16.1881765 28.4373968,16.0189424 30.0693724,14.9015112 C31.7005388,13.7840801 32.2717707,13.5897442 31.5710812,10.8747104 C30.8720098,8.15967661 33.703896,7.64387687 33.9668569,4.36607882 C34.2306269,1.08909051 31.7863045,0.767626618 31.7863045,0.767626618" id="Fill-26" fill="#FFD6D6"></path>
                            <path d="M31.006403,0.316929386 C29.2384969,0.790623027 30.4189889,6.06927062 30.1341821,6.24012422 C30.1341821,6.24012422 31.7297477,6.2692746 30.9319649,7.40937827 C30.1341821,8.54948194 29.3372084,7.72274483 29.3372084,7.72274483 C29.3372084,7.72274483 29.1373581,9.17621506 30.162501,9.77460754 C31.1884529,10.373 31.4651686,10.2134827 31.4651686,10.2134827 C31.4651686,10.2134827 34.0745495,10.4612609 35.896666,8.43773882 C38.103919,5.98586815 34.9055058,-0.729245287 31.006403,0.316929386" id="Fill-28" fill="#334659"></path>
                            <path d="M35.7180953,5.86602771 C34.9583407,6.07008035 35.2051194,7.49116128 35.4939718,7.71545724 C35.782015,7.9397532 38.1769817,9.14058682 38.172127,11.709059 C38.1672723,14.2783409 36.3160279,13.9649744 36.1453056,18.0695095 C35.9737742,22.1740447 46.9703929,25.0809851 45.7745278,28.5021059 C44.5778536,31.9224169 40.2345493,29.6430193 39.6301438,32.9523969 C39.3590919,34.4374467 39.9060505,36.1978056 46.2300569,34.8301671 C52.5548725,33.4617188 53.1811239,27.486701 48.8507654,21.7805146 C44.5212159,16.0743281 46.8571175,13.0564543 45.7745278,10.2329163 C44.6919382,7.40937827 39.3372459,4.89596791 35.7180953,5.86602771" id="Fill-30" fill="#334659"></path>
                        </g>
                    </g>
                    <g id="Group-20" transform="translate(221.500000, 98.000000) scale(-1, 1) translate(-221.500000, -98.000000) translate(177.000000, 20.000000)">
                        <path d="M23.4015722,104.747821 C15.8420919,104.747821 9.7129505,107.89532 9.7129505,111.77754 C9.7129505,114.366194 25.2516608,122.356288 56.3290815,135.747821 L85.7129505,120.439033 L23.4015722,104.747821 Z" id="Fill-1" fill="url(#linearGradient-5)" transform="translate(47.712951, 120.247821) rotate(143.000000) translate(-47.712951, -120.247821) "></path>
                        <g id="Group-51" transform="translate(44.500000, 59.500000) scale(-1, 1) translate(-44.500000, -59.500000) ">
                            <g id="Group-10" transform="translate(4.258065, 100.583333)">
                                <g id="Group-3" transform="translate(0.000000, 2.343939)">
                                    <mask id="mask-10" fill="white">
                                        <use xlink:href="#path-9"></use>
                                    </mask>
                                    <g id="Clip-2"></g>
                                </g>
                                <path d="M15.0266374,2.26268283 C15.9741619,3.16666212 15.7120806,5.1168197 15.1941213,5.91766566 C14.3032001,7.29355808 13.2013734,6.51458889 12.4383913,7.01541061 C10.3696553,8.37489545 6.02360394,9.61952727 5.0923626,8.96166162 C4.19911529,8.33036061 3.47800418,6.36770202 8.32340562,4.49333182 C10.4681296,3.66357727 11.5482455,2.49395152 11.5482455,2.49395152 L15.0266374,2.26268283 Z" id="Fill-4" fill="#334659"></path>
                                <path d="M14.9706544,0.59442303 C15.0923903,1.86718212 15.209474,2.58911545 15.2901143,2.98211596 C15.3498192,3.27667101 15.2482434,3.57982051 15.0226054,3.77671141 C14.3945409,4.32597455 13.0453652,5.21510889 11.5100964,4.45567253 C11.5100964,4.45567253 10.6176245,4.09939374 11.0270295,2.9188296 C11.4356591,1.73748414 11.658971,0.238144242 11.658971,0.238144242 L14.9706544,0.59442303 Z" id="Fill-6" fill="#FFFFFF"></path>
                                <path d="M23.7649533,9.3181748 C24.7132532,10.2213728 24.565154,12.2606001 23.9324372,12.9731576 C23.2997203,13.6849339 22.3087741,13.0950425 21.8520704,13.8888566 C20.1128744,16.9094132 16.9834073,16.5531344 15.8978637,16.4390627 C14.2648959,16.2687364 14.1819294,14.9030011 16.8740775,12.3449819 C19.4886869,9.86118742 19.9957908,9.2173854 19.9957908,9.2173854 L23.7649533,9.3181748 Z" id="Fill-8" fill="#334659"></path>
                            </g>
                            <g id="Group-13" transform="translate(11.354839, 35.416667)" fill="url(#linearGradient-11)">
                                <path d="M0.540976959,10.0396779 C0.540976959,10.0396779 0.384442396,30.2711264 0.540976959,36.7292163 C0.775373272,46.3204157 3.30020276,62.392324 3.27668203,66.8154916 C3.26289401,69.3870281 7.67911521,69.0610037 7.93541014,67.6750103 C12.1010138,45.1340927 10.6986912,27.7261086 12.8707097,19.1324813 C15.284424,9.58105993 18.7865806,7.84954307 15.5171982,0.182511236 L0.540976959,10.0396779 Z" id="Fill-11"></path>
                            </g>
                            <g id="Group-18" transform="translate(1.419355, 24.083333)">
                                <path d="M25.9023663,84.4309657 C26.0199756,85.6952113 26.1330903,86.4123157 26.2109971,86.8026874 C26.2686781,87.0952722 26.1705455,87.3963939 25.9525563,87.5919678 C25.3457821,88.137557 24.0423412,89.02152 22.5591154,88.2663874 C22.5591154,88.2663874 21.6968968,87.9124917 22.0924237,86.7398243 C22.4872014,85.5663809 22.7029434,84.07707 22.7029434,84.07707 L25.9023663,84.4309657 Z" id="Fill-14" fill="#FFFFFF"></path>
                                <path d="M9.23113297,7.21597891 C5.49535161,10.1806311 3.96193584,11.3292398 3.96193584,11.3292398 L0.319792473,9.27260935 L5.52906129,1.51329196 L7.26848065,0.0526963043 L9.62815806,3.5280137 L9.23113297,7.21597891 Z" id="Fill-16" fill="#FFD6D6"></path>
                            </g>
                            <g id="Group-21" transform="translate(19.870968, 41.083333)" fill="url(#linearGradient-12)">
                                <path d="M1.18485273,10.0016667 C1.18485273,10.0016667 -0.325093969,27.3652778 0.638339411,38.7914815 C1.22632258,45.7606944 2.60815708,65.937963 3.00730435,69.1231019 C3.32869565,71.6951389 7.53270126,70.5397685 7.62897055,69.1231019 C8.40504909,57.7535648 9.8950014,43.8962037 13.5199102,27.2763426 C15.627467,17.6138889 17.8424011,7.79166667 14.8580533,0.0550925926 L1.18485273,10.0016667 Z" id="Fill-19"></path>
                            </g>
                            <g id="Group-26" transform="translate(5.677419, 13.583333)" fill="url(#linearGradient-8)">
                                <path d="M8.71471921,13.0453476 C8.69429485,14.5802545 8.2756802,16.5140055 7.45887527,18.8466005 C7.45887527,18.8466005 0.295594163,16.193743 0.295594163,11.9072855 C0.295594163,11.9072855 6.33028541,4.8218555 7.6555235,4.0683305 C8.38492922,8.30385545 8.73799445,11.2961945 8.71471921,13.0453476 Z" id="Fill-22"></path>
                                <path d="M31.9306209,30.399417 C30.7678313,36.960822 22.5225963,40.647357 12.0279542,34.893792 C1.53331214,29.140992 6.49149032,26.950032 6.66482058,21.451977 C6.83737358,15.953922 10.1151032,13.008672 7.72734286,4.909617 C5.34113702,-3.189438 17.6180495,2.183922 23.6908267,7.180902 C29.7643813,12.177882 33.0040249,24.342912 31.9306209,30.399417" id="Fill-24"></path>
                            </g>
                            <g id="Group-29" transform="translate(9.935484, 13.583333)">
                                <mask id="mask-14" fill="white">
                                    <use xlink:href="#path-13"></use>
                                </mask>
                                <g id="Clip-28"></g>
                            </g>
                            <g id="Group-50">
                                <path d="M21.7303997,11.0737402 C23.8494039,15.4967285 23.0926718,16.2474512 24.9254909,17.8891243 C25.63054,18.5205371 23.2307504,19.7105371 21.5282959,19.8406934 L18.3270337,23.80736 L18.5036816,18.3291764 C18.5036816,18.3291764 17.4430224,17.8837012 17.6898668,16.9416178 C17.9367111,15.9995345 18.7281557,15.3208626 17.9274544,14.0510645 C17.5602735,13.4684603 21.7303997,11.0737402 21.7303997,11.0737402" id="Fill-30" fill="#FFD6D6"></path>
                                <path d="M22.7315849,11.0593301 C21.8259748,14.0870124 19.0165778,14.7207493 16.8536045,14.6432754 C14.6906311,14.5650267 11.8164376,6.91137435 13.2450491,4.21605534 C14.674432,1.52073633 19.8928752,-0.0589576823 21.8144039,2.71073633 C23.7359327,5.48120508 22.7315849,11.0593301 22.7315849,11.0593301" id="Fill-32" fill="#FFD6D6"></path>
                                <path d="M11.4575877,36.7192474 C11.4876718,36.7192474 11.5185273,36.7161484 11.5486115,36.7076263 L14.9951753,35.815901 C15.1895652,35.7663177 15.3068163,35.5664349 15.2574474,35.3712005 C15.2065358,35.1759661 15.0059748,35.0589805 14.8146704,35.1093385 L11.3673352,36.0010638 C11.1729453,36.0514219 11.0556942,36.2505299 11.1058345,36.4449896 C11.1482609,36.6100091 11.2955961,36.7192474 11.4575877,36.7192474" id="Fill-34" fill="#FFFFFF"></path>
                                <path d="M29.6831066,21.9923776 C33.4119986,22.9956654 33.9272861,29.2942982 35.0373142,34.551681 C36.1481136,39.8098385 30.918871,38.5245456 29.116136,36.6055156 C27.3126297,34.6864857 24.6212553,20.6303854 29.6831066,21.9923776" id="Fill-36" fill="url(#linearGradient-8)"></path>
                                <path d="M11.1923843,35.5737174 C12.5222581,35.2731185 12.6757644,35.9951758 13.8328471,37.6004362 C13.8367041,37.6019857 13.840561,37.6035352 13.844418,37.6050846 C16.4671388,38.6285156 22.6089341,41.0255599 25.3681907,42.1039974 C25.3681907,42.1039974 27.2064095,27.3583789 27.99554,25.1286784 L33.4831978,34.5518359 C31.5485554,42.896556 29.4426648,46.3162565 27.7864937,47.9525065 C26.4573913,49.2641406 16.0089341,42.8570443 11.9259748,40.2709635 C11.9259748,40.2709635 10.6184712,40.5359245 8.42078541,38.770293 C6.22387097,37.0046615 9.71131837,35.9084049 11.1923843,35.5737174" id="Fill-38" fill="#FFD6D6"></path>
                                <g id="Group-42" transform="translate(9.256662, 0.000000)" fill="#334659">
                                    <path d="M13.9524895,11.2833073 C13.022195,13.2464974 15.4420407,12.6429753 15.6102034,13.9577083 C15.7791374,15.2716667 12.5408485,14.7603385 11.7123773,12.9156836 C11.2464586,11.879082 10.5707223,12.045651 11.6468093,11.0586328 C12.762237,10.0359766 11.1762623,9.01409505 10.2428822,9.66565104 C9.3095021,10.317207 8.69084853,9.18221354 8.52885694,8.44466146 C8.36609397,7.70710937 5.65234923,8.5903125 3.87584151,8.42684245 C2.0993338,8.2633724 -0.0458976157,7.0617513 0.862798036,5.07376953 C1.77303647,3.08578776 2.39169004,4.4663737 2.96560309,3.77453125 C3.53951613,3.0826888 1.7437237,2.61629557 3.07591164,1.78035156 C4.40887097,0.943632812 5.24582749,2.58065755 5.8220547,1.76020833 C6.3990533,0.939759115 7.95957223,1.20007161 8.80578541,0.46484375 C9.6519986,-0.271158854 10.5876928,1.30853516 11.0767532,1.07146484 C11.5665849,0.835169271 13.4696003,1.36509115 13.7897265,4.27733724 C14.1090813,7.19035807 14.3296985,6.06621094 14.682223,7.52117187 C15.0339762,8.97613281 13.9524895,11.2833073 13.9524895,11.2833073" id="Fill-40"></path>
                                </g>
                                <polygon id="Fill-43" fill="#48D88A" points="10.6575806 37.6569922 0.233807854 29.0279427 6.23289621 40.0075521 16.6080715 49.1843424"></polygon>
                                <g id="Group-47" transform="translate(0.000000, 30.989583)" fill="#FFD6D6">
                                    <path d="M1.67584151,0.677897135 C-1.0463885,4.34861328 0.186290323,6.01585286 0.95845021,7.0989388 C1.70206872,8.14251302 9.44063815,12.9032878 10.5298387,14.8610547 C11.6182679,16.8195964 14.2703015,16.305944 15.1828541,15.8108854 C16.0954067,15.3150521 16.6724053,13.5966797 16.052209,12.233138 C15.3224755,10.6333008 12.8440042,12.1866536 12.8440042,12.1866536 L3.77170407,4.51363281 L1.67584151,0.677897135 Z" id="Fill-45"></path>
                                </g>
                                <path d="M26.587756,33.0369102 C28.2670687,31.6671706 32.6878962,33.8635573 33.0435063,36.3543451 L34.138878,35.0442604 L31.1921739,26.6298138 L28.3287798,24.049931 L26.8855119,25.1283685 L26.587756,33.0369102 Z" id="Fill-48" fill="url(#linearGradient-8)"></path>
                            </g>
                        </g>
                    </g>
                </g>
                <g id="Group-10" transform="translate(57.000000, 58.000000)">
                    <path d="M1.4564148,127.618143 C1.46874103,129.308667 6.08528205,131.116426 7.76798889,130.127409 L73.6325992,89.6167562 C75.3146017,88.6280921 76.6733047,86.4481687 76.6606263,84.7579971 L79.7544268,1.99702829 C79.7417484,0.306151939 74.7958434,-0.5032421 73.1134887,0.484717328 L4.0118189,39.7591059 C2.32946424,40.7484747 0.970409054,42.927341 0.983087465,44.6182174 L1.4564148,127.618143 Z" id="Fill-8-Copy-2" fill="#48D88A"></path>
                    <path d="M5.53156415,129.340832 C5.54389038,131.031356 6.92301972,131.602498 8.60572655,130.613481 L77.9718849,91.0673056 C79.6538874,90.0786415 81.0125904,87.8987182 80.999912,86.2085465 L80.5269368,3.20862105 C80.5142584,1.51774469 79.1351291,0.947307351 77.4527744,1.93526678 L8.08696825,41.4817949 C6.40461359,42.4711637 5.0455584,44.65003 5.05823681,46.3409063 L5.53156415,129.340832 Z" id="Fill-8-Copy-2" fill="#90F0BC"></path>
                    <g id="Path-23" transform="translate(11.298913, 29.010989)">
                        <mask id="mask-16" fill="white">
                            <use xlink:href="#path-15"></use>
                        </mask>
                        <use id="Mask" fill="#FFFFFF" xlink:href="#path-15"></use>
                        <path d="M10.7503365,44.2070051 C13.2289661,43.3189177 15.1489147,40.5580254 15.0386619,38.0403795 C14.9284091,35.5227337 12.8297052,34.2017155 10.3510757,35.0898028 C7.87244614,35.9778902 5.95249746,38.7387824 6.06275029,41.2564283 C6.17300312,43.7740742 8.27170695,45.0950924 10.7503365,44.2070051 Z" id="Oval-4-Copy-2" fill="#48D88A" mask="url(#mask-16)"></path>
                        <path d="M1.83922278,91.1515713 C1.83922278,89.8807952 7.16421703,77.0933515 17.8142055,52.7892402 L29.5008159,62.8855673 L45.3921484,30.9633566 L65.8863303,47.4347282 L65.8863303,56.3963111 C23.1882586,80.8372607 1.83922278,92.4223474 1.83922278,91.1515713 Z" fill="#48D88A" mask="url(#mask-16)"></path>
                    </g>
                    <path d="M29.5198288,39.6924326 L72.4517547,14.4775204 C73.1400997,14.0732395 74.0258481,14.3035189 74.430129,14.991864 C74.5604737,15.2137941 74.6291964,15.4665028 74.6291964,15.7238794 L74.6291964,15.959516 C74.6291964,17.377941 73.8780153,18.6902861 72.654939,19.4086271 L30.2165774,44.3336575 C29.5282324,44.7379384 28.642484,44.507659 28.2382031,43.819314 C28.1078584,43.5973839 28.0391358,43.3446752 28.0391358,43.0872986 L28.0391358,42.2792659 C28.0391358,41.2154472 28.6025216,40.2311884 29.5198288,39.6924326 Z" id="Rectangle-5-Copy-6" fill="#FFFFFF"></path>
                    <path d="M17.6142404,54.7474516 C20.8063869,53.5485466 23.2790264,49.8213823 23.1370354,46.4225971 C22.9950443,43.0238119 20.2921918,41.2404567 17.1000453,42.4393616 C13.9078988,43.6382666 11.4352593,47.3654309 11.5772503,50.7642161 C11.7192414,54.1630012 14.4220939,55.9463565 17.6142404,54.7474516 Z" id="Oval-4-Copy-3" fill="#FFFFFF"></path>
                </g>
                <g id="Group-13" transform="translate(48.000000, 0.000000)">
                    <path d="M9.256849,40.8916013 L78.4181952,0.928909261 C79.6869439,0.195803083 81.1801108,-0.0476698806 82.6160258,0.244418943 C86.1583922,0.96499472 88.4158136,2.05422392 89.3882901,3.51210655 C90.5327841,5.22786827 89.2711254,18.9469446 85.603314,44.6693357 L85.6033054,44.6693345 C85.4400614,45.8141661 84.7893445,46.8323257 83.8189362,47.4612898 L14.4823885,92.4013485 L12.6373119,91.7847674 L8.1930503,87.5675128 C7.59610883,87.0010623 7.25806452,86.2142675 7.25806452,85.3913427 L7.25806452,69.0031001 L4.95589883,72.3439333 L1.24142001,68.1002603 C0.929878796,67.7443345 0.910330016,67.2188091 1.19456698,66.8407212 L7.25806452,58.775144 L7.25806452,44.3550008 C7.25806452,42.9264399 8.01992973,41.6063158 9.256849,40.8916013 Z" id="Rectangle-3" fill="#54A4FF" fill-rule="nonzero"></path>
                    <path d="M13.6037845,43.8185576 L86.6954218,1.36195671 C87.6505488,0.807153894 88.8745888,1.13168077 89.4293916,2.08680779 C89.6066261,2.39192781 89.6999811,2.73850699 89.6999811,3.09136715 L89.6999811,47.0981687 C89.6999811,48.5234671 88.9415628,49.8410912 87.7090999,50.5569896 L14.6174626,93.0135904 C13.6623356,93.5683933 12.4382956,93.2438664 11.8834928,92.2887394 C11.7062583,91.9836193 11.6129032,91.6370402 11.6129032,91.28418 L11.6129032,73.2751383 L4.80301276,72.5179723 C4.25411046,72.4569419 3.85861211,71.9624938 3.91964249,71.4135915 C3.9402049,71.2286548 4.01195913,71.0531234 4.12683455,70.9067402 L11.6129032,61.3674125 L11.6129032,47.2773784 C11.6129032,45.8520801 12.3713216,44.534456 13.6037845,43.8185576 Z" id="Rectangle-3" fill="#A9DCFF" fill-rule="nonzero"></path>
                    <path d="M22.2106075,48.339664 L62.2310549,24.552819 C62.8242997,24.2002137 63.5910628,24.3952906 63.9436681,24.9885354 C64.0584832,25.1817073 64.1190818,25.4022664 64.1190818,25.6269838 L64.1190818,25.6269838 C64.1190818,26.9887321 63.4016433,28.249752 62.2310549,28.9455114 L22.2106075,52.7323564 C21.6173627,53.0849617 20.8505997,52.8898848 20.4979943,52.29664 C20.3831792,52.103468 20.3225806,51.882909 20.3225806,51.6581916 L20.3225806,51.6581916 C20.3225806,50.2964433 21.0400191,49.0354234 22.2106075,48.339664 Z" id="Rectangle-8" fill="#FFFFFF" fill-rule="nonzero"></path>
                    <path d="M22.1840562,61.7692489 L54.7461538,41.3781754 C55.3153666,41.0217223 56.065767,41.1941981 56.4222201,41.7634109 C56.5433762,41.9568827 56.6076293,42.1805498 56.6076293,42.4088263 L56.6076293,42.4088263 C56.6076293,43.775321 55.9043029,45.0456103 54.7461538,45.7708678 L22.1840562,66.1619413 C21.6148434,66.5183943 20.864443,66.3459185 20.5079899,65.7767057 C20.3868338,65.583234 20.3225806,65.3595668 20.3225806,65.1312904 L20.3225806,65.1312904 C20.3225806,63.7647956 21.025907,62.4945063 22.1840562,61.7692489 Z" id="Rectangle-8-Copy" fill="#FFFFFF" fill-rule="nonzero"></path>
                    <path d="M22.1690239,74.9333493 L54.5722765,54.2312762 C55.1322143,53.8735382 55.8761376,54.0374536 56.2338756,54.5973914 C56.3574613,54.7908299 56.4231294,55.0155862 56.4231294,55.2451333 L56.4231294,55.2503661 C56.4231294,56.6154168 55.7270093,57.8862228 54.5766861,58.6211513 L22.1734335,79.3232245 C21.6134957,79.6809624 20.8695724,79.5170471 20.5118344,78.9571092 C20.3882487,78.7636707 20.3225806,78.5389144 20.3225806,78.3093673 L20.3225806,78.3041346 C20.3225806,76.9390838 21.0187007,75.6682778 22.1690239,74.9333493 Z" id="Rectangle-8-Copy-2" fill="#FFFFFF" fill-rule="nonzero"></path>
                    <g id="Path-13" transform="translate(63.870968, 19.324231)">
                        <mask id="mask-18" fill="white">
                            <use xlink:href="#path-17"></use>
                        </mask>
                        <use id="Mask" fill="#FFFFFF" fill-rule="nonzero" xlink:href="#path-17"></use>
                        <path d="M5.93546112,18.8674668 C7.53725506,18.3295945 8.77800608,16.657453 8.7067561,15.1326344 C8.63550612,13.6078158 7.27923604,12.8077377 5.67744211,13.3456101 C4.07564817,13.8834825 2.83489714,15.5556239 2.90614713,17.0804425 C2.97739711,18.6052612 4.33366718,19.4053392 5.93546112,18.8674668 Z" id="Oval-4-Copy-2" fill="#54A4FF" mask="url(#mask-18)" transform="translate(5.806452, 16.106538) rotate(-7.000000) translate(-5.806452, -16.106538) "></path>
                        <path d="M0.278846405,37.3164995 C0.278846405,37.3164995 1.95399989,33.0396857 5.30430688,24.4860583 L9.99307564,28.0408434 L15.6249179,14.8517652 L22.1506766,19.9735494 L22.1506766,26.8487831 L0.278846405,39.0319117 C0.278846405,37.8883036 0.278846405,37.3164995 0.278846405,37.3164995 Z" fill="#54A4FF" fill-rule="nonzero" mask="url(#mask-18)"></path>
                    </g>
                </g>
            </g>
        </g>
    </g>
</svg>