<?xml version="1.0" encoding="UTF-8"?>
<svg width="79px" height="143px" viewBox="0 0 79 143" version="1.1" xmlns="http://www.w3.org/2000/svg" xmlns:xlink="http://www.w3.org/1999/xlink">
    <!-- Generator: Sketch 51.2 (57519) - http://www.bohemiancoding.com/sketch -->
    <title>box_video</title>
    <desc>Created with Sketch.</desc>
    <defs>
        <path d="M10,-4.32684999e-11 L51,-4.42241799e-11 C56.5228475,-4.42202891e-11 61,4.4771525 61,10 L61,30 C61,35.5228475 56.5228475,40 51,40 L36.2595194,40 L30.5,45.5825616 L24.6039871,40 L10,40 C4.4771525,40 6.34448686e-13,35.5228475 -1.31450406e-13,30 L-5.67723646e-12,10 C-6.44068291e-12,4.4771525 4.4771525,-4.38824919e-11 10,-4.46487292e-11 Z" id="path-1"></path>
        <filter x="-17.2%" y="-16.5%" width="134.4%" height="146.1%" filterUnits="objectBoundingBox" id="filter-2">
            <feOffset dx="0" dy="3" in="SourceAlpha" result="shadowOffsetOuter1"></feOffset>
            <feGaussianBlur stdDeviation="3" in="shadowOffsetOuter1" result="shadowBlurOuter1"></feGaussianBlur>
            <feColorMatrix values="0 0 0 0 0   0 0 0 0 0   0 0 0 0 0  0 0 0 0.109063632 0" type="matrix" in="shadowBlurOuter1"></feColorMatrix>
        </filter>
        <linearGradient x1="196.361685%" y1="58.4663726%" x2="-24.212446%" y2="52.0644882%" id="linearGradient-3">
            <stop stop-color="#FFFFFF" stop-opacity="0" offset="0%"></stop>
            <stop stop-color="#E6F4FF" offset="100%"></stop>
        </linearGradient>
        <linearGradient x1="0%" y1="92.9202908%" x2="152.394755%" y2="-140.867058%" id="linearGradient-4">
            <stop stop-color="#54A4FF" offset="0%"></stop>
            <stop stop-color="#087CFF" offset="100%"></stop>
        </linearGradient>
    </defs>
    <g id="web" stroke="none" stroke-width="1" fill="none" fill-rule="evenodd">
        <g id="index" transform="translate(-1182.000000, -2539.000000)">
            <g id="box_video" transform="translate(1188.000000, 2542.000000)">
                <g id="Group-31-Copy-2">
                    <g id="Rectangle-5-Copy-2">
                        <use fill="black" fill-opacity="1" filter="url(#filter-2)" xlink:href="#path-1"></use>
                        <use fill="#FEFEFE" fill-rule="evenodd" xlink:href="#path-1"></use>
                    </g>
                    <text id="小视频" font-family="PingFangSC-Medium, PingFang SC" font-size="16" font-weight="400" fill="#54A4FF">
                        <tspan x="7" y="26">小视频</tspan>
                    </text>
                </g>
                <g id="Group-10-Copy-5" transform="translate(5.000000, 76.000000)">
                    <polygon id="Path-46-Copy-2" fill="url(#linearGradient-3)" style="mix-blend-mode: multiply;" points="25 54.2338404 41.9978967 63.1483722 67.6645449 48.6516411 67.6645449 34.7921991 46.5778838 23"></polygon>
                    <polygon id="Rectangle-25" fill="#D1EBFF" points="25 0 50 13.5 25 27 0 13.5"></polygon>
                    <polygon id="Rectangle-5" fill="url(#linearGradient-4)" points="25 27.8979746 50 14 50 40.1020254 25 54"></polygon>
                    <polygon id="Rectangle-5-Copy" fill="#92D2FD" fill-rule="nonzero" points="25 27.8979746 25 54 0 40.1020254 0 14"></polygon>
                    <path d="M5,24.2490814 L13.6666667,29.5469091 C14.7712362,30.2221189 15.6666667,31.6649152 15.6666667,32.7694847 L15.6666667,40.7694847 C15.6666667,41.8740542 14.7712362,42.2221189 13.6666667,41.5469091 L5,36.2490814 C3.8954305,35.5738716 3,34.1310753 3,33.0265058 L3,25.0265058 C3,23.9219363 3.8954305,23.5738716 5,24.2490814 Z M17.3288935,35.2682738 L20.6066712,35.8696692 C21.1144407,35.962833 21.7021684,36.5576329 21.9193979,37.1981921 C21.97258,37.3550139 22,37.5055815 22,37.6407919 L22,43.6414035 C22,44.1936882 21.5522847,44.3677206 21,44.0301157 C20.8647896,43.9474632 20.7309834,43.8382492 20.6066712,43.7090765 L17.3288935,40.3031407 C16.9608939,39.9207527 16.7222222,39.4131536 16.7222222,39.0128921 L16.7222222,35.816821 C16.7222222,35.4165594 16.9608939,35.2007545 17.3288935,35.2682738 Z" id="Combined-Shape" fill="#FFFFFF"></path>
                </g>
            </g>
        </g>
    </g>
</svg>