<?xml version="1.0" encoding="UTF-8"?>
<svg width="79px" height="143px" viewBox="0 0 79 143" version="1.1" xmlns="http://www.w3.org/2000/svg" xmlns:xlink="http://www.w3.org/1999/xlink">
    <!-- Generator: Sketch 51.2 (57519) - http://www.bohemiancoding.com/sketch -->
    <title>box_link</title>
    <desc>Created with Sketch.</desc>
    <defs>
        <path d="M10,-4.32684999e-11 L51,-4.42241799e-11 C56.5228475,-4.42202891e-11 61,4.4771525 61,10 L61,30 C61,35.5228475 56.5228475,40 51,40 L36.2595194,40 L30.5,45.5825616 L24.6039871,40 L10,40 C4.4771525,40 6.34448686e-13,35.5228475 -1.31450406e-13,30 L-5.67723646e-12,10 C-6.44068291e-12,4.4771525 4.4771525,-4.38824919e-11 10,-4.46487292e-11 Z" id="path-1"></path>
        <filter x="-17.2%" y="-16.5%" width="134.4%" height="146.1%" filterUnits="objectBoundingBox" id="filter-2">
            <feOffset dx="0" dy="3" in="SourceAlpha" result="shadowOffsetOuter1"></feOffset>
            <feGaussianBlur stdDeviation="3" in="shadowOffsetOuter1" result="shadowBlurOuter1"></feGaussianBlur>
            <feColorMatrix values="0 0 0 0 0   0 0 0 0 0   0 0 0 0 0  0 0 0 0.109063632 0" type="matrix" in="shadowBlurOuter1"></feColorMatrix>
        </filter>
        <linearGradient x1="196.361685%" y1="58.4663726%" x2="-24.212446%" y2="52.0644882%" id="linearGradient-3">
            <stop stop-color="#FFFFFF" stop-opacity="0" offset="0%"></stop>
            <stop stop-color="#E6F4FF" offset="100%"></stop>
        </linearGradient>
        <linearGradient x1="0%" y1="92.9202908%" x2="152.394755%" y2="-140.867058%" id="linearGradient-4">
            <stop stop-color="#54A4FF" offset="0%"></stop>
            <stop stop-color="#087CFF" offset="100%"></stop>
        </linearGradient>
    </defs>
    <g id="web" stroke="none" stroke-width="1" fill="none" fill-rule="evenodd">
        <g id="index" transform="translate(-1109.000000, -2584.000000)">
            <g id="box_link" transform="translate(1115.000000, 2587.000000)">
                <g id="Group-31-Copy-2">
                    <g id="Rectangle-5-Copy-2">
                        <use fill="black" fill-opacity="1" filter="url(#filter-2)" xlink:href="#path-1"></use>
                        <use fill="#FEFEFE" fill-rule="evenodd" xlink:href="#path-1"></use>
                    </g>
                    <text id="链接" font-family="PingFangSC-Medium, PingFang SC" font-size="16" font-weight="400" fill="#54A4FF">
                        <tspan x="15" y="26">链接</tspan>
                    </text>
                </g>
                <g id="Group-10-Copy-5" transform="translate(5.000000, 76.000000)">
                    <polygon id="Path-46-Copy-2" fill="url(#linearGradient-3)" style="mix-blend-mode: multiply;" points="25 54.2338404 41.9978967 63.1483722 67.6645449 48.6516411 67.6645449 34.7921991 46.5778838 23"></polygon>
                    <polygon id="Rectangle-25" fill="#D1EBFF" points="25 0 50 13.5 25 27 0 13.5"></polygon>
                    <polygon id="Rectangle-5" fill="url(#linearGradient-4)" points="25 27.8979746 50 14 50 40.1020254 25 54"></polygon>
                    <polygon id="Rectangle-5-Copy" fill="#92D2FD" fill-rule="nonzero" points="25 27.8979746 25 54 0 40.1020254 0 14"></polygon>
                    <path d="M13.814031,30.6604574 C13.4235067,30.8890908 12.7903417,30.6266138 12.3998174,30.0741986 C12.0092932,29.5217834 12.0092932,28.8886184 12.3998174,28.659985 L14.4142136,27.4806519 C15.9763107,26.5661184 18.5089706,27.6160264 20.0710678,29.8256872 C21.633165,32.0353479 21.633165,34.5680078 20.0710678,35.4825414 L15.8284271,37.9664057 C14.26633,38.8809392 11.73367,37.8310312 10.1715729,35.6213704 C9.78104858,35.0689552 9.78104858,34.4357903 10.1715729,34.2071569 C10.5620972,33.9785235 11.1952621,34.2410005 11.5857864,34.7934157 C12.366835,35.8982461 13.633165,36.4232001 14.4142136,35.9659333 L18.6568542,33.482069 C19.4379028,33.0248023 19.4379028,31.7584723 18.6568542,30.6536419 C17.8758057,29.5488115 16.6094757,29.0238575 15.8284271,29.4811243 L13.814031,30.6604574 Z M10.4299296,37.298542 C10.8204539,37.0699086 11.4536189,37.3323856 11.8441432,37.8848008 C12.2346675,38.437216 12.2346675,39.070381 11.8441432,39.2990143 L9.82842712,40.4791202 C8.26632996,41.3936537 5.73367004,40.3437457 4.17157288,38.1340849 C2.60947571,35.9244242 2.60947571,33.3917643 4.17157288,32.4772307 L8.41421356,29.9933664 C9.97631073,29.0788329 12.5089706,30.1287409 14.0710678,32.3384017 C14.4615921,32.8908169 14.4615921,33.5239818 14.0710678,33.7526152 C13.6805435,33.9812486 13.0473785,33.7187716 12.6568542,33.1663564 C11.8758057,32.061526 10.6094757,31.536572 9.82842712,31.9938388 L5.58578644,34.4777031 C4.80473785,34.9349698 4.80473785,36.2012998 5.58578644,37.3061302 C6.36683502,38.4109606 7.63316498,38.9359146 8.41421356,38.4786478 L10.4299296,37.298542 Z" id="Combined-Shape" fill="#FFFFFF" fill-rule="nonzero"></path>
                </g>
            </g>
        </g>
    </g>
</svg>