<?xml version="1.0" encoding="UTF-8"?>
<svg width="168px" height="185px" viewBox="0 0 168 185" version="1.1" xmlns="http://www.w3.org/2000/svg" xmlns:xlink="http://www.w3.org/1999/xlink">
    <!-- Generator: Sketch 51.2 (57519) - http://www.bohemiancoding.com/sketch -->
    <title>dataman</title>
    <desc>Created with Sketch.</desc>
    <defs>
        <linearGradient x1="203.936924%" y1="41.6551548%" x2="-24.212446%" y2="52.0644882%" id="linearGradient-1">
            <stop stop-color="#FFFFFF" stop-opacity="0" offset="0%"></stop>
            <stop stop-color="#E6F4FF" offset="100%"></stop>
        </linearGradient>
        <linearGradient x1="5.65804329%" y1="45.7389957%" x2="53.9407318%" y2="45.7389957%" id="linearGradient-2">
            <stop stop-color="#A9DCFF" offset="0%"></stop>
            <stop stop-color="#86CCFB" offset="83.4463945%"></stop>
            <stop stop-color="#63BCF8" offset="100%"></stop>
        </linearGradient>
        <linearGradient x1="61.4776866%" y1="79.2072243%" x2="10.6905996%" y2="7.22216976%" id="linearGradient-3">
            <stop stop-color="#A9DCFF" stop-opacity="0" offset="0%"></stop>
            <stop stop-color="#A9DCFF" offset="100%"></stop>
        </linearGradient>
        <linearGradient x1="50%" y1="18.4353244%" x2="20.2184854%" y2="87.5880435%" id="linearGradient-4">
            <stop stop-color="#54A4FF" offset="0%"></stop>
            <stop stop-color="#087CFF" offset="100%"></stop>
        </linearGradient>
        <linearGradient x1="50%" y1="-24.3965675%" x2="74.3192356%" y2="118.438388%" id="linearGradient-5">
            <stop stop-color="#FFD6D6" offset="0%"></stop>
            <stop stop-color="#FEC1C1" offset="100%"></stop>
        </linearGradient>
        <linearGradient x1="-26.1529063%" y1="-37.894931%" x2="50%" y2="64.3043311%" id="linearGradient-6">
            <stop stop-color="#C6E7FF" offset="0%"></stop>
            <stop stop-color="#FFFFFF" offset="100%"></stop>
        </linearGradient>
        <linearGradient x1="0%" y1="117.385503%" x2="50%" y2="-46.5900939%" id="linearGradient-7">
            <stop stop-color="#C6E7FF" offset="0%"></stop>
            <stop stop-color="#FFFFFF" offset="100%"></stop>
        </linearGradient>
        <linearGradient x1="2.83890334%" y1="70.9201838%" x2="165.844094%" y2="-50.5043051%" id="linearGradient-8">
            <stop stop-color="#54A4FF" offset="0%"></stop>
            <stop stop-color="#087CFF" offset="100%"></stop>
        </linearGradient>
        <linearGradient x1="37.6424612%" y1="88.3178606%" x2="91.1896536%" y2="-105.929937%" id="linearGradient-9">
            <stop stop-color="#54A4FF" offset="0%"></stop>
            <stop stop-color="#087CFF" offset="100%"></stop>
        </linearGradient>
        <linearGradient x1="46.7800153%" y1="50%" x2="27.3987811%" y2="91.8856599%" id="linearGradient-10">
            <stop stop-color="#63BCF8" stop-opacity="0" offset="0%"></stop>
            <stop stop-color="#63BCF8" offset="100%"></stop>
        </linearGradient>
    </defs>
    <g id="web" stroke="none" stroke-width="1" fill="none" fill-rule="evenodd">
        <g id="index" transform="translate(-390.000000, -2653.000000)">
            <g id="dataman" transform="translate(390.000000, 2653.000000)">
                <path d="M95.9281232,98 L73,98 L140.672739,137.036505 C143.726276,138.798365 143.726276,143.201635 140.672739,144.963101 L73,184 L95.9281232,184 C98.1616302,184 100.355732,183.412189 102.29015,182.29641 L165.059656,146.088329 C168.980115,143.826849 168.980115,138.173151 165.059656,135.911278 L102.29015,99.7031964 C100.355732,98.5874177 98.1616302,98 95.9281232,98" id="Fill-273" fill="url(#linearGradient-1)"></path>
                <path d="M146.992049,142.506102 L146.999967,142.501741 L146.999967,136.462459 L122.317723,148.473223 L82.1982381,125.298194 C77.3841217,122.517238 70.1031664,122.218287 65.9363428,124.630114 L24.7162625,148.486704 L0.0067012684,136.462459 L0.0067012684,142.052522 C-0.00121668629,142.201601 -0.00319617496,142.351076 0.0067012684,142.501741 C0.122303407,144.274432 1.46400083,146.117301 3.97953503,147.570027 L64.8005122,182.703485 C67.2970433,184.145902 70.4578908,184.918655 73.5031362,184.993987 C76.3294501,185.063372 79.0563937,184.532873 81.0624075,183.371564 L144.190677,146.834941 C146.178479,145.684734 147.09617,144.12456 146.992049,142.506102" id="Fill-277" fill="url(#linearGradient-2)"></path>
                <path d="M146.99176,136.500018 C146.875763,134.727335 145.534083,132.884474 143.018976,131.431357 L82.1987561,96.29805 C77.3846996,93.5175024 70.1038351,93.2181564 65.9370633,95.6299732 L2.80958048,132.16644 C0.819427359,133.318228 -0.0978562663,134.879982 0.00824300505,136.500018 C0.123843704,138.272702 1.46552441,140.115563 3.98102729,141.56868 L64.8012469,176.70159 C69.6153034,179.482535 76.8953761,179.781881 81.0629397,177.370064 L144.190423,140.833597 C146.18018,139.681809 147.097859,138.120055 146.99176,136.500018" id="Fill-279" fill="#FFFFFF"></path>
                <path d="M146.99176,135.499982 C146.875763,133.727298 145.534083,131.884437 143.018976,130.43132 L82.1987561,95.2984095 C77.3846996,92.5174654 70.1038351,92.2181194 65.9370633,94.6299362 L2.80958048,131.166403 C0.819427359,132.318191 -0.0978562663,133.879945 0.00824300505,135.499982 C0.123843704,137.273061 1.46552441,139.115922 3.98102729,140.568643 L64.8012469,175.70195 C69.6153034,178.482498 76.8953761,178.781844 81.0629397,176.370027 L144.190423,139.83356 C146.18018,138.681772 147.097859,137.120018 146.99176,135.499982" id="Fill-281" fill="#E6F4FF"></path>
                <g id="Group-7" transform="translate(28.000000, 108.000000)" fill="#A9DCFF">
                    <path d="M1.76908648,26.9936311 C2.16192723,27.2226506 2.16192723,27.5938614 1.76908648,27.8228809 C1.37624573,28.0519004 0.739654398,28.0519004 0.346813648,27.8228809 C-0.0464215196,27.5938614 -0.0464215196,27.2226506 0.346813648,26.9936311 C0.739654398,26.7646116 1.37624573,26.7646116 1.76908648,26.9936311" id="Fill-283"></path>
                    <path d="M9.38936874,22.5509314 C9.78220949,22.7799509 9.78220949,23.1511617 9.38936874,23.3801812 C8.99652799,23.6092007 8.35993666,23.6092007 7.96709591,23.3801812 C7.57386074,23.1511617 7.57386074,22.7799509 7.96709591,22.5509314 C8.35993666,22.3219119 8.99652799,22.3219119 9.38936874,22.5509314" id="Fill-285"></path>
                    <path d="M17.009651,18.1082316 C17.4020973,18.3372511 17.4020973,18.7084619 17.009651,18.9374814 C16.6168103,19.1665009 15.9798245,19.1665009 15.5869837,18.9374814 C15.194143,18.7084619 15.194143,18.3372511 15.5869837,18.1082316 C15.9798245,17.8792121 16.6168103,17.8792121 17.009651,18.1082316" id="Fill-287"></path>
                    <path d="M24.6295388,13.6653327 C25.0223796,13.8943522 25.0223796,14.265563 24.6295388,14.4945825 C24.2370925,14.723602 23.6001068,14.723602 23.207266,14.4945825 C22.8140308,14.265563 22.8140308,13.8943522 23.207266,13.6653327 C23.6001068,13.4363132 24.2366981,13.4363132 24.6295388,13.6653327" id="Fill-289"></path>
                    <path d="M9.38936874,31.43653 C9.78220949,31.6655496 9.78220949,32.0367603 9.38936874,32.2661781 C8.99692241,32.4947993 8.35993666,32.4947993 7.96709591,32.2661781 C7.57425516,32.0367603 7.57425516,31.6655496 7.96709591,31.43653 C8.35993666,31.2075105 8.99652799,31.2075105 9.38936874,31.43653" id="Fill-291"></path>
                    <path d="M17.009651,26.9938303 C17.4024918,27.2228498 17.4024918,27.5940606 17.009651,27.8230801 C16.6168103,28.0520996 15.9802189,28.0520996 15.5873782,27.8230801 C15.194143,27.5940606 15.194143,27.2228498 15.5873782,26.9938303 C15.9802189,26.7648108 16.6168103,26.7648108 17.009651,26.9938303" id="Fill-293"></path>
                    <path d="M24.6299333,22.5511305 C25.022774,22.78015 25.022774,23.1513608 24.6299333,23.3803803 C24.2370925,23.6093998 23.6005012,23.6093998 23.2076604,23.3803803 C22.8144253,23.1513608 22.8144253,22.78015 23.2076604,22.5511305 C23.6005012,22.322111 24.2370925,22.322111 24.6299333,22.5511305" id="Fill-295"></path>
                    <path d="M32.2502155,18.1082316 C32.6426619,18.3372511 32.6430563,18.7084619 32.2502155,18.9374814 C31.8573748,19.1665009 31.220389,19.1665009 30.8279427,18.9374814 C30.4347075,18.7084619 30.4347075,18.3372511 30.8279427,18.1082316 C31.220389,17.8792121 31.8573748,17.8792121 32.2502155,18.1082316" id="Fill-297"></path>
                    <path d="M17.0100454,35.8794289 C17.4024918,36.1084485 17.4024918,36.4796592 17.0100454,36.709077 C16.6172047,36.9376982 15.9806133,36.9376982 15.5877726,36.709077 C15.1945374,36.4796592 15.1945374,36.1084485 15.5877726,35.8794289 C15.9802189,35.6504094 16.6172047,35.6504094 17.0100454,35.8794289" id="Fill-299"></path>
                    <path d="M24.6299333,31.4367292 C25.022774,31.6657487 25.022774,32.0369595 24.6299333,32.265979 C24.2374869,32.4949985 23.6005012,32.4949985 23.2076604,32.265979 C22.8148197,32.0369595 22.8148197,31.6657487 23.2076604,31.4367292 C23.6005012,31.2077097 24.2374869,31.2077097 24.6299333,31.4367292" id="Fill-301"></path>
                    <path d="M32.2502155,26.9940294 C32.6430563,27.2230489 32.6430563,27.5942597 32.2502155,27.8232792 C31.8577692,28.0522987 31.2207834,28.0522987 30.8279427,27.8232792 C30.4347075,27.5942597 30.4347075,27.2230489 30.8279427,26.9940294 C31.2207834,26.7650099 31.8573748,26.7650099 32.2502155,26.9940294" id="Fill-303"></path>
                    <path d="M39.8704978,22.5511305 C40.2633385,22.78015 40.2633385,23.1513608 39.8704978,23.3807786 C39.477657,23.6093998 38.8410657,23.6093998 38.4482249,23.3807786 C38.0549898,23.1513608 38.0549898,22.78015 38.4482249,22.5511305 C38.8410657,22.322111 39.477657,22.322111 39.8704978,22.5511305" id="Fill-305"></path>
                    <path d="M24.6303277,40.322288 C25.0231684,40.5513075 25.0231684,40.9225183 24.6303277,41.1519361 C24.2374869,41.3805573 23.6008956,41.3805573 23.2080548,41.1519361 C22.8148197,40.9225183 22.8148197,40.5513075 23.2080548,40.322288 C23.6008956,40.0932685 24.2374869,40.0932685 24.6303277,40.322288" id="Fill-307"></path>
                    <path d="M32.2506099,35.8796281 C32.6434507,36.1086476 32.6434507,36.4798584 32.2506099,36.7088779 C31.8577692,36.9378974 31.2211779,36.9378974 30.8283371,36.7088779 C30.4351019,36.4798584 30.4351019,36.1086476 30.8283371,35.8796281 C31.2211779,35.6506086 31.8577692,35.6506086 32.2506099,35.8796281" id="Fill-309"></path>
                    <path d="M39.8708922,31.4369283 C40.2633385,31.6659478 40.2633385,32.0371586 39.8708922,32.2661781 C39.4780515,32.4951976 38.8410657,32.4951976 38.4486194,32.2661781 C38.0553842,32.0371586 38.0553842,31.6659478 38.4486194,31.4369283 C38.8410657,31.2079088 39.4780515,31.2079088 39.8708922,31.4369283" id="Fill-311"></path>
                    <path d="M47.49078,26.9940294 C47.8836208,27.2230489 47.8836208,27.5942597 47.49078,27.8236775 C47.0983337,28.0522987 46.461348,28.0522987 46.0685072,27.8236775 C45.6756665,27.5942597 45.6756665,27.2230489 46.0685072,26.9940294 C46.461348,26.7650099 47.0983337,26.7650099 47.49078,26.9940294" id="Fill-313"></path>
                    <path d="M32.2506099,44.7651869 C32.6434507,44.9942064 32.6434507,45.3654172 32.2506099,45.594835 C31.8581636,45.8234562 31.2211779,45.8234562 30.8283371,45.5944367 C30.4354964,45.3654172 30.4354964,44.9942064 30.8283371,44.7651869 C31.2211779,44.5361674 31.8581636,44.5361674 32.2506099,44.7651869" id="Fill-315"></path>
                    <path d="M39.8708922,40.3224872 C40.2637329,40.5515067 40.2637329,40.9227174 39.8708922,41.1517369 C39.4780515,41.3807565 38.8414601,41.3807565 38.4486194,41.1517369 C38.0553842,40.9227174 38.0553842,40.5515067 38.4486194,40.3224872 C38.8414601,40.0934676 39.4780515,40.0934676 39.8708922,40.3224872" id="Fill-317"></path>
                    <path d="M47.4911745,35.8797874 C47.8840152,36.1088069 47.8840152,36.4800177 47.4911745,36.7090372 C47.0983337,36.9380567 46.4617424,36.9380567 46.0689016,36.7090372 C45.6756665,36.4800177 45.6756665,36.1088069 46.0689016,35.8797874 C46.4617424,35.6507679 47.0983337,35.6507679 47.4911745,35.8797874" id="Fill-319"></path>
                    <path d="M55.1114567,31.4369283 C55.5042975,31.6659478 55.5042975,32.0371586 55.1114567,32.2665764 C54.718616,32.4951976 54.0820246,32.4951976 53.6891839,32.2665764 C53.2959487,32.0371586 53.2959487,31.6659478 53.6891839,31.4369283 C54.0816302,31.2079088 54.718616,31.2079088 55.1114567,31.4369283" id="Fill-321"></path>
                    <path d="M55.1114567,31.4369283 C55.5042975,31.6659478 55.5042975,32.0371586 55.1114567,32.2665764 C54.718616,32.4951976 54.0820246,32.4951976 53.6891839,32.2665764 C53.2959487,32.0371586 53.2959487,31.6659478 53.6891839,31.4369283 C54.0816302,31.2079088 54.718616,31.2079088 55.1114567,31.4369283" id="Fill-323"></path>
                    <path d="M32.2498211,9.22263297 C32.6426619,9.45165249 32.6426619,9.82286325 32.2498211,10.0518828 C31.8569804,10.2809023 31.220389,10.2809023 30.8275483,10.0518828 C30.4343131,9.82286325 30.4343131,9.45165249 30.8275483,9.22263297 C31.220389,8.99361346 31.8569804,8.99361346 32.2498211,9.22263297" id="Fill-325"></path>
                    <path d="M39.8701428,4.77973407 C40.2629836,5.00875359 40.2629836,5.37996434 39.8701428,5.60938215 C39.4773021,5.83800337 38.8407107,5.83800337 38.44787,5.60938215 C38.0546348,5.37996434 38.0546348,5.00875359 38.44787,4.77973407 C38.8407107,4.55071456 39.4773021,4.55071456 39.8701428,4.77973407" id="Fill-327"></path>
                    <path d="M47.4904251,0.337034318 C47.8828714,0.566053831 47.8828714,0.93726459 47.4904251,1.1662841 C47.0975843,1.39530362 46.460993,1.39530362 46.0681522,1.1662841 C45.6749171,0.93726459 45.6749171,0.566053831 46.0681522,0.337034318 C46.4605986,0.108014805 47.0975843,0.108014805 47.4904251,0.337034318" id="Fill-329"></path>
                    <path d="M39.8701428,13.6655319 C40.2629836,13.8945514 40.2629836,14.2657621 39.8701428,14.4947817 C39.4776965,14.7238012 38.8407107,14.7238012 38.44787,14.4947817 C38.0550292,14.2657621 38.0550292,13.8945514 38.44787,13.6655319 C38.8407107,13.4365124 39.4776965,13.4365124 39.8701428,13.6655319" id="Fill-331"></path>
                    <path d="M47.4904251,9.22283212 C47.8832658,9.45185163 47.8832658,9.82306239 47.4904251,10.0520819 C47.0975843,10.2811014 46.460993,10.2811014 46.0681522,10.0520819 C45.6749171,9.82306239 45.6749171,9.45185163 46.0681522,9.22283212 C46.460993,8.99381261 47.0975843,8.99381261 47.4904251,9.22283212" id="Fill-333"></path>
                    <path d="M55.1107073,4.77993322 C55.5035481,5.00895273 55.5035481,5.38016349 55.1107073,5.60918301 C54.7178666,5.83820252 54.0812752,5.83820252 53.6884345,5.60918301 C53.2951993,5.38016349 53.2951993,5.00895273 53.6884345,4.77993322 C54.0812752,4.55091371 54.7178666,4.55091371 55.1107073,4.77993322" id="Fill-335"></path>
                    <path d="M47.49078,18.1084308 C47.8836208,18.3374503 47.8836208,18.708661 47.49078,18.9376806 C47.0979393,19.1667001 46.461348,19.1667001 46.0685072,18.9376806 C45.675272,18.708661 45.675272,18.3374503 46.0685072,18.1084308 C46.461348,17.8794113 47.0979393,17.8794113 47.49078,18.1084308" id="Fill-337"></path>
                    <path d="M55.1111017,13.665731 C55.5035481,13.8947505 55.5035481,14.2659613 55.1111017,14.4949808 C54.718261,14.7240003 54.0812752,14.7240003 53.6888289,14.4949808 C53.2955937,14.2659613 53.2955937,13.8947505 53.6888289,13.665731 C54.0812752,13.4367115 54.718261,13.4367115 55.1111017,13.665731" id="Fill-339"></path>
                    <path d="M62.7309896,9.22283212 C63.1238303,9.45185163 63.1238303,9.82306239 62.7309896,10.0520819 C62.3385433,10.2811014 61.7015575,10.2811014 61.3087168,10.0520819 C60.915876,9.82306239 60.9154816,9.45185163 61.3087168,9.22283212 C61.7015575,8.99381261 62.3385433,8.99381261 62.7309896,9.22283212" id="Fill-341"></path>
                    <path d="M55.1111017,22.5513297 C55.5039425,22.7803492 55.5039425,23.1515599 55.1111017,23.3805795 C54.718261,23.609599 54.0816697,23.609599 53.6888289,23.3805795 C53.2955937,23.1515599 53.2955937,22.7803492 53.6888289,22.5513297 C54.0816697,22.3223102 54.718261,22.3223102 55.1111017,22.5513297" id="Fill-343"></path>
                    <path d="M62.731384,18.1086299 C63.1242248,18.3376494 63.1242248,18.7088602 62.731384,18.9378797 C62.3385433,19.1668992 61.7019519,19.1668992 61.3091112,18.9378797 C60.915876,18.7088602 60.915876,18.3376494 61.3091112,18.1086299 C61.7019519,17.8796104 62.3385433,17.8796104 62.731384,18.1086299" id="Fill-345"></path>
                    <path d="M70.3516663,13.665731 C70.744507,13.8947505 70.744507,14.2659613 70.3516663,14.4953791 C69.9588255,14.7240003 69.3222342,14.7240003 68.9293934,14.4953791 C68.5361583,14.2659613 68.5361583,13.8947505 68.9293934,13.665731 C69.3218398,13.4367115 69.9588255,13.4367115 70.3516663,13.665731" id="Fill-347"></path>
                    <path d="M62.731384,26.9942286 C63.1242248,27.2232481 63.1242248,27.5944589 62.7317784,27.8234784 C62.3389377,28.0524979 61.7019519,28.0524979 61.3095056,27.8234784 C60.9162704,27.5944589 60.9162704,27.2232481 61.3095056,26.9942286 C61.7019519,26.7652091 62.3389377,26.7652091 62.731384,26.9942286" id="Fill-349"></path>
                    <path d="M70.3516663,22.5515288 C70.744507,22.7805483 70.744507,23.1517591 70.3516663,23.3807786 C69.9592199,23.6097981 69.3222342,23.6097981 68.9293934,23.3807786 C68.5365527,23.1517591 68.5365527,22.7805483 68.9293934,22.5515288 C69.3222342,22.3225093 69.9588255,22.3225093 70.3516663,22.5515288" id="Fill-351"></path>
                    <path d="M77.9719485,18.1086299 C78.3647893,18.3376494 78.3647893,18.7088602 77.9719485,18.938278 C77.5791078,19.1668992 76.9425164,19.1668992 76.5496757,18.938278 C76.1564405,18.7088602 76.1564405,18.3376494 76.5496757,18.1086299 C76.9425164,17.8796104 77.5791078,17.8796104 77.9719485,18.1086299" id="Fill-353"></path>
                    <path d="M39.8712866,49.2080858 C40.2641274,49.4371053 40.2641274,49.8083161 39.8712866,50.0377339 C39.4784459,50.2663551 38.8418545,50.2663551 38.4490138,50.0373356 C38.0557786,49.8083161 38.0557786,49.4371053 38.4490138,49.2080858 C38.8418545,48.9790663 39.4784459,48.9790663 39.8712866,49.2080858" id="Fill-355"></path>
                    <path d="M47.4915689,44.7653861 C47.8840152,44.9944056 47.8840152,45.3656163 47.4915689,45.5946358 C47.0987281,45.8236554 46.4617424,45.8236554 46.069296,45.5946358 C45.6760609,45.3656163 45.6760609,44.9944056 46.0689016,44.7653861 C46.4617424,44.5363665 47.0987281,44.5363665 47.4915689,44.7653861" id="Fill-357"></path>
                    <path d="M55.1114567,40.3224872 C55.5042975,40.5515067 55.5042975,40.9227174 55.1114567,41.1521352 C54.7190104,41.3807565 54.0820246,41.3807565 53.6891839,41.1521352 C53.2963431,40.9227174 53.2959487,40.5515067 53.6891839,40.3224872 C54.0820246,40.0934676 54.7190104,40.0934676 55.1114567,40.3224872" id="Fill-359"></path>
                    <path d="M62.731739,35.8797874 C63.1245797,36.1088069 63.1245797,36.4800177 62.731739,36.7094355 C62.3388982,36.9380567 61.7023069,36.9380567 61.3094661,36.7090372 C60.916231,36.4800177 60.916231,36.1088069 61.3094661,35.8797874 C61.7023069,35.6507679 62.3388982,35.6507679 62.731739,35.8797874" id="Fill-361"></path>
                    <path d="M47.4915689,53.6509847 C47.8844096,53.8800042 47.8844096,54.251215 47.4915689,54.4806328 C47.0987281,54.709254 46.4621368,54.709254 46.069296,54.4802345 C45.6760609,54.251215 45.6760609,53.8800042 46.069296,53.6509847 C46.4621368,53.4219652 47.0987281,53.4219652 47.4915689,53.6509847" id="Fill-363"></path>
                    <path d="M55.1118511,49.208285 C55.5046919,49.4373045 55.5046919,49.8085152 55.1118511,50.0375347 C54.7190104,50.2665543 54.0824191,50.2665543 53.6895783,50.0375347 C53.2963431,49.8085152 53.2963431,49.4373045 53.6895783,49.208285 C54.0824191,48.9792654 54.7190104,48.9792654 55.1118511,49.208285" id="Fill-365"></path>
                    <path d="M62.7321334,44.7655852 C63.1249741,44.9946047 63.1249741,45.3658155 62.7321334,45.594835 C62.3392926,45.8238545 61.7027013,45.8238545 61.3098606,45.594835 C60.9166254,45.3658155 60.9166254,44.9946047 61.3098606,44.7655852 C61.7023069,44.5365657 62.3392926,44.5365657 62.7321334,44.7655852" id="Fill-367"></path>
                    <path d="M70.3520607,40.3226863 C70.7449014,40.5517058 70.7449014,40.9229166 70.3520607,41.1523344 C69.9596144,41.3809556 69.3226286,41.3809556 68.9297878,41.1519361 C68.5369471,40.9229166 68.5369471,40.5517058 68.9297878,40.3226863 C69.3226286,40.0936668 69.9596144,40.0936668 70.3520607,40.3226863" id="Fill-369"></path>
                    <path d="M70.3520607,31.4370876 C70.7449014,31.6661072 70.7449014,32.0373179 70.3520607,32.2663374 C69.9592199,32.4953569 69.3226286,32.4953569 68.9297878,32.2663374 C68.5365527,32.0373179 68.5365527,31.6661072 68.9297878,31.4370876 C69.3226286,31.2080681 69.9592199,31.2080681 70.3520607,31.4370876" id="Fill-371"></path>
                    <path d="M77.9723429,26.9943879 C78.3647893,27.2234074 78.3647893,27.5946182 77.9723429,27.8236377 C77.5795022,28.0526572 76.9429109,28.0526572 76.5500701,27.8236377 C76.1568349,27.5946182 76.1568349,27.2234074 76.5500701,26.9943879 C76.9425164,26.7653684 77.5795022,26.7653684 77.9723429,26.9943879" id="Fill-373"></path>
                    <path d="M85.5922308,22.5515288 C85.9850715,22.7805483 85.9850715,23.1517591 85.5922308,23.3811769 C85.1997845,23.6097981 84.5627987,23.6097981 84.1699579,23.3811769 C83.7771172,23.1517591 83.7771172,22.7805483 84.1699579,22.5515288 C84.5627987,22.3225093 85.1997845,22.3225093 85.5922308,22.5515288" id="Fill-375"></path>
                    <path d="M77.9723429,35.8799866 C78.3651837,36.1090061 78.3651837,36.4802168 77.9723429,36.7092363 C77.5795022,36.9382559 76.9429109,36.9382559 76.5500701,36.7092363 C76.1568349,36.4802168 76.1568349,36.1090061 76.5500701,35.8799866 C76.9429109,35.650967 77.5795022,35.650967 77.9723429,35.8799866" id="Fill-377"></path>
                    <path d="M85.5926252,31.4370876 C85.985466,31.6661072 85.985466,32.0373179 85.5926252,32.2667357 C85.1997845,32.4953569 84.5631931,32.4953569 84.1703524,32.2667357 C83.7771172,32.0373179 83.7771172,31.6661072 84.1703524,31.4370876 C84.5631931,31.2080681 85.1997845,31.2080681 85.5926252,31.4370876" id="Fill-379"></path>
                    <path d="M93.2129075,26.9943879 C93.6057482,27.2234074 93.6057482,27.5946182 93.2129075,27.824036 C92.8200667,28.0526572 92.1834754,28.0526572 91.7906346,27.8236377 C91.3973995,27.5946182 91.3973995,27.2234074 91.7906346,26.9943879 C92.1834754,26.7653684 92.8200667,26.7653684 93.2129075,26.9943879" id="Fill-381"></path>
                </g>
                <g id="Group-32" transform="translate(21.000000, 51.000000)">
                    <g id="Group-8" transform="translate(12.000000, 1.000000)">
                        <g id="Group-3" transform="translate(0.000000, 88.698519)" fill="url(#linearGradient-3)">
                            <path d="M12.2278094,0.235406991 C5.58307164,0.235406991 0.19614356,2.98342178 0.19614356,6.37208621 C0.19614356,8.63163888 17.0861807,17.2719444 50.8662549,32.2930026 L66.8992606,19.8316991 L12.2278094,0.235406991 Z" id="Fill-1"></path>
                        </g>
                        <path d="M9.9779388,96.8113242 C11.7855736,98.2953187 12.1582328,98.1451249 12.3917387,99.1732213 C12.6245659,100.200653 9.7342509,99.585922 8.36851258,99.0881558 C8.36851258,99.0881558 7.25257133,98.6734615 6.68373997,97.9457526 C6.1155874,97.2180437 5.54743483,97.5822304 4.47561534,97.2180437 C3.40447465,96.853857 3.27346695,95.8410457 3.73980006,94.2427445 C4.20613318,92.6444433 7.32045097,94.2141678 7.99313819,94.7278838 C8.6658254,95.2415997 9.9779388,96.8113242 9.9779388,96.8113242" id="Fill-4" fill="#334659"></path>
                        <path d="M10.3903076,11.9457159 C11.2863188,10.0523437 12.1918332,11.2990851 12.6730998,8.97174586 C13.1543665,6.64440661 12.2013363,3.58271275 8.76798425,1.36436368 C5.33395336,-0.854649953 3.14619263,1.80497645 2.76810305,5.72131289 C2.39137105,9.63698475 4.72100023,12.518579 4.72100023,12.518579 L7.94731943,13.5991768 L10.3903076,11.9457159 Z" id="Fill-6" fill="#FFD6D6"></path>
                    </g>
                    <g id="Group-11" transform="translate(14.000000, 42.000000)" fill="url(#linearGradient-4)">
                        <path d="M0.310869565,9.3245122 C0.310869565,9.3245122 1.08902517,26.9922561 1.58641648,31.0978049 C2.08315332,35.2026829 2.74481465,50.7321341 2.5340778,52.9696951 C2.31090618,55.3286585 5.82275057,55.6029878 6.35351945,52.9696951 C7.14869108,49.0257927 8.00341876,38.3222561 8.65853547,31.4989024 C9.31299771,24.6762195 10.6467918,20.4137195 11.8797986,11.4789024 L11.5479863,0.238780488 L0.310869565,9.3245122 Z" id="Fill-9"></path>
                    </g>
                    <path d="M30.5513496,93.1692763 C32.3743729,94.6083748 32.7510306,94.4627248 32.9866129,95.4590734 C33.2215104,96.4560664 30.3054948,95.8599329 28.9276124,95.3772259 C28.9276124,95.3772259 27.8010635,94.9750774 27.2278589,94.2693843 C26.6546544,93.5636911 26.080765,93.9162154 25.0000997,93.5636911 C23.9194345,93.2105223 23.7872619,92.228352 24.2577416,90.678405 C24.7282214,89.1284579 27.8702315,90.6506928 28.5489002,91.1488671 C29.2275689,91.6470413 30.5513496,93.1692763 30.5513496,93.1692763" id="Fill-12" fill="#334659"></path>
                    <g id="Group-16" transform="translate(22.000000, 39.000000)" fill="url(#linearGradient-4)">
                        <path d="M0.230608696,7.17676034 C0.230608696,7.17676034 0.998658385,24.533832 1.48829814,28.5673413 C1.97922981,32.6008506 2.63229814,47.8578089 2.42365217,50.0561077 C2.20467081,52.3730198 5.67026087,52.6431944 6.19413665,50.0561077 C6.97898137,46.1807494 7.8226087,35.6656851 8.46921739,28.9620598 C9.11518012,22.2590935 9.55831056,23.0030622 7.01450932,14.224364 L3.328,0.435574198 L0.230608696,7.17676034 Z" id="Fill-14"></path>
                    </g>
                    <g id="Group-21" transform="translate(12.000000, 0.000000)">
                        <path d="M6.15052986,6.69893 C5.5476313,5.97863 5.47941764,6.05913 5.93899859,5.32903 C6.39857954,4.59963 6.6714342,4.66613 7.60024248,4.67453 C8.41191619,4.68223 9.305619,4.50070116 10.1923617,4.22513 C11.0791045,3.94955884 12.2546193,2.70683 10.5885522,1.30613 C8.92248513,-0.09457 5.86596174,-0.45367 4.10480894,0.90503 C4.10480894,0.90503 1.94608762,0.47103 0.682412257,3.76873 C-0.581263106,7.06643 2.64889507,12.84913 3.53222758,13.32233 C4.21987644,13.69053 4.80141516,13.36503 5.11147727,12.02243 C5.42153938,10.67983 5.53109466,9.95463 4.77247602,9.51013 C4.01316836,9.06493 3.65969756,7.65723 4.47412737,7.34293 C5.28924621,7.02933 5.60482054,7.14623 6.06440149,7.87563 C6.52398244,8.60503 6.75411743,7.41853 6.15052986,6.69893 Z" id="Fill-17" fill="#334659"></path>
                        <path d="M13.1195291,11.4387022 C12.8611286,11.1517148 11.8720536,11.9919129 10.9282352,9.98596772 C10.7004924,9.50098134 8.76540909,10.0719898 8.45810238,9.63446383 C8.15079567,9.19767946 11.972786,8.85136655 13.0786522,8.43015513 C14.1852483,8.00894372 12.9947085,6.41605266 13.3786594,6.08827899 C13.7626103,5.76050532 14.6765011,7.8591467 14.8151905,8.78017589 C14.9531501,9.70120508 15.2297991,10.5903468 15.2297991,10.5903468 C15.2297991,10.5903468 15.4852797,14.0616331 13.1195291,11.4387022" id="Fill-19" fill="url(#linearGradient-5)"></path>
                    </g>
                    <g id="Group-24" transform="translate(9.000000, 9.000000)" fill="url(#linearGradient-6)">
                        <path d="M20.5226799,10.0504687 C19.1868639,8.64871875 18.1440921,6.764625 14.0387345,5.99090625 C13.446484,5.31825 13.9976536,3.7314375 13.9976536,3.7314375 C13.9976536,3.7314375 11.1034997,4.98815625 8.27918347,4.297125 C8.27918347,4.297125 8.13676946,5.6791875 6.45244997,8.2306875 L2.71134358,10.5905625 C-1.46248229,13.5627187 2.09786786,28.5495 2.09786786,28.5495 C3.39397225,35.0115937 2.16222803,49.8756562 2.53811885,57.03075 C2.999595,65.7969375 23.7235716,64.0723125 24.1850478,49.707 C24.3370473,44.9590312 19.1827558,17.301375 19.1827558,17.301375 C19.1827558,17.301375 21.3011641,19.5391875 27.0942646,19.7879062 C32.9079056,20.0372812 18.8719098,1.42078125 18.2748665,0.3819375 C18.2036595,0.25790625 18.0879481,0.20409375 17.9455341,0.20409375 C17.2334641,0.20409375 15.8627293,1.55465625 16.1564582,2.205 C17.5641658,5.32153125 20.5226799,10.0504687 20.5226799,10.0504687 Z" id="Fill-22"></path>
                    </g>
                    <g id="Group-31" transform="translate(0.000000, 12.000000)">
                        <path d="M11.3536259,30.0340829 C11.9524026,28.6502222 11.8943579,29.8236257 13.3693038,30.8147529 C13.6063704,30.9742447 15.4827411,31.5282686 17.0114546,31.6613783 C18.5395572,31.7950875 17.7690904,34.2282359 15.2676703,34.4279003 C12.7662501,34.6281644 12.7589181,33.6460311 11.6627902,33.1459705 C10.2300031,32.4924141 11.3536259,30.0340829 11.3536259,30.0340829" id="Fill-25" fill="url(#linearGradient-5)"></path>
                        <path d="M11.2616747,8.04612322 C3.44295467,16.7224945 -3.49661867,25.5301815 1.93218133,30.3419207 C4.970368,33.0349161 11.199968,34.0827213 11.8898347,33.394844 C13.6016747,31.6890988 11.8849813,30.2663971 11.8849813,30.2663971 C11.8849813,30.2663971 7.23618133,27.4733839 7.23618133,25.7377014 C7.23618133,25.0198868 12.7738347,17.5151523 12.787008,16.1829428 C12.8424747,10.5125478 11.2616747,8.04612322 11.2616747,8.04612322" id="Fill-27" fill="url(#linearGradient-7)"></path>
                        <path d="M17.5301282,0.879598884 C17.5301282,0.879598884 17.5342648,1.77960016 16.536282,3.62295414 C16.3416176,3.98251499 20.1917522,5.66592136 21.3454589,5.01954804 C22.5712722,4.33167074 22.4415146,3.39141043 22.4415146,3.39141043 C21.8417812,2.69264684 22.8425319,0.541191397 22.8425319,0.541191397 C22.424535,0.541191397 20.3894349,1.59605269 17.5301282,0.879598884 Z" id="Fill-29" fill="#FFD6D6"></path>
                    </g>
                </g>
                <path d="M65.21433,1.27862212 L127.542928,32.0655861 C130.272296,33.4137466 132,36.1941161 132,39.2382886 L132,112.238439 C132,114.999863 129.761424,117.238439 127,117.238439 C126.231975,117.238439 125.474272,117.06151 124.78567,116.721378 L62.457072,85.9344139 C59.7277041,84.5862534 58,81.8058839 58,78.7617114 L58,5.76156119 C58,3.00013744 60.2385763,0.761561189 63,0.761561189 C63.7680255,0.761561189 64.5257277,0.93848976 65.21433,1.27862212 Z" id="Rectangle-11" fill="#334659" fill-rule="nonzero"></path>
                <g id="Group-35" transform="translate(95.000000, 57.500000) scale(-1, 1) translate(-95.000000, -57.500000) translate(64.000000, 21.000000)">
                    <path d="M54,3.29141619 L61.1261675,0 L61.1261675,48.0805295 L54,51.3719457 L54,3.29141619 Z M42,23.2914162 L49.1261675,20 L49.1261675,53.8634672 L42,57.1548834 L42,23.2914162 Z M31,39.2914162 L38.1261675,36 L38.1261675,59.0708366 L31,62.3622527 L31,39.2914162 Z" id="Combined-Shape" fill="url(#linearGradient-8)"></path>
                    <g id="Group-49" transform="translate(0.000000, 46.000000)">
                        <path d="M10.988979,3 C4.64409524,5.2689492 -0.270657429,12.3226747 0.0115716713,18.7549368 C0.293800772,25.1871989 5.66613723,28.5622308 12.011021,26.2932816 C18.3559048,24.0243324 23.2706574,16.970607 22.9884283,10.5383449 L12.011021,15.8216737 L10.988979,3 Z" id="Oval-4-Copy-7" fill="url(#linearGradient-9)"></path>
                        <path d="M12,0.326891391 L13.0254859,14 L24,8.04469314 C23.266681,4.91394765 21.8605658,2.68004885 19.7816546,1.34299676 C17.7027433,0.00594466968 15.1088584,-0.33275712 12,0.326891391 Z" id="Path-41" fill="#48D88A"></path>
                    </g>
                </g>
                <polygon id="Rectangle-11" fill="url(#linearGradient-10)" fill-rule="nonzero" points="58 64 132 100.319619 132 142 58 105.680381"></polygon>
                <path d="M55,105 L132,143" id="Path-17" stroke="#3BADFB" stroke-width="2" stroke-linecap="round" stroke-linejoin="round" fill-rule="nonzero"></path>
            </g>
        </g>
    </g>
</svg>