<?xml version="1.0" encoding="UTF-8"?>
<svg width="244px" height="426px" viewBox="0 0 244 426" version="1.1" xmlns="http://www.w3.org/2000/svg" xmlns:xlink="http://www.w3.org/1999/xlink">
    <!-- Generator: Sketch 51.2 (57519) - http://www.bohemiancoding.com/sketch -->
    <title>group</title>
    <desc>Created with Sketch.</desc>
    <defs>
        <linearGradient x1="203.936924%" y1="41.6551548%" x2="-24.212446%" y2="52.0644882%" id="linearGradient-1">
            <stop stop-color="#FFFFFF" stop-opacity="0" offset="0%"></stop>
            <stop stop-color="#E6F4FF" offset="100%"></stop>
        </linearGradient>
        <linearGradient x1="5.65804329%" y1="45.7389957%" x2="53.9407318%" y2="45.7389957%" id="linearGradient-2">
            <stop stop-color="#A9DCFF" offset="0%"></stop>
            <stop stop-color="#86CCFB" offset="83.4463945%"></stop>
            <stop stop-color="#63BCF8" offset="100%"></stop>
        </linearGradient>
        <linearGradient x1="61.3129882%" y1="43.6800666%" x2="27.3987811%" y2="91.8856599%" id="linearGradient-3">
            <stop stop-color="#63BCF8" stop-opacity="0" offset="0%"></stop>
            <stop stop-color="#63BCF8" offset="100%"></stop>
        </linearGradient>
        <linearGradient x1="0%" y1="92.9202908%" x2="152.394755%" y2="-140.867058%" id="linearGradient-4">
            <stop stop-color="#54A4FF" offset="0%"></stop>
            <stop stop-color="#087CFF" offset="100%"></stop>
        </linearGradient>
        <linearGradient x1="12.7065528%" y1="11.5233558%" x2="1.03720572%" y2="23.7854136%" id="linearGradient-5">
            <stop stop-color="#A9DCFF" offset="0%"></stop>
            <stop stop-color="#86CCFB" offset="89.9724139%"></stop>
            <stop stop-color="#63BCF8" offset="100%"></stop>
        </linearGradient>
    </defs>
    <g id="web" stroke="none" stroke-width="1" fill="none" fill-rule="evenodd">
        <g id="index" transform="translate(-152.000000, -2676.000000)">
            <g id="group" transform="translate(152.000000, 2676.000000)">
                <path d="M139.306116,268 L106,268 L204.303558,324.739107 C208.739221,327.299949 208.739221,333.700051 204.303558,336.260321 L106,393 L139.306116,393 C142.550579,393 145.7378,392.145623 148.547797,390.523852 L239.728763,337.895827 C245.423746,334.608793 245.423746,326.391207 239.728763,323.103601 L148.547797,270.475576 C145.7378,268.853805 142.550579,268 139.306116,268" id="Fill-273" fill="url(#linearGradient-1)"></path>
                <path d="M161.992096,384.500018 C161.880834,382.810377 160.593916,381.054616 158.181465,379.669882 L99.84406,346.189906 C95.2264938,343.540208 88.2428046,343.254949 84.2457238,345.553269 L23.694849,380.370372 C21.7863056,381.467959 20.9064617,382.95584 21.0078507,384.500018 C21.1187331,386.189658 22.4056518,387.945419 24.8184821,389.330154 L83.1562668,422.809751 C87.773833,425.459827 94.7571425,425.745086 98.7542232,423.446767 L159.305098,388.629663 C161.213642,387.532076 162.093865,386.043817 161.992096,384.500018" id="Fill-43-Copy-2" stroke="#BDE4FF"></path>
                <path d="M211.988533,332.000695 L211.999952,331.994434 L211.999952,323.325143 L176.403791,340.566401 L118.544398,307.29902 C111.60159,303.307002 101.101165,302.877863 95.0918685,306.340002 L35.6452221,340.585752 L0.00966441429,323.325143 L0.00966441429,331.349587 C-0.00175467683,331.563588 -0.00460944961,331.778157 0.00966441429,331.994434 C0.176383145,334.539104 2.11134813,337.184512 5.73919338,339.269878 L93.4537999,389.703389 C97.0542393,391.773957 101.61274,392.88323 106.004523,392.991368 C110.080568,393.09097 114.013302,392.329447 116.906329,390.662407 L207.948459,338.214674 C210.815222,336.56357 212.138694,334.323965 211.988533,332.000695" id="Fill-277" fill="#3BADFB"></path>
                <path d="M211.988533,329.000695 L211.999952,328.994434 L211.999952,320.325143 L176.403791,337.566401 L118.544398,304.29902 C111.60159,300.307002 101.101165,299.877863 95.0918685,303.340002 L35.6452221,337.585752 L0.00966441429,320.325143 L0.00966441429,328.349587 C-0.00175467683,328.563588 -0.00460944961,328.778157 0.00966441429,328.994434 C0.176383145,331.539104 2.11134813,334.184512 5.73919338,336.269878 L93.4537999,386.703389 C97.0542393,388.773957 101.61274,389.88323 106.004523,389.991368 C110.080568,390.09097 114.013302,389.329447 116.906329,387.662407 L207.948459,335.214674 C210.815222,333.56357 212.138694,331.323965 211.988533,329.000695" id="Fill-277" fill="url(#linearGradient-2)"></path>
                <path d="M211.988116,321.500027 C211.820829,318.93485 209.885888,316.268121 206.258659,314.165376 L118.545145,263.325414 C111.602424,259.301798 101.10213,258.868626 95.0929077,262.358667 L4.05191199,315.229084 C1.18175918,316.895789 -0.141126044,319.155738 0.0118878712,321.500027 C0.178604525,324.065204 2.11354541,326.731932 5.74134548,328.834678 L93.4548595,379.674066 C100.39758,383.698256 110.896733,384.131427 116.907097,380.641386 L207.948092,327.77097 C210.817674,326.104264 212.14113,323.844315 211.988116,321.500027" id="Fill-279" fill="#FFFFFF"></path>
                <path d="M211.988116,320.499973 C211.820829,317.934796 209.885888,315.268068 206.258659,313.165322 L118.545145,262.325934 C111.602424,258.301744 101.10213,257.868573 95.0929077,261.358614 L4.05191199,314.22903 C1.18175918,315.895736 -0.141126044,318.155685 0.0118878712,320.499973 C0.178604525,323.065724 2.11354541,325.732453 5.74134548,327.834624 L93.4548595,378.674586 C100.39758,382.698202 110.896733,383.131374 116.907097,379.641333 L207.948092,326.770916 C210.817674,325.104211 212.14113,322.844262 211.988116,320.499973" id="Fill-281" fill="#E6F4FF"></path>
                <g id="Group-7" transform="translate(40.000000, 280.000000)" fill="#A9DCFF">
                    <path d="M2.55952938,38.7726702 C3.12789472,39.1016255 3.12789472,39.6348191 2.55952938,39.9637744 C1.99116404,40.2927297 1.07013828,40.2927297 0.501772938,39.9637744 C-0.0671630497,39.6348191 -0.0671630497,39.1016255 0.501772938,38.7726702 C1.07013828,38.4437149 1.99116404,38.4437149 2.55952938,38.7726702" id="Fill-283"></path>
                    <path d="M13.5846186,32.3913378 C14.1529839,32.7202931 14.1529839,33.2534867 13.5846186,33.582442 C13.0162533,33.9113973 12.0952275,33.9113973 11.5268622,33.582442 C10.9579262,33.2534867 10.9579262,32.7202931 11.5268622,32.3913378 C12.0952275,32.0623825 13.0162533,32.0623825 13.5846186,32.3913378" id="Fill-285"></path>
                    <path d="M24.6097078,26.0100054 C25.1775025,26.3389607 25.1775025,26.8721544 24.6097078,27.2011097 C24.0413425,27.530065 23.1197461,27.530065 22.5513807,27.2011097 C21.9830154,26.8721544 21.9830154,26.3389607 22.5513807,26.0100054 C23.1197461,25.6810501 24.0413425,25.6810501 24.6097078,26.0100054" id="Fill-287"></path>
                    <path d="M35.6342264,19.628387 C36.2025918,19.9573423 36.2025918,20.4905359 35.6342264,20.8194912 C35.0664317,21.1484465 34.1448353,21.1484465 33.57647,20.8194912 C33.007534,20.4905359 33.007534,19.9573423 33.57647,19.628387 C34.1448353,19.2994317 35.0658611,19.2994317 35.6342264,19.628387" id="Fill-289"></path>
                    <path d="M13.5846186,45.1542886 C14.1529839,45.4832439 14.1529839,46.0164375 13.5846186,46.3459649 C13.0168239,46.6743481 12.0952275,46.6743481 11.5268622,46.3459649 C10.9584968,46.0164375 10.9584968,45.4832439 11.5268622,45.1542886 C12.0952275,44.8253333 13.0162533,44.8253333 13.5846186,45.1542886" id="Fill-291"></path>
                    <path d="M24.6097078,38.7729562 C25.1780732,39.1019115 25.1780732,39.6351052 24.6097078,39.9640605 C24.0413425,40.2930158 23.1203167,40.2930158 22.5519514,39.9640605 C21.9830154,39.6351052 21.9830154,39.1019115 22.5519514,38.7729562 C23.1203167,38.4440009 24.0413425,38.4440009 24.6097078,38.7729562" id="Fill-293"></path>
                    <path d="M35.6347971,32.3916239 C36.2031624,32.7205792 36.2031624,33.2537728 35.6347971,33.5827281 C35.0664317,33.9116834 34.145406,33.9116834 33.5770406,33.5827281 C33.0081046,33.2537728 33.0081046,32.7205792 33.5770406,32.3916239 C34.145406,32.0626686 35.0664317,32.0626686 35.6347971,32.3916239" id="Fill-295"></path>
                    <path d="M46.6598863,26.0100054 C47.227681,26.3389607 47.2282516,26.8721544 46.6598863,27.2011097 C46.0915209,27.530065 45.1699245,27.530065 44.6021298,27.2011097 C44.0331939,26.8721544 44.0331939,26.3389607 44.6021298,26.0100054 C45.1699245,25.6810501 46.0915209,25.6810501 46.6598863,26.0100054" id="Fill-297"></path>
                    <path d="M24.6102785,51.535907 C25.1780732,51.8648623 25.1780732,52.398056 24.6102785,52.7275834 C24.0419131,53.0559666 23.1208874,53.0559666 22.552522,52.7275834 C21.9835861,52.398056 21.9835861,51.8648623 22.552522,51.535907 C23.1203167,51.2069517 24.0419131,51.2069517 24.6102785,51.535907" id="Fill-299"></path>
                    <path d="M35.6347971,45.1545746 C36.2031624,45.4835299 36.2031624,46.0167236 35.6347971,46.3456789 C35.0670024,46.6746342 34.145406,46.6746342 33.5770406,46.3456789 C33.0086753,46.0167236 33.0086753,45.4835299 33.5770406,45.1545746 C34.145406,44.8256193 35.0670024,44.8256193 35.6347971,45.1545746" id="Fill-301"></path>
                    <path d="M46.6598863,38.7732423 C47.2282516,39.1021976 47.2282516,39.6353912 46.6598863,39.9643465 C46.0920916,40.2933018 45.1704952,40.2933018 44.6021298,39.9643465 C44.0331939,39.6353912 44.0331939,39.1021976 44.6021298,38.7732423 C45.1704952,38.444287 46.0915209,38.444287 46.6598863,38.7732423" id="Fill-303"></path>
                    <path d="M57.6849755,32.3916239 C58.2533409,32.7205792 58.2533409,33.2537728 57.6849755,33.5833002 C57.1166102,33.9116834 56.1955844,33.9116834 55.6272191,33.5833002 C55.0582831,33.2537728 55.0582831,32.7205792 55.6272191,32.3916239 C56.1955844,32.0626686 57.1166102,32.0626686 57.6849755,32.3916239" id="Fill-305"></path>
                    <path d="M35.6353677,57.9174682 C36.203733,58.2464235 36.203733,58.7796172 35.6353677,59.1091446 C35.0670024,59.4375278 34.1459766,59.4375278 33.5776113,59.1091446 C33.0086753,58.7796172 33.0086753,58.2464235 33.5776113,57.9174682 C34.1459766,57.5885129 35.0670024,57.5885129 35.6353677,57.9174682" id="Fill-307"></path>
                    <path d="M46.6604569,51.5361931 C47.2288223,51.8651484 47.2288223,52.398342 46.6604569,52.7272973 C46.0920916,53.0562526 45.1710658,53.0562526 44.6027005,52.7272973 C44.0337645,52.398342 44.0337645,51.8651484 44.6027005,51.5361931 C45.1710658,51.2072378 46.0920916,51.2072378 46.6604569,51.5361931" id="Fill-309"></path>
                    <path d="M57.6855462,45.1548607 C58.2533409,45.483816 58.2533409,46.0170096 57.6855462,46.3459649 C57.1171808,46.6749202 56.1955844,46.6749202 55.6277897,46.3459649 C55.0588537,46.0170096 55.0588537,45.483816 55.6277897,45.1548607 C56.1955844,44.8259054 57.1171808,44.8259054 57.6855462,45.1548607" id="Fill-311"></path>
                    <path d="M68.7100647,38.7732423 C69.2784301,39.1021976 69.2784301,39.6353912 68.7100647,39.9649186 C68.14227,40.2933018 67.2206736,40.2933018 66.6523083,39.9649186 C66.083943,39.6353912 66.083943,39.1021976 66.6523083,38.7732423 C67.2206736,38.444287 68.14227,38.444287 68.7100647,38.7732423" id="Fill-313"></path>
                    <path d="M46.6604569,64.2990867 C47.2288223,64.628042 47.2288223,65.1612356 46.6604569,65.490763 C46.0926622,65.8191462 45.1710658,65.8191462 44.6027005,65.4901909 C44.0343352,65.1612356 44.0343352,64.628042 44.6027005,64.2990867 C45.1710658,63.9701314 46.0926622,63.9701314 46.6604569,64.2990867" id="Fill-315"></path>
                    <path d="M57.6855462,57.9177543 C58.2539115,58.2467096 58.2539115,58.7799032 57.6855462,59.1088585 C57.1171808,59.4378138 56.1961551,59.4378138 55.6277897,59.1088585 C55.0588537,58.7799032 55.0588537,58.2467096 55.6277897,57.9177543 C56.1961551,57.588799 57.1171808,57.588799 57.6855462,57.9177543" id="Fill-317"></path>
                    <path d="M68.7106354,51.5364219 C69.2790007,51.8653772 69.2790007,52.3985708 68.7106354,52.7275261 C68.14227,53.0564814 67.2212443,53.0564814 66.6528789,52.7275261 C66.083943,52.3985708 66.083943,51.8653772 66.6528789,51.5364219 C67.2212443,51.2074666 68.14227,51.2074666 68.7106354,51.5364219" id="Fill-319"></path>
                    <path d="M79.7357246,45.1548607 C80.30409,45.483816 80.30409,46.0170096 79.7357246,46.346537 C79.1673593,46.6749202 78.2463335,46.6749202 77.6779682,46.346537 C77.1090322,46.0170096 77.1090322,45.483816 77.6779682,45.1548607 C78.2457629,44.8259054 79.1673593,44.8259054 79.7357246,45.1548607" id="Fill-321"></path>
                    <path d="M79.7357246,45.1548607 C80.30409,45.483816 80.30409,46.0170096 79.7357246,46.346537 C79.1673593,46.6749202 78.2463335,46.6749202 77.6779682,46.346537 C77.1090322,46.0170096 77.1090322,45.483816 77.6779682,45.1548607 C78.2457629,44.8259054 79.1673593,44.8259054 79.7357246,45.1548607" id="Fill-323"></path>
                    <path d="M46.6593156,13.2470546 C47.227681,13.5760099 47.227681,14.1092036 46.6593156,14.4381589 C46.0909503,14.7671142 45.1699245,14.7671142 44.6015592,14.4381589 C44.0326232,14.1092036 44.0326232,13.5760099 44.6015592,13.2470546 C45.1699245,12.9180993 46.0909503,12.9180993 46.6593156,13.2470546" id="Fill-325"></path>
                    <path d="M57.6844619,6.86543621 C58.2528273,7.19439151 58.2528273,7.72758515 57.6844619,8.05711255 C57.1160966,8.38549575 56.1950708,8.38549575 55.6267055,8.05711255 C55.0577695,7.72758515 55.0577695,7.19439151 55.6267055,6.86543621 C56.1950708,6.53648091 57.1160966,6.53648091 57.6844619,6.86543621" id="Fill-327"></path>
                    <path d="M68.7095512,0.484103838 C69.2773458,0.81305914 69.2773458,1.34625278 68.7095512,1.67520808 C68.1411858,2.00416338 67.2201601,2.00416338 66.6517947,1.67520808 C66.0828587,1.34625278 66.0828587,0.81305914 66.6517947,0.484103838 C67.2195894,0.155148537 68.1411858,0.155148537 68.7095512,0.484103838" id="Fill-329"></path>
                    <path d="M57.6844619,19.6286731 C58.2528273,19.9576284 58.2528273,20.490822 57.6844619,20.8197773 C57.1166672,21.1487326 56.1950708,21.1487326 55.6267055,20.8197773 C55.0583402,20.490822 55.0583402,19.9576284 55.6267055,19.6286731 C56.1950708,19.2997178 57.1166672,19.2997178 57.6844619,19.6286731" id="Fill-331"></path>
                    <path d="M68.7095512,13.2473407 C69.2779165,13.576296 69.2779165,14.1094896 68.7095512,14.4384449 C68.1411858,14.7674002 67.2201601,14.7674002 66.6517947,14.4384449 C66.0828587,14.1094896 66.0828587,13.576296 66.6517947,13.2473407 C67.2201601,12.9183854 68.1411858,12.9183854 68.7095512,13.2473407" id="Fill-333"></path>
                    <path d="M79.7346404,6.86572226 C80.3030057,7.19467756 80.3030057,7.7278712 79.7346404,8.0568265 C79.166275,8.3857818 78.2452493,8.3857818 77.6768839,8.0568265 C77.107948,7.7278712 77.107948,7.19467756 77.6768839,6.86572226 C78.2452493,6.53676696 79.166275,6.53676696 79.7346404,6.86572226" id="Fill-335"></path>
                    <path d="M68.7100647,26.0102915 C69.2784301,26.3392468 69.2784301,26.8724404 68.7100647,27.2013957 C68.1416994,27.530351 67.2206736,27.530351 66.6523083,27.2013957 C66.0833723,26.8724404 66.0833723,26.3392468 66.6523083,26.0102915 C67.2206736,25.6813362 68.1416994,25.6813362 68.7100647,26.0102915" id="Fill-337"></path>
                    <path d="M79.735211,19.6289591 C80.3030057,19.9579144 80.3030057,20.491108 79.735211,20.8200633 C79.1668457,21.1490186 78.2452493,21.1490186 77.6774546,20.8200633 C77.1085186,20.491108 77.1085186,19.9579144 77.6774546,19.6289591 C78.2452493,19.3000038 79.1668457,19.3000038 79.735211,19.6289591" id="Fill-339"></path>
                    <path d="M90.7597296,13.2473407 C91.328095,13.576296 91.328095,14.1094896 90.7597296,14.4384449 C90.1919349,14.7674002 89.2703385,14.7674002 88.7019732,14.4384449 C88.1336078,14.1094896 88.1330372,13.576296 88.7019732,13.2473407 C89.2703385,12.9183854 90.1919349,12.9183854 90.7597296,13.2473407" id="Fill-341"></path>
                    <path d="M79.735211,32.3919099 C80.3035764,32.7208652 80.3035764,33.2540588 79.735211,33.5830141 C79.1668457,33.9119694 78.2458199,33.9119694 77.6774546,33.5830141 C77.1085186,33.2540588 77.1085186,32.7208652 77.6774546,32.3919099 C78.2458199,32.0629546 79.1668457,32.0629546 79.735211,32.3919099" id="Fill-343"></path>
                    <path d="M90.7603003,26.0105775 C91.3286656,26.3395328 91.3286656,26.8727265 90.7603003,27.2016818 C90.1919349,27.5306371 89.2709092,27.5306371 88.7025438,27.2016818 C88.1336078,26.8727265 88.1336078,26.3395328 88.7025438,26.0105775 C89.2709092,25.6816222 90.1919349,25.6816222 90.7603003,26.0105775" id="Fill-345"></path>
                    <path d="M101.785389,19.6289591 C102.353755,19.9579144 102.353755,20.491108 101.785389,20.8206354 C101.217024,21.1490186 100.295998,21.1490186 99.727633,20.8206354 C99.1586971,20.491108 99.1586971,19.9579144 99.727633,19.6289591 C100.295428,19.3000038 101.217024,19.3000038 101.785389,19.6289591" id="Fill-347"></path>
                    <path d="M90.7603003,38.7735283 C91.3286656,39.1024836 91.3286656,39.6356773 90.7608709,39.9646326 C90.1925056,40.2935879 89.2709092,40.2935879 88.7031145,39.9646326 C88.1341785,39.6356773 88.1341785,39.1024836 88.7031145,38.7735283 C89.2709092,38.444573 90.1925056,38.444573 90.7603003,38.7735283" id="Fill-349"></path>
                    <path d="M101.785389,32.3921959 C102.353755,32.7211512 102.353755,33.2543449 101.785389,33.5833002 C101.217595,33.9122555 100.295998,33.9122555 99.727633,33.5833002 C99.1592677,33.2543449 99.1592677,32.7211512 99.727633,32.3921959 C100.295998,32.0632406 101.217024,32.0632406 101.785389,32.3921959" id="Fill-351"></path>
                    <path d="M112.810479,26.0105775 C113.378844,26.3395328 113.378844,26.8727265 112.810479,27.2022539 C112.242113,27.5306371 111.321088,27.5306371 110.752722,27.2022539 C110.183786,26.8727265 110.183786,26.3395328 110.752722,26.0105775 C111.321088,25.6816222 112.242113,25.6816222 112.810479,26.0105775" id="Fill-353"></path>
                    <path d="M57.6861168,70.6807051 C58.2544821,71.0096604 58.2544821,71.542854 57.6861168,71.8723814 C57.1177515,72.2007646 56.1967257,72.2007646 55.6283604,71.8718093 C55.0594244,71.542854 55.0594244,71.0096604 55.6283604,70.6807051 C56.1967257,70.3517498 57.1177515,70.3517498 57.6861168,70.6807051" id="Fill-355"></path>
                    <path d="M68.711206,64.2993727 C69.2790007,64.628328 69.2790007,65.1615216 68.711206,65.4904769 C68.1428407,65.8194322 67.2212443,65.8194322 66.6534496,65.4904769 C66.0845136,65.1615216 66.0845136,64.628328 66.6528789,64.2993727 C67.2212443,63.9704174 68.1428407,63.9704174 68.711206,64.2993727" id="Fill-357"></path>
                    <path d="M79.7357246,57.9177543 C80.30409,58.2467096 80.30409,58.7799032 79.7357246,59.1094306 C79.1679299,59.4378138 78.2463335,59.4378138 77.6779682,59.1094306 C77.1096028,58.7799032 77.1090322,58.2467096 77.6779682,57.9177543 C78.2463335,57.588799 79.1679299,57.588799 79.7357246,57.9177543" id="Fill-359"></path>
                    <path d="M90.7608138,51.5364219 C91.3291792,51.8653772 91.3291792,52.3985708 90.7608138,52.7280982 C90.1924485,53.0564814 89.2714227,53.0564814 88.7030574,52.7275261 C88.1341214,52.3985708 88.1341214,51.8653772 88.7030574,51.5364219 C89.2714227,51.2074666 90.1924485,51.2074666 90.7608138,51.5364219" id="Fill-361"></path>
                    <path d="M68.711206,77.0623235 C69.2795714,77.3912788 69.2795714,77.9244724 68.711206,78.2539998 C68.1428407,78.582383 67.2218149,78.582383 66.6534496,78.2534277 C66.0845136,77.9244724 66.0845136,77.3912788 66.6534496,77.0623235 C67.2218149,76.7333682 68.1428407,76.7333682 68.711206,77.0623235" id="Fill-363"></path>
                    <path d="M79.7362953,70.6809911 C80.3046606,71.0099464 80.3046606,71.5431401 79.7362953,71.8720954 C79.1679299,72.2010507 78.2469042,72.2010507 77.6785388,71.8720954 C77.1096028,71.5431401 77.1096028,71.0099464 77.6785388,70.6809911 C78.2469042,70.3520358 79.1679299,70.3520358 79.7362953,70.6809911" id="Fill-365"></path>
                    <path d="M90.7613845,64.2996588 C91.3297498,64.6286141 91.3297498,65.1618077 90.7613845,65.490763 C90.1930192,65.8197183 89.2719934,65.8197183 88.7036281,65.490763 C88.1346921,65.1618077 88.1346921,64.6286141 88.7036281,64.2996588 C89.2714227,63.9707034 90.1930192,63.9707034 90.7613845,64.2996588" id="Fill-367"></path>
                    <path d="M101.78596,57.9180403 C102.354325,58.2469956 102.354325,58.7801893 101.78596,59.1097167 C101.218165,59.4380999 100.296569,59.4380999 99.7282037,59.1091446 C99.1598384,58.7801893 99.1598384,58.2469956 99.7282037,57.9180403 C100.296569,57.589085 101.218165,57.589085 101.78596,57.9180403" id="Fill-369"></path>
                    <path d="M101.78596,45.1550895 C102.354325,45.4840448 102.354325,46.0172385 101.78596,46.3461938 C101.217595,46.6751491 100.296569,46.6751491 99.7282037,46.3461938 C99.1592677,46.0172385 99.1592677,45.4840448 99.7282037,45.1550895 C100.296569,44.8261342 101.217595,44.8261342 101.78596,45.1550895" id="Fill-371"></path>
                    <path d="M112.811049,38.7737572 C113.378844,39.1027125 113.378844,39.6359061 112.811049,39.9648614 C112.242684,40.2938167 111.321658,40.2938167 110.753293,39.9648614 C110.184357,39.6359061 110.184357,39.1027125 110.753293,38.7737572 C111.321088,38.4448019 112.242684,38.4448019 112.811049,38.7737572" id="Fill-373"></path>
                    <path d="M123.835568,32.3921959 C124.403933,32.7211512 124.403933,33.2543449 123.835568,33.5838723 C123.267773,33.9122555 122.346177,33.9122555 121.777812,33.5838723 C121.209446,33.2543449 121.209446,32.7211512 121.777812,32.3921959 C122.346177,32.0632406 123.267773,32.0632406 123.835568,32.3921959" id="Fill-375"></path>
                    <path d="M112.811049,51.536708 C113.379415,51.8656633 113.379415,52.3988569 112.811049,52.7278122 C112.242684,53.0567675 111.321658,53.0567675 110.753293,52.7278122 C110.184357,52.3988569 110.184357,51.8656633 110.753293,51.536708 C111.321658,51.2077527 112.242684,51.2077527 112.811049,51.536708" id="Fill-377"></path>
                    <path d="M123.836139,45.1550895 C124.404504,45.4840448 124.404504,46.0172385 123.836139,46.3467659 C123.267773,46.6751491 122.346747,46.6751491 121.778382,46.3467659 C121.209446,46.0172385 121.209446,45.4840448 121.778382,45.1550895 C122.346747,44.8261342 123.267773,44.8261342 123.836139,45.1550895" id="Fill-379"></path>
                    <path d="M134.861228,38.7737572 C135.429593,39.1027125 135.429593,39.6359061 134.861228,39.9654335 C134.292862,40.2938167 133.371837,40.2938167 132.803471,39.9648614 C132.234535,39.6359061 132.234535,39.1027125 132.803471,38.7737572 C133.371837,38.4448019 134.292862,38.4448019 134.861228,38.7737572" id="Fill-381"></path>
                </g>
                <polygon id="Rectangle-11" fill="url(#linearGradient-3)" fill-rule="nonzero" transform="translate(76.793720, 275.566258) scale(-1, 1) translate(-76.793720, -275.566258) " points="21.3557955 215.835762 132.231644 279.33349 132.231644 335.296754 21.3557955 271.799025"></polygon>
                <path d="M22.1710079,272.22807 L132.436806,335.51271" id="Path-17" stroke="#3BADFB" stroke-width="2" stroke-linecap="round" stroke-linejoin="round" fill-rule="nonzero" transform="translate(77.303907, 303.870390) scale(-1, 1) translate(-77.303907, -303.870390) "></path>
                <polygon id="Fill-31" fill="#92D2FD" fill-rule="nonzero" points="98.0212327 307.954966 98.0212327 329.092265 116.519244 339.718265 116.519244 318.581862"></polygon>
                <polygon id="Fill-33" fill="url(#linearGradient-4)" points="135.017796 307.954966 135.017796 329.092265 116.518884 339.718265 116.518884 318.581862"></polygon>
                <polygon id="Fill-35" fill="#F5FBFF" points="98.0212327 307.954966 116.519244 297.32807 135.018157 307.954966 116.519244 318.581862"></polygon>
                <path d="M18.215993,61.2416563 L122.324236,1.45417998 C124.144329,0.408933603 126.378298,0.390746981 128.215167,1.40622222 L133.844717,4.51840274 L128.782937,214.197466 L24.5483672,280.233926 L18.6909688,277.532215 C16.5653583,276.551782 15.2040113,274.424682 15.2040113,272.083856 L15.2040113,66.444708 C15.2040113,64.2961741 16.3528375,62.3116327 18.215993,61.2416563 Z" id="Rectangle-5" fill="url(#linearGradient-5)"></path>
                <path d="M24.2292852,64.5511997 L129.498769,4.45368464 C131.417282,3.35842075 133.860431,4.02579602 134.955695,5.94430902 C135.300544,6.54836308 135.481919,7.23190051 135.481919,7.92745972 L135.481919,214.417455 C135.481919,216.571464 134.327281,218.560186 132.456645,219.628117 L27.187162,279.725633 C25.268649,280.820896 22.8255001,280.153521 21.7302362,278.235008 C21.3853865,277.630954 21.2040113,276.947417 21.2040113,276.251857 L21.2040113,69.7618623 C21.2040113,67.6078536 22.3586498,65.6191307 24.2292852,64.5511997 Z" id="Rectangle-5" fill="#E6F4FF" fill-rule="nonzero"></path>
                <g id="消息1" transform="translate(25.000000, 36.000000)" fill-rule="nonzero">
                    <path d="M5.45525215,42.4463435 L79.8350919,0.679822878 C80.7982065,0.139004997 82.0173847,0.481344157 82.5582026,1.44445879 C82.7261292,1.74351056 82.8143293,2.08072199 82.8143293,2.42369619 L82.8143293,32.8226405 C82.8143293,34.2687887 82.0337537,35.6023259 80.7728041,36.3103871 L6.39296434,78.0769078 C5.4298497,78.6177256 4.21067151,78.2753865 3.66985363,77.3122718 C3.50192705,77.0132201 3.41372694,76.6760086 3.41372694,76.3330344 L3.41372694,58.5723147 L0.78855971,56.7401226 C0.348148653,56.432745 0.229182769,55.8323751 0.519100954,55.3802796 L3.41372694,50.866429 L3.41372694,45.9340901 C3.41372694,44.4879419 4.19430252,43.1544047 5.45525215,42.4463435 Z" id="Rectangle-5" fill="#FFFFFF"></path>
                    <path d="M13.1447917,47.6996916 L73.6695376,12.1959828 C74.3479851,11.7980067 75.2205989,12.0253737 75.618575,12.7038213 C75.7467552,12.9223356 75.8143293,13.1710857 75.8143293,13.4244208 L75.8143293,13.4244208 C75.8143293,14.9647529 74.9981522,16.3897577 73.6695376,17.1691207 L13.1447917,52.6728295 C12.4663442,53.0708056 11.5937304,52.8434386 11.1957543,52.1649911 C11.0675741,51.9464767 11,51.6977267 11,51.4443916 L11,51.4443916 C11,49.9040594 11.8161771,48.4790546 13.1447917,47.6996916 Z" id="Rectangle-23" fill="#A9DCFF" opacity="0.800000012"></path>
                    <path d="M13.1539947,60.7155135 L53.3108612,37.5551762 C53.9980469,37.1588442 54.8764115,37.3946277 55.2727436,38.0818134 C55.3986024,38.3000355 55.4648558,38.5475206 55.4648558,38.799436 L55.4648558,38.799436 C55.4648558,40.3380224 54.6436643,41.7596244 53.3108612,42.5283141 L13.1539947,65.6886513 C12.466809,66.0849834 11.5884443,65.8491999 11.1921123,65.1620142 C11.0662534,64.9437921 11,64.696307 11,64.4443916 L11,64.4443916 C11,62.9058052 11.8211915,61.4842032 13.1539947,60.7155135 Z" id="Rectangle-23-Copy" fill="#A9DCFF" opacity="0.800000012"></path>
                </g>
                <g id="消息3" transform="translate(25.000000, 125.000000)" fill-rule="nonzero">
                    <path d="M5.4960658,49.4551661 L94.1051355,1.04915491 C95.0744926,0.519607412 96.2895949,0.876143551 96.8191424,1.84550067 C96.9797813,2.13955629 97.0639661,2.46925879 97.0639661,2.80433124 L97.0639661,17.4672646 C97.0639661,18.9301216 96.2654132,20.2763012 94.9816272,20.9776172 L6.37255751,69.3836284 C5.4032004,69.9131759 4.18809812,69.5566397 3.65855062,68.5872826 C3.49791176,68.293227 3.41372694,67.9635245 3.41372694,67.6284521 L3.41372694,65.5723147 L0.78855971,63.7401226 C0.348148653,63.432745 0.229182769,62.8323751 0.519100954,62.3802796 L3.41372694,57.866429 L3.41372694,52.9655187 C3.41372694,51.5026617 4.2122798,50.1564821 5.4960658,49.4551661 Z" id="Rectangle-5" fill="#FFFFFF"></path>
                    <path d="M13.1658196,53.8052851 L87.8981465,11.6543604 C88.5967822,11.2603121 89.4825776,11.5072291 89.8766258,12.2058648 C89.9994378,12.4236069 90.0639661,12.6693634 90.0639661,12.9193522 L90.0639661,12.9193522 C90.0639661,14.4556402 89.2362645,15.8727658 87.8981465,16.6274982 L13.1658196,58.7784229 C12.4671839,59.1724711 11.5813885,58.9255542 11.1873403,58.2269185 C11.0645282,58.0091764 11,57.7634199 11,57.5134311 L11,57.5134311 C11,55.9771431 11.8277016,54.5600175 13.1658196,53.8052851 Z" id="Rectangle-23" fill="#A9DCFF" opacity="0.800000012"></path>
                </g>
                <g id="消息5" transform="translate(25.000000, 200.000000)" fill-rule="nonzero">
                    <path d="M5.44095601,42.081739 L77.9609617,0.755364125 C78.9206437,0.208478114 80.1419583,0.543115352 80.6888443,1.50279732 C80.8607733,1.80450035 80.9511864,2.14576953 80.9511864,2.49302203 L80.9511864,17.1341769 C80.9511864,18.5712945 80.1802453,19.897958 78.9316358,20.6094927 L6.41163016,61.9358676 C5.4519482,62.4827536 4.23063354,62.1481163 3.68374753,61.1884344 C3.51181853,60.8867313 3.42140544,60.5454622 3.42140544,60.1982096 L3.42140544,58.2121968 L0.79623821,56.3800048 C0.355827153,56.0726272 0.236861268,55.4722573 0.526779453,55.0201618 L3.42140544,50.5063112 L3.42140544,45.5570548 C3.42140544,44.1199372 4.19234659,42.7932737 5.44095601,42.081739 Z" id="Rectangle-5" fill="#FFFFFF"></path>
                    <path d="M13.1421452,46.391175 L71.8167197,11.3269188 C72.4855364,10.9272303 73.351731,11.1454016 73.7514196,11.8142183 C73.8821529,12.0329801 73.9511864,12.2830696 73.9511864,12.5379185 L73.9511864,12.5379185 C73.9511864,14.0801666 73.140583,15.5089086 71.8167197,16.3000567 L13.1421452,51.3643128 C12.4733285,51.7640014 11.6071339,51.54583 11.2074454,50.8770134 C11.0767121,50.6582516 11.0076785,50.4081621 11.0076785,50.1533132 L11.0076785,50.1533132 C11.0076785,48.6110651 11.8182819,47.1823231 13.1421452,46.391175 Z" id="Rectangle-23" fill="#A9DCFF" opacity="0.800000012"></path>
                </g>
                <g id="消息2" transform="translate(54.000000, 77.000000)">
                    <path d="M4.67688427,37.6757328 L73.692952,0.583730807 C74.6659081,0.0608252054 75.8785436,0.425663194 76.4014492,1.39861926 C76.5578812,1.68968794 76.6397564,2.01498158 76.6397564,2.34542361 L76.6397564,31.8774124 C76.6397564,32.9819123 76.0328577,33.997079 75.0599629,34.5199516 L6.04389514,71.6119536 C5.07093907,72.1348592 3.85830359,71.7700212 3.33539799,70.7970651 C3.17896601,70.5059965 3.09709079,70.1807028 3.09709079,69.8502608 L3.09709079,67.6936671 L0.427419244,65.8287199 C-0.0125940597,65.5213407 -0.131468627,64.9214101 0.158087435,64.4694687 L3.09709079,59.8822496 L3.09709079,40.318272 C3.09709079,39.2137721 3.70398952,38.1986055 4.67688427,37.6757328 Z" id="Rectangle-5-Copy-7" fill="#90F0BC" transform="translate(38.319878, 36.097842) scale(-1, -1) translate(-38.319878, -36.097842) "></path>
                    <path d="M10.1034552,41.44307 L64.7260557,11.1777775 C65.4104901,10.7985461 66.2727616,11.045962 66.651993,11.7303964 C66.7684244,11.9405309 66.829511,12.1768207 66.829511,12.4170556 L66.829511,12.4170556 C66.829511,13.9010278 66.0240931,15.2680822 64.7260557,15.9872987 L10.1034552,46.2525912 C9.41902088,46.6318226 8.55674939,46.3844067 8.17751798,45.6999724 C8.06108661,45.4898378 8,45.253548 8,45.0133131 L8,45.0133131 C8,43.5293409 8.8054179,42.1622865 10.1034552,41.44307 Z" id="Rectangle-23-Copy-3" fill="#FFFFFF" fill-rule="nonzero" opacity="0.800000012"></path>
                    <path d="M10.0975681,55.4325076 L57.9827553,28.5846877 C58.6613563,28.204216 59.5199042,28.4458976 59.9003759,29.1244985 C60.0183616,29.3349353 60.0803234,29.5721478 60.0803234,29.8134034 L60.0803234,29.8134034 C60.0803234,31.2985531 59.2781868,32.6678985 57.9827553,33.3942089 L10.0975681,60.2420288 C9.41896716,60.6225005 8.5604192,60.3808189 8.17994756,59.702218 C8.06196185,59.4917812 8,59.2545687 8,59.0133131 L8,59.0133131 C8,57.5281635 8.80213662,56.158818 10.0975681,55.4325076 Z" id="Rectangle-23-Copy-4" fill="#FFFFFF" fill-rule="nonzero" opacity="0.800000012"></path>
                </g>
                <g id="消息4" transform="translate(68.000000, 156.000000)">
                    <path d="M5.2072501,30.3552113 L59.6813834,0.615120337 C60.6508786,0.0858255705 61.8658879,0.442678483 62.3951826,1.41217362 C62.5556602,1.70611615 62.6397564,2.03565067 62.6397564,2.37054658 L62.6397564,17.906629 C62.6397564,19.0040521 62.0405385,20.013898 61.0773158,20.5397683 L6.60318248,50.2798593 C5.63368734,50.809154 4.41867805,50.4523011 3.88938329,49.482806 C3.7289057,49.1888634 3.64480953,48.8593289 3.64480953,48.524433 L3.64480953,46.3929623 L0.975137983,44.5280151 C0.535124679,44.2206359 0.416250112,43.6207053 0.705806174,43.1687639 L3.64480953,38.5815447 L3.64480953,32.9883506 C3.64480953,31.8909275 4.24402746,30.8810816 5.2072501,30.3552113 Z" id="Rectangle-5-Copy-7" fill="#90F0BC" transform="translate(31.593738, 25.447490) scale(-1, -1) translate(-31.593738, -25.447490) "></path>
                    <path d="M10.6361266,33.8932227 L50.7411031,10.9979898 C51.4107621,10.6156931 52.2635407,10.8486463 52.6458373,11.5183053 C52.7662038,11.7291481 52.829511,11.9677334 52.829511,12.2105147 L52.829511,12.2105147 C52.829511,13.6974629 52.0324392,15.0703097 50.7411031,15.807511 L10.6361266,38.7027439 C9.96646764,39.0850406 9.11368907,38.8520873 8.7313924,38.1824283 C8.61102593,37.9715856 8.54771874,37.7330003 8.54771874,37.490219 L8.54771874,37.490219 C8.54771874,36.0032708 9.3447905,34.630424 10.6361266,33.8932227 Z" id="Rectangle-23-Copy-3" fill="#FFFFFF" fill-rule="nonzero" opacity="0.800000012"></path>
                </g>
            </g>
        </g>
    </g>
</svg>