<?xml version="1.0" encoding="UTF-8"?>
<svg width="127px" height="37px" viewBox="0 0 127 37" version="1.1" xmlns="http://www.w3.org/2000/svg" xmlns:xlink="http://www.w3.org/1999/xlink">
    <!-- Generator: Sketch 51.2 (57519) - http://www.bohemiancoding.com/sketch -->
    <title>logo</title>
    <desc>Created with Sketch.</desc>
    <defs>
        <path d="M47.4026667,0.489898734 C47.7444741,0.343303797 48.1080889,0.265556962 48.4698074,0.265556962 C48.8182519,0.265556962 49.1652741,0.337683544 49.4895407,0.489898734 L62.1847704,6.48062025 C63.2215704,6.96724051 63.8416593,8.09035443 63.7231407,9.26732911 L62.1909333,24.4340506 C62.0757333,25.5740253 61.2920889,26.5186962 60.2254222,26.8039241 L24.6513778,36.4435949 C22.8717037,36.9189747 21.1821037,35.4015063 21.3741037,33.5004557 C21.4831407,32.426519 22.1866667,31.5188481 23.1722667,31.1811646 L54.2573037,20.3720127 C54.9840593,20.1237848 55.5031704,19.454038 55.5832889,18.662519 L56.0867556,13.6745443 C56.1739852,12.8071519 55.7169778,11.9791013 54.9527704,11.6203418 L48.6670222,8.67111392 C48.0052148,8.36106329 47.2504889,8.34794937 46.5792,8.63551899 L33.8081185,14.325557 C33.0249481,14.6608987 32.1431704,14.6459114 31.3709037,14.2838734 L19.4066963,8.67111392 C18.745837,8.36106329 17.990637,8.34794937 17.3198222,8.63551899 L10.2428444,11.6681139 C9.44782222,12.0090759 8.896,12.7757722 8.8064,13.6651772 L7.70844444,24.5333418 C7.61362963,25.4714557 8.04835556,26.3824051 8.82441481,26.8708987 L14.6100148,30.3329747 C16.3446519,31.3886456 16.0744296,33.5683671 16.0744296,33.5683671 C15.7800296,35.3462405 13.8590815,36.2506329 12.3406222,35.8155316 L1.78583704,32.3946709 C0.714903704,32.0148354 0.00663703704,30.9727468 0,29.8173165 L0,29.7789114 C0.000474074074,29.6903924 0.00568888889,29.6009367 0.0146962963,29.511481 L2.09398519,8.9221519 C2.19543704,7.91987342 2.81694815,7.0566962 3.71247407,6.67264557 L18.1423407,0.489898734 C18.8131556,0.202329114 19.5683556,0.179379747 20.2296889,0.489898734 L32.3678815,6.21927848 C33.0287407,6.52979747 33.7839407,6.54244304 34.4547556,6.25534177 L47.4026667,0.489898734 Z" id="path-1"></path>
    </defs>
    <g id="web" stroke="none" stroke-width="1" fill="none" fill-rule="evenodd">
        <g id="index" transform="translate(-161.000000, -1846.000000)">
            <g id="Group-9" transform="translate(160.000000, 1845.000000)">
                <g id="logo" transform="translate(1.000000, 1.000000)">
                    <g id="Group-3">
                        <mask id="mask-2" fill="white">
                            <use xlink:href="#path-1"></use>
                        </mask>
                        <use id="Clip-2" fill="#FFFFFF" xlink:href="#path-1"></use>
                    </g>
                    <polygon id="Fill-4" fill="#FFFFFF" points="73.4738362 25 74.4592806 25 73.1711777 31.1175806 76 31.1175806 75.8248526 32 72 32"></polygon>
                    <polygon id="Fill-6" fill="#FFFFFF" points="78.1951267 25 79 25 77.8048733 32 77 32"></polygon>
                    <polygon id="Fill-8" fill="#FFFFFF" points="81.1297245 31.1175806 84.8633088 25.8824194 82.0794363 25.8824194 82.2251762 25 86 25 85.8702755 25.8928067 82.1362908 31.1175806 85.066704 31.1175806 84.928171 32 81 32"></polygon>
                    <path d="M92.8980693,31.8158901 C92.555771,31.9387895 92.1911306,32 91.8037265,32 C91.3990389,32 91.0276537,31.9387895 90.6883062,31.8158901 C90.3493803,31.6934691 90.0530309,31.5040989 89.7992581,31.2487362 C89.5459068,30.9933734 89.3494646,30.6701052 89.2095102,30.2794098 C89.0703988,29.8882361 89,29.4305916 89,28.9069545 C89,28.4679601 89.0687126,28.020358 89.2052947,27.5641481 C89.3418767,27.1088947 89.5572886,26.6866375 89.8506871,26.2988113 C90.1445072,25.9109851 90.5201079,25.5977593 90.9791754,25.3586556 C91.4373999,25.1195519 91.9719248,25 92.5819071,25 C93.0772279,25 93.5506281,25.1032928 94,25.3098784 L93.7525504,26.1438721 C93.3537644,25.9497199 92.9688896,25.853122 92.5983475,25.853122 C92.1599359,25.853122 91.7708456,25.9372865 91.4319197,26.1051373 C91.0934154,26.2734663 90.8109772,26.5025277 90.5862912,26.793756 C90.3603406,27.0840279 90.1912992,27.4154256 90.0774808,27.787471 C89.9632409,28.1595163 89.9063317,28.5482989 89.9063317,28.9557317 C89.9063317,29.673521 90.0930782,30.217721 90.465728,30.5892882 C90.839221,30.9608553 91.3307478,31.146878 91.9407301,31.146878 C92.3226541,31.146878 92.678442,31.0694084 93.0089369,30.9144692 L92.8980693,31.8158901 Z" id="Fill-10" fill="#FFFFFF"></path>
                    <polygon id="Fill-12" fill="#FFFFFF" points="98.473355 25 99.4587995 25 98.1711777 31.1175806 101 31.1175806 100.824853 32 97 32"></polygon>
                    <path d="M103.60338,30.6136767 C103.940478,30.969463 104.43006,31.146878 105.071106,31.146878 C105.49898,31.146878 105.887586,31.0498019 106.239983,30.8561279 C106.590849,30.6619757 106.892758,30.4037437 107.144179,30.0804755 C107.39611,29.7572073 107.585823,29.4033338 107.713318,29.018855 C107.840813,28.6343763 107.904561,28.2542014 107.904561,27.8792868 C107.904561,27.220317 107.747997,26.717721 107.434358,26.3714988 C107.12021,26.0262331 106.656637,25.853122 106.04313,25.853122 C105.615766,25.853122 105.21951,25.9420686 104.853854,26.1199617 C104.488708,26.2978549 104.175069,26.5412625 103.912939,26.8516191 C103.651319,27.1619757 103.449366,27.5158492 103.308101,27.9132395 C103.167347,28.3111081 103.096459,28.7266703 103.096459,29.1589698 C103.096459,29.7734663 103.265263,30.2583686 103.60338,30.6136767 M102.26927,27.6612242 C102.447763,27.1734527 102.713973,26.7277634 103.06484,26.3231999 C103.417237,25.9195928 103.847661,25.5977593 104.357642,25.3586556 C104.867623,25.1195519 105.440332,25 106.074239,25 C106.991185,25 107.707708,25.2424512 108.225339,25.7268753 C108.74195,26.2117776 109,26.8841372 109,27.7439541 C109,28.2867195 108.914323,28.8137041 108.74195,29.3239514 C108.569066,29.8346769 108.315605,30.2923214 107.982078,30.6959284 C107.64753,31.1004919 107.230366,31.4184998 106.731094,31.6509086 C106.230803,31.8837956 105.663704,32 105.030307,32 C104.037374,32 103.284132,31.7561142 102.770581,31.2683427 C102.25703,30.7800929 102,30.0675639 102,29.1302774 C102,28.6391584 102.089247,28.149474 102.26927,27.6612242" id="Fill-14" fill="#FFFFFF"></path>
                    <path d="M118.018978,29.0421645 C117.764041,30.0739789 117.366577,30.8252292 116.824971,31.294943 C116.282828,31.7651431 115.568575,32 114.682213,32 C114.187399,32 113.764656,31.930953 113.411833,31.7928591 C113.059009,31.6547652 112.779332,31.4772854 112.571725,31.2604196 C112.365194,31.0435538 112.217288,30.8184218 112.130158,30.5850236 C112.043027,30.3516255 112,30.1298972 112,29.9193526 C112,29.7355515 112.017749,29.5415393 112.053784,29.3378022 C112.090357,29.134065 112.145217,28.8778133 112.217288,28.5685607 C112.232347,28.5165324 112.246869,28.4542929 112.261391,28.3813559 L113.068152,25 L114.158356,25 L113.177334,29.1505974 C113.119247,29.4136566 113.090204,29.6173937 113.090204,29.7618088 C113.090204,30.1955404 113.242413,30.532509 113.547906,30.7722284 C113.8534,31.012434 114.253016,31.1320506 114.747292,31.1320506 C115.133461,31.1320506 115.459931,31.0532787 115.728851,30.8957349 C115.997772,30.7377049 116.217749,30.532509 116.388782,30.2791748 C116.559278,30.0263268 116.694276,29.7554876 116.792163,29.4661712 C116.89005,29.1768547 116.983096,28.851556 117.070227,28.4897888 L117.909796,25 L119,25 L118.018978,29.0421645 Z" id="Fill-16" fill="#FFFFFF"></path>
                    <path d="M120.286329,31.1175806 L121.422508,31.1175806 C121.943807,31.1175806 122.419637,31.0404183 122.847885,30.8870831 C123.276662,30.7332533 123.641465,30.5156162 123.941239,30.2346665 C124.241541,29.9537168 124.470468,29.6183578 124.627492,29.2271057 C124.784517,28.8358536 124.863293,28.406515 124.863293,27.9381006 C124.863293,27.6245054 124.818353,27.3435557 124.729532,27.0962408 C124.639653,26.8489259 124.491616,26.6332674 124.284366,26.4492651 C124.077115,26.2652629 123.793202,26.124788 123.4321,26.0278406 C123.071526,25.9308932 122.626888,25.8824194 122.097659,25.8824194 L121.475906,25.8824194 L120.286329,31.1175806 Z M120.586103,25 L122.237236,25 C122.880136,25 123.441616,25.0717213 123.920091,25.2156586 C124.398565,25.3591012 124.791918,25.5599209 125.099094,25.817623 C125.406798,26.0748304 125.63361,26.3721029 125.78006,26.709935 C125.926511,27.0472725 126,27.4202233 126,27.8282928 C126,28.4564726 125.897961,29.0248021 125.694411,29.5327869 C125.490861,30.0412663 125.186858,30.4804975 124.782931,30.8514698 C124.379532,31.2229367 123.878852,31.5068542 123.281949,31.7042114 C122.685574,31.9010741 122.001435,32 121.229532,32 L119,32 L120.586103,25 Z" id="Fill-18" fill="#FFFFFF"></path>
                    <path d="M84.6759973,11.0848197 L84.8826137,9.68059566 L87.3639059,9.70641527 C87.4984909,9.70732122 87.6060641,9.78115622 87.6444493,9.89757092 L87.7662392,10.2739935 C87.7956204,10.3627767 87.7795081,10.4656022 87.7221674,10.5557443 L87.4984909,10.9095181 C87.4207728,11.0318215 87.280975,11.1101863 87.1411772,11.1101863 L87.1373861,11.1101863 L84.6759973,11.0848197 Z M79.8598451,11.0843667 L80.0659876,9.68014269 L83.0273312,9.68014269 L82.8211887,11.0843667 L79.8598451,11.0843667 Z M80.3095675,7.82158428 L80.4469958,6.88754884 L83.4078655,6.88754884 L83.2704372,7.82158428 L80.3095675,7.82158428 Z M75.1451055,10.3097786 L75.3460352,9.93290301 C75.4175927,9.79882226 75.5649728,9.70732122 75.7137745,9.70596229 L78.211179,9.68059566 L78.0050365,11.0848197 L75.4929414,11.1101863 L75.4882025,11.1101863 C75.3446136,11.1101863 75.2304059,11.0277447 75.1991291,10.8995527 L75.1105115,10.5471378 C75.0915559,10.4710379 75.1043509,10.3867844 75.1451055,10.3097786 Z M90.1333238,5 L74.2598775,5 C73.7201159,5 73.2192133,5.41990827 73.1429169,5.93584735 C73.1054795,6.19087254 73.1751415,6.43094955 73.3395816,6.61168677 C73.5016522,6.78970613 73.7362282,6.88754884 73.9997115,6.88754884 L78.5921872,6.88754884 L78.4547589,7.82158428 L74.9612359,7.82158428 C74.5584287,7.82158428 74.1741033,8.06845592 74.0068198,8.43219523 L73.1609248,9.9292792 C73.0154403,10.247268 72.9666295,10.5829228 73.0225486,10.9086122 L73.5239251,12.3730819 C73.5860048,12.742257 73.9101461,13 74.3134272,13 L88.0690554,13 C88.4661759,13 88.8481319,12.7576581 89.0201543,12.3966367 L89.7172476,10.9330729 C89.8736316,10.6042127 89.9252857,10.2554216 89.8636799,9.91568994 L89.3376611,8.44125474 C89.2708425,8.0707208 88.9538096,7.82158428 88.5486329,7.82158428 L85.1252458,7.82158428 L85.2626741,6.88754884 L89.8731577,6.88754884 C90.4129193,6.88754884 90.9142958,6.46809354 90.9901183,5.95215446 C91.0275557,5.69667629 90.9578937,5.45750524 90.7934536,5.27676802 C90.631383,5.09829568 90.3972809,5 90.1333238,5 Z" id="Fill-20" fill="#FFFFFF"></path>
                    <path d="M88.1751438,15.0954364 L81.5227722,15.0954364 L81.5444147,14.9237522 C81.575075,14.6755951 81.5227722,14.4552923 81.3924662,14.2866468 C81.2495353,14.1017951 81.0276994,14 80.7693418,14 C80.2625459,14 79.84728,14.3808452 79.7823524,14.9055202 L79.7580045,15.0954364 L73.0718166,15.0954364 C72.5578066,15.0954364 72.0821219,15.5644027 72.0095292,16.1407349 C71.9734583,16.4258624 72.0406404,16.6942772 72.1966469,16.896348 C72.350399,17.0958866 72.5735876,17.2057847 72.824731,17.2057847 L74.3902071,17.2057847 L72.6642156,21.0041078 C72.5614136,21.2497327 72.556003,21.5313151 72.6497873,21.7749142 C72.7404154,22.0099038 72.908145,22.1836138 73.1236684,22.2636318 C73.2111403,22.2965506 73.3017684,22.3117439 73.3923965,22.3117439 C73.7688863,22.3117439 74.1507867,22.047887 74.3225742,21.6356423 L76.3357801,17.2057847 L79.4942363,17.2057847 L78.894107,21.9997749 C78.8607415,22.2681897 78.9229637,22.519892 79.0699526,22.7098081 C79.2151378,22.8966856 79.4243489,23 79.6597114,23 C80.1421594,23 80.5889874,22.5593945 80.6570712,22.0185133 L81.2590039,17.2057847 L84.370568,17.2057847 L85.2123721,21.5966462 C85.2457376,21.8128974 85.3688295,22.0038265 85.5595543,22.1355017 C85.7124046,22.2413483 85.8918572,22.2965506 86.0681536,22.2965506 C86.1583308,22.2965506 86.248508,22.2818637 86.3337255,22.25249 C86.8242894,22.0848574 87.0109562,21.4933318 86.9374618,21.0198076 L86.2065756,17.2057847 L87.9276074,17.2057847 C88.4411665,17.2057847 88.9177529,16.736312 88.9907965,16.1594733 C89.0259656,15.8743458 88.9596853,15.605931 88.8032279,15.4038602 C88.6490249,15.2048281 88.4262872,15.0954364 88.1751438,15.0954364" id="Fill-22" fill="#FFFFFF"></path>
                    <path d="M109.137387,11.6320731 L102.355853,11.6320731 L102.377547,11.4872523 C102.393109,11.3815601 102.461491,11.2812649 102.560526,11.2182994 L108.20693,8.33357695 C108.584206,8.09700632 108.84547,7.71471539 108.905362,7.30993675 L109.04354,6.27865074 C109.094,5.9354884 109.000153,5.61301476 108.778975,5.37104708 C108.561098,5.13132818 108.24513,5 107.890019,5 L95.7440939,5 C95.2060042,5 94.7075285,5.416922 94.6316017,5.92919185 C94.5948173,6.18285313 94.6641418,6.42077301 94.8273136,6.60022488 C94.988599,6.77697822 95.22251,6.87457484 95.4847168,6.87457484 L106.670003,6.87457484 C106.723765,6.87457484 106.742157,6.90695713 106.748288,6.92629656 C106.759606,6.96317639 106.746873,7.01669712 106.695469,7.04907941 L101.152343,9.85959241 C100.776482,10.0952635 100.516162,10.476655 100.456269,10.8800843 L100.345445,11.6320731 L93.1210835,11.6320731 C92.583937,11.6320731 92.0859328,12.0489951 92.0100061,12.5608152 C91.9722785,12.8144765 92.0420745,13.0523963 92.2052463,13.2318482 C92.3660602,13.4090513 92.5999712,13.5061982 92.8621779,13.5061982 L100.06909,13.5061982 L99.2678505,18.9455235 C99.2428559,19.1159803 99.0768546,19.2549543 98.8981201,19.2549543 L96.3298147,19.2549543 C95.8299242,19.2549543 95.3658749,19.6426423 95.2951356,20.1189318 C95.2607092,20.3550527 95.3253177,20.5772312 95.4776428,20.74409 C95.6280816,20.9091497 95.8450152,21 96.0897729,21 L99.9078047,21 C100.496827,21 101.043405,20.5430499 101.125934,19.9822066 L102.07997,13.5061982 L108.878481,13.5061982 C109.4161,13.5061982 109.914104,13.0897259 109.99003,12.5779058 C110.027758,12.3242446 109.95749,12.0858749 109.79479,11.906423 C109.633505,11.7296697 109.399594,11.6320731 109.137387,11.6320731" id="Fill-24" fill="#FFFFFF"></path>
                    <path d="M113.862967,7 L125.87793,7 C126.41604,7 126.9145,6.55544887 126.990024,6.00912146 C127.027786,5.73883821 126.957454,5.4843975 126.794133,5.29332693 C126.633172,5.10417667 126.399519,5 126.1366,5 L114.12211,5 C113.583999,5 113.085539,5.4450312 113.010015,5.99135862 C112.972253,6.26164186 113.042113,6.51608257 113.205434,6.70715314 C113.366867,6.89582333 113.60052,7 113.862967,7" id="Fill-26" fill="#FFFFFF"></path>
                    <path d="M126.191148,11 L113.117521,11 C112.613431,11 112.146042,11.4330856 112.075734,11.9652155 C112.040359,12.2282438 112.105803,12.4758547 112.258799,12.6622638 C112.410026,12.8463368 112.629349,12.9477171 112.874762,12.9477171 L114.900409,12.9477171 L111.139187,20.4433213 C110.955239,20.8095986 110.95347,21.2183903 111.134766,21.5360798 C111.302796,21.8313442 111.597733,22 111.944405,22 L123.939103,22 C124.125262,22 124.307,21.8757273 124.391457,21.6911871 L125.663622,18.9235506 C125.749848,18.6605224 125.743658,18.4278615 125.645493,18.2325759 C125.486748,17.9167551 125.146266,17.8172436 125.13079,17.8130389 C124.649251,17.685963 124.218563,17.8971331 124.005872,18.3601189 L123.228512,20.0527501 L113.80158,20.0527501 C113.72464,20.0527501 113.659197,20.015842 113.622938,19.9518369 C113.581815,19.8798896 113.583141,19.7864515 113.625591,19.7009556 L117.010071,12.9477171 L125.948389,12.9477171 C126.452037,12.9477171 126.919426,12.5146316 126.990618,11.9825016 C127.025993,11.7194733 126.960549,11.4713952 126.807554,11.2854534 C126.656326,11.1013803 126.437003,11 126.191148,11 Z" id="Fill-28" fill="#FFFFFF"></path>
                </g>
            </g>
        </g>
    </g>
</svg>