<?xml version="1.0" encoding="UTF-8"?>
<svg width="858px" height="544px" viewBox="0 0 858 544" version="1.1" xmlns="http://www.w3.org/2000/svg" xmlns:xlink="http://www.w3.org/1999/xlink">
    <!-- Generator: Sketch 51.2 (57519) - http://www.bohemiancoding.com/sketch -->
    <title>send</title>
    <desc>Created with Sketch.</desc>
    <defs>
        <linearGradient x1="203.936924%" y1="41.6551548%" x2="-24.212446%" y2="52.0644882%" id="linearGradient-1">
            <stop stop-color="#FFFFFF" stop-opacity="0" offset="0%"></stop>
            <stop stop-color="#E6F4FF" offset="100%"></stop>
        </linearGradient>
        <linearGradient x1="5.65804329%" y1="45.7389957%" x2="95.3963595%" y2="19.5911307%" id="linearGradient-2">
            <stop stop-color="#A9DCFF" offset="0%"></stop>
            <stop stop-color="#86CCFB" offset="61.5592191%"></stop>
            <stop stop-color="#63BCF8" offset="100%"></stop>
        </linearGradient>
        <linearGradient x1="5.65804329%" y1="45.7389957%" x2="50%" y2="45.7389957%" id="linearGradient-3">
            <stop stop-color="#A9DCFF" offset="0%"></stop>
            <stop stop-color="#86CCFB" offset="89.731321%"></stop>
            <stop stop-color="#63BCF8" offset="100%"></stop>
        </linearGradient>
        <radialGradient cx="50%" cy="50%" fx="50%" fy="50%" r="50%" gradientTransform="translate(0.500000,0.500000),scale(0.589958,1.000000),rotate(90.000000),scale(1.000000,1.697212),translate(-0.500000,-0.500000)" id="radialGradient-4">
            <stop stop-color="#C3E7FF" stop-opacity="0" offset="0%"></stop>
            <stop stop-color="#C3E7FF" stop-opacity="0" offset="91.1833598%"></stop>
            <stop stop-color="#C3E7FF" offset="100%"></stop>
        </radialGradient>
        <linearGradient x1="5.65804329%" y1="45.7389957%" x2="58.2561799%" y2="45.7389957%" id="linearGradient-5">
            <stop stop-color="#9AD6FF" offset="0%"></stop>
            <stop stop-color="#6EC4FF" offset="44.5396133%"></stop>
            <stop stop-color="#2FAAFF" offset="100%"></stop>
        </linearGradient>
        <linearGradient x1="47.3591652%" y1="97.7791159%" x2="48.7033396%" y2="27.8935746%" id="linearGradient-6">
            <stop stop-color="#A9DCFF" offset="0%"></stop>
            <stop stop-color="#A9DCFF" stop-opacity="0" offset="100%"></stop>
        </linearGradient>
        <linearGradient x1="11.4118793%" y1="83.1729395%" x2="116.109484%" y2="-14.3362038%" id="linearGradient-7">
            <stop stop-color="#B2E0FF" offset="0%"></stop>
            <stop stop-color="#60BEFF" offset="100%"></stop>
        </linearGradient>
        <linearGradient x1="0%" y1="41.2650712%" x2="100%" y2="41.2650712%" id="linearGradient-8">
            <stop stop-color="#A9DCFF" offset="0%"></stop>
            <stop stop-color="#63BBF8" offset="100%"></stop>
        </linearGradient>
        <linearGradient x1="5.65804329%" y1="45.7389957%" x2="35.9567467%" y2="45.7389957%" id="linearGradient-9">
            <stop stop-color="#A9DCFF" offset="0%"></stop>
            <stop stop-color="#86CCFB" offset="77.1432321%"></stop>
            <stop stop-color="#63BCF8" offset="100%"></stop>
        </linearGradient>
        <linearGradient x1="5.65804329%" y1="45.7389957%" x2="32.977196%" y2="45.7389957%" id="linearGradient-10">
            <stop stop-color="#A9DCFF" offset="0%"></stop>
            <stop stop-color="#86CCFB" offset="84.317873%"></stop>
            <stop stop-color="#63BCF8" offset="100%"></stop>
        </linearGradient>
        <linearGradient x1="61.4776866%" y1="79.2072243%" x2="10.6905996%" y2="7.22216976%" id="linearGradient-11">
            <stop stop-color="#A9DCFF" stop-opacity="0" offset="0%"></stop>
            <stop stop-color="#A9DCFF" offset="100%"></stop>
        </linearGradient>
        <linearGradient x1="50%" y1="18.4353244%" x2="20.2184854%" y2="87.5880435%" id="linearGradient-12">
            <stop stop-color="#54A4FF" offset="0%"></stop>
            <stop stop-color="#087CFF" offset="100%"></stop>
        </linearGradient>
        <linearGradient x1="0%" y1="92.9202908%" x2="152.394755%" y2="-140.867058%" id="linearGradient-13">
            <stop stop-color="#54A4FF" offset="0%"></stop>
            <stop stop-color="#087CFF" offset="100%"></stop>
        </linearGradient>
        <linearGradient x1="85.2971496%" y1="22.4285056%" x2="46.9834628%" y2="78.5675363%" id="linearGradient-14">
            <stop stop-color="#00D863" offset="0%"></stop>
            <stop stop-color="#48D88A" stop-opacity="0" offset="100%"></stop>
        </linearGradient>
        <linearGradient x1="64.8183247%" y1="44.8071375%" x2="42.3875526%" y2="-5.9178449%" id="linearGradient-15">
            <stop stop-color="#48D88A" stop-opacity="0" offset="0%"></stop>
            <stop stop-color="#48D88A" offset="100%"></stop>
        </linearGradient>
        <linearGradient x1="34.7045155%" y1="75.5676921%" x2="21.26206%" y2="40.0397361%" id="linearGradient-16">
            <stop stop-color="#51A3FF" stop-opacity="0" offset="0%"></stop>
            <stop stop-color="#51A3FF" offset="100%"></stop>
        </linearGradient>
        <linearGradient x1="-9.52482464%" y1="18.3130357%" x2="50%" y2="57.0642165%" id="linearGradient-17">
            <stop stop-color="#54A4FF" offset="0%"></stop>
            <stop stop-color="#087CFF" offset="100%"></stop>
        </linearGradient>
    </defs>
    <g id="web" stroke="none" stroke-width="1" fill="none" fill-rule="evenodd">
        <g id="index" transform="translate(-332.000000, -2662.000000)">
            <g id="send" transform="translate(268.000000, 2602.000000)">
                <path d="M738.72642,130.381875 L850.08142,194.671875 C857.39142,198.892875 857.39142,209.443875 850.08142,213.663875 L177.418326,603.923703 L234.475326,603.923703 C240.436326,603.923703 246.293326,602.354703 251.456326,599.373703 L916.23842,213.663875 C923.54842,209.443875 923.54842,198.892875 916.23842,194.671875 L812.76442,134.931875 C807.60142,131.950875 801.74542,130.381875 795.78342,130.381875 L738.72642,130.381875 Z" id="Fill-1" fill="url(#linearGradient-1)"></path>
                <g id="Group-3" transform="translate(471.000000, 377.000000)" fill="url(#linearGradient-1)">
                    <path d="M0,101.193 L93.861,101.193 L96.515,112.127 L169.092,112.127 C176.744,112.127 184.261,110.112 190.888,106.287 L269.475,60.914 C278.188,55.884 278.188,43.308 269.475,38.277 L203.177,0 L54.361,16.648 L0,101.193 Z" id="Fill-1"></path>
                </g>
                <path d="M189.066967,583.187782 C187.651967,583.563782 186.216967,583.846782 184.772967,584.034782 C186.216967,583.846782 187.651967,583.563782 189.066967,583.187782 Z M182.600967,584.246782 C181.874967,584.293782 181.147967,584.316782 180.420967,584.316782 C181.147967,584.316782 181.874967,584.293782 182.600967,584.246782 Z M879.513042,163.934077 L792.722042,113.855077 C779.295042,106.107077 762.754042,106.109077 749.329042,113.860077 L577.46887,215.371269 L492.05587,166.105269 C480.01887,159.162269 461.81587,158.415269 451.39687,164.436269 L293.56387,255.650269 C288.58887,258.525269 286.29487,262.424269 286.55987,266.469269 C286.55387,268.288269 286.50787,269.061269 286.55987,269.839269 L286.55987,369.931269 C286.76487,374.192269 288.52087,377.417269 291.76387,380.323269 L68.8539666,508.325782 C65.9549666,509.999782 64.3639666,512.797782 64.0609666,515.712782 C63.9999666,516.394782 63.9999666,516.979782 64.0479666,517.563782 L63.9969666,532.540782 C63.9969666,538.342782 67.0929666,543.702782 72.1179666,546.601782 L163.581967,599.377782 C174.002967,605.390782 186.839967,605.388782 197.259967,599.373782 L434.31787,463.202269 L448.55687,471.415269 C454.79987,475.017269 462.70187,476.947269 470.31587,477.134269 C477.38187,477.308269 484.20087,475.982269 489.21487,473.084269 L512.17587,459.815269 L542.17287,477.134269 L555.93287,485.077269 C562.85087,489.072269 571.37587,489.072269 578.29387,485.077269 L669.30187,432.534269 C674.63887,429.452269 677.92587,423.758269 677.92587,417.596269 L677.92587,373.605269 C677.97287,371.258269 677.28887,368.861269 675.75687,366.805269 L654.07287,337.714269 L876.025042,205.896077 C881.825042,202.547077 885.397042,196.359077 885.397042,189.661077 L885.397042,170.657077 C884.177042,168.141077 882.373042,165.585077 879.513042,163.934077 Z" id="Fill-1" fill="#3BADFB"></path>
                <path d="M885.397142,167.657177 L650.301486,317.020265 L650.301486,336.590265 L876.024142,202.896177 C881.825142,199.547177 885.397142,193.359177 885.397142,186.661177 L885.397142,167.657177 Z" id="Fill-4" fill="url(#linearGradient-2)"></path>
                <path d="M516.365577,248.472833 L642.507577,321.257833 L879.515742,181.311277 C887.358742,176.782277 887.357742,165.461277 879.513742,160.934277 L792.722742,110.855277 C779.294742,103.107277 762.754742,103.109277 749.328742,110.860277 L516.365577,248.472833 Z" id="Fill-6" fill="#F2F9FF"></path>
                <path d="M450.852927,237.069 L347.794927,296.627 L286.016927,266.609 L286.016927,366.701 C285.996927,367.073 285.991927,367.447 286.016927,367.822 C286.306927,372.248 289.660927,376.848 295.948927,380.475 L448.013927,468.185 C454.256927,471.787 462.157927,473.717 469.772927,473.904 C476.838927,474.078 483.657927,472.752 488.671927,469.854 L646.505927,378.641 C651.476927,375.768 653.770927,371.874 653.509927,367.833 L653.529927,367.822 L653.529927,266.609 L591.819927,296.593 L491.512927,238.737 C484.934927,234.943 476.514927,233 468.531927,233 C461.904927,233 455.578927,234.338 450.852927,237.069" id="Fill-40" fill="url(#linearGradient-3)"></path>
                <path d="M653.514565,267.101584 C653.224565,262.675584 649.870565,258.074584 643.581565,254.447584 L491.517565,166.737584 C479.480565,159.794584 461.277565,159.048584 450.858565,165.069584 L293.024565,256.282584 C288.049565,259.157584 285.755565,263.056584 286.020565,267.101584 C286.310565,271.527584 289.664565,276.127584 295.953565,279.754584 L448.018565,367.464584 C460.054565,374.407584 478.257565,375.154584 488.676565,369.133584 L646.510565,277.919584 C651.486565,275.044584 653.779565,271.145584 653.514565,267.101584" id="Fill-43" fill="#FFFFFF"></path>
                <path d="M450.856712,161.069 L293.023712,252.282 C288.048712,255.158 285.754712,259.057 286.020712,263.101 C286.310712,267.528 289.664712,272.128 295.952712,275.755 L448.017712,363.466 C460.054712,370.407 478.256712,371.154 488.675712,365.133 L646.509712,273.92 C651.484712,271.045 653.778712,267.146 653.513712,263.101 C653.223712,258.676 649.870712,254.075 643.581712,250.447 L491.516712,162.738 C484.938712,158.944 476.518712,157 468.534712,157 C461.907712,157 455.582712,158.338 450.856712,161.069" id="Fill-45" fill="#E6F4FF"></path>
                <ellipse id="Oval-2" stroke="#9CD7FF" fill="url(#radialGradient-4)" fill-rule="nonzero" cx="470.5" cy="260.5" rx="119.5" ry="70.5"></ellipse>
                <path d="M469.5,316 C522.243194,316 565,290.87074 565,259.872226 C565,228.873713 522.243194,220.871149 469.5,220.871149 C416.756806,220.871149 374,228.873713 374,259.872226 C374,290.87074 416.756806,316 469.5,316 Z" id="Oval-2" fill="#A2D8FE"></path>
                <g id="Group-6" transform="translate(374.000000, 0.000000)">
                    <path d="M0.055713375,258.807667 L-9.09494702e-13,258.807667 L-9.09494702e-13,217.871149 L191,217.871149 L191,258.807667 L190.944287,258.807667 C189.208672,288.910012 147.141026,313 95.5,313 C43.8589743,313 1.79132804,288.910012 0.0557140047,258.807678 Z" id="Combined-Shape" fill="url(#linearGradient-5)"></path>
                    <path d="M-1.8189894e-12,0.95014708 L191,0.95014708 L191,219 C180.374851,183.675718 148.541518,166.013577 95.5,166.013577 C42.4584824,166.013577 10.6251491,183.675718 -1.8189894e-12,219 L-1.8189894e-12,0.95014708 Z" id="Rectangle-4" fill="url(#linearGradient-6)" opacity="0.699999988"></path>
                    <ellipse id="Oval-2" fill="#CBE9FD" cx="95.5" cy="218" rx="95.5" ry="56"></ellipse>
                    <ellipse id="Oval-2" fill="url(#linearGradient-7)" cx="95.5" cy="217" rx="95.5" ry="56"></ellipse>
                    <ellipse id="Oval-2" stroke="#FFFFFF" opacity="0.5" cx="95.5" cy="217.5" rx="77.5" ry="41.5"></ellipse>
                </g>
                <g id="Group-7" transform="translate(304.000000, 222.000000)">
                    <path d="M0,0 L27,0 L27,41 C25.2110616,35.025702 20.7110616,32.038553 13.5,32.038553 C6.28893836,32.038553 1.78893836,35.025702 0,41 L0,0 Z" id="Rectangle-3" fill="url(#linearGradient-6)" opacity="0.699999988"></path>
                    <ellipse id="Oval-3" stroke="#9CD7FF" fill-opacity="0.4" fill="url(#linearGradient-8)" fill-rule="nonzero" cx="13.5" cy="41" rx="13" ry="8.5"></ellipse>
                    <ellipse id="Oval-3" stroke="#FFFFFF" opacity="0.800000012" fill-rule="nonzero" cx="13.5" cy="41" rx="9" ry="5.5"></ellipse>
                </g>
                <g id="Group-7-Copy" transform="translate(454.000000, 306.000000)">
                    <path d="M0,0 L27,0 L27,41 C25.2110616,35.025702 20.7110616,32.038553 13.5,32.038553 C6.28893836,32.038553 1.78893836,35.025702 0,41 L0,0 Z" id="Rectangle-3" fill="url(#linearGradient-6)" opacity="0.699999988"></path>
                    <ellipse id="Oval-3" stroke="#9CD7FF" fill-opacity="0.4" fill="url(#linearGradient-8)" fill-rule="nonzero" cx="13.5" cy="41" rx="13" ry="8.5"></ellipse>
                    <ellipse id="Oval-3" stroke="#FFFFFF" opacity="0.800000012" fill-rule="nonzero" cx="13.5" cy="41" rx="9" ry="5.5"></ellipse>
                </g>
                <g id="Group-7-Copy-2" transform="translate(609.000000, 222.000000)">
                    <path d="M0,0 L27,0 L27,41 C25.2110616,35.025702 20.7110616,32.038553 13.5,32.038553 C6.28893836,32.038553 1.78893836,35.025702 0,41 L0,0 Z" id="Rectangle-3" fill="url(#linearGradient-6)" opacity="0.699999988"></path>
                    <ellipse id="Oval-3" stroke="#9CD7FF" fill-opacity="0.4" fill="url(#linearGradient-8)" fill-rule="nonzero" cx="13.5" cy="41" rx="13" ry="8.5"></ellipse>
                    <ellipse id="Oval-3" stroke="#FFFFFF" opacity="0.800000012" fill-rule="nonzero" cx="13.5" cy="41" rx="9" ry="5.5"></ellipse>
                </g>
                <path d="M512,456.883 L555.757,482.146 C562.675,486.141 571.199,486.141 578.118,482.146 L669.126,429.604 C674.463,426.521 677.75,420.827 677.75,414.665 L677.75,370.674 L569.516,421.647 L512,367 L512,456.883 Z" id="Fill-48" fill="url(#linearGradient-9)"></path>
                <path d="M512,370.969 L512,366.930697 L627.993,304 L675.581,367.843 C679.493,373.092 677.949,380.579 672.281,383.851 L584.16,434.727 C574.339,440.398 561.829,437.818 555.052,428.726 L512,370.969 Z" id="Fill-51" fill="#FFFFFF"></path>
                <path d="M512,366.969 L555.052,424.726 C561.83,433.819 574.339,436.397 584.16,430.728 L672.28,379.851 C677.949,376.579 679.494,369.092 675.581,363.843 L627.993,300 L512,366.969 Z" id="Fill-53" fill="#E6F4FF"></path>
                <path d="M560.905556,407.59797 L531.823556,368.58197 C530.338556,366.58897 530.924556,363.74697 533.076556,362.50397 L616.124556,314.55597 C617.948556,313.50397 620.271556,313.98297 621.530556,315.67097 L650.612556,354.68797 C652.097556,356.67997 651.511556,359.52297 649.359556,360.76497 L566.311556,408.71297 C564.487556,409.76597 562.164556,409.28597 560.905556,407.59797" id="Fill-56" fill="#334659"></path>
                <path d="M133.263,614.989 C122.843,621.005 110.006,621.008 99.585,614.994 L0.058,550.894 L0,567.726 C0,573.528 3.096,578.888 8.121,581.787 L99.585,634.562 C110.006,640.576 122.843,640.574 133.263,634.559 L524.816,408.495 L524.816,388.926 L133.263,614.989 Z" id="Clip-62"></path>
                <path d="M197.260167,576.803782 C186.840167,582.819782 174.003167,582.822782 163.582167,576.808782 L64.0551666,512.708782 L63.9971666,529.540782 C63.9971666,535.342782 67.0931666,540.702782 72.1181666,543.601782 L163.582167,596.376782 C174.003167,602.390782 186.840167,602.388782 197.260167,596.373782 L434.456614,460.337236 L434.458895,440.768236 L197.260167,576.803782 Z" id="Fill-61" fill="url(#linearGradient-10)"></path>
                <path d="M311.359,329.939 C311.209,330.028 311.084,330.11 310.962,330.196 C310.808,330.306 310.695,330.394 310.585,330.485 C310.429,330.617 310.328,330.709 310.229,330.806 C310.073,330.961 309.983,331.058 309.895,331.158 C309.741,331.339 309.662,331.439 309.584,331.543 C309.435,331.751 309.365,331.853 309.298,331.958 C309.155,332.194 309.095,332.299 309.037,332.407 C308.902,332.672 308.851,332.777 308.803,332.885 C308.679,333.182 308.636,333.288 308.596,333.397 C308.484,333.725 308.449,333.83 308.418,333.939 C308.322,334.302 308.294,334.406 308.27,334.513 C308.191,334.913 308.17,335.013 308.153,335.118 C308.134,335.231 308.121,335.348 308.106,335.464 C308.054,335.891 308.045,336.035 308.035,336.178 C308.006,336.639 308,336.865 308,337.096 L308.048,369.424 L434.142,441.706138 L434.142,409.787 C434.134,402.032 427.838,392.119 420.077,387.649 L322.037,331.166 C319.488,329.698 317.099,329 315.039,329 C313.824,329 312.723,329.243 311.772,329.714 C311.632,329.783 311.494,329.859 311.359,329.939 Z" id="Fill-64" fill="#334659"></path>
                <path d="M68.8531666,505.325782 C65.6421666,507.179782 64.0231666,510.413782 63.9971666,513.657782 C64.0231666,517.062782 65.6431666,520.296782 68.8551666,522.149782 L163.582167,576.808782 C174.003167,582.822782 186.840167,582.819782 197.260167,576.803782 L434.243751,441.636629 L434.195751,409.214629 C434.187751,401.459629 427.891751,391.546629 420.130751,387.076629 L348.255751,345.667629 L68.8531666,505.325782 Z" id="Fill-67" fill="#F2F9FF"></path>
                <g id="Group-48" transform="translate(99.000000, 280.000000)">
                    <g id="Group-15">
                        <path d="M76.5908222,125.632895 C48.5236213,116.859245 31.8569546,113.61515 26.5908222,115.900609 C18.6916234,119.328798 20.7720466,128.343627 29.9814402,131.310738 C36.121036,133.288812 47.8945622,139.00246 65.3020187,148.451681 L76.5908222,125.632895 Z" id="Path-16" fill="url(#linearGradient-11)"></path>
                        <g id="Group-3" fill="#334659">
                            <path d="M22.21596,0.742488889 C15.34806,2.72915556 13.85946,6.0536 14.16816,10.5718222 C14.47686,15.0900444 10.19286,17.7469333 6.14286,18.3442667 C2.09286,18.9416 -2.33154,26.0527111 1.41786,30.1264889 C5.16816,34.2011556 4.49316,34.5709333 2.54286,39.3860444 C0.59346,44.2011556 5.69016,48.3460444 12.96666,47.1993778 C20.24316,46.0527111 32.93766,23.0900444 32.55246,22.7931556 C32.16816,22.4971556 22.21596,0.742488889 22.21596,0.742488889" id="Fill-1"></path>
                        </g>
                        <path d="M22.73364,121.294578 C22.84164,122.998578 23.24214,123.602133 23.59584,123.785244 C23.94864,123.968356 23.96394,124.027022 24.04674,124.303467 C24.12954,124.578133 24.62904,125.642133 25.03584,126.291911 C26.48844,128.611911 28.67094,128.458133 27.99954,126.498133 C27.32814,124.538133 27.04104,124.518578 26.79624,123.119467 C26.55144,121.720356 26.24094,120.326578 24.88104,119.851022 C23.52024,119.374578 22.66794,120.253689 22.73364,121.294578" id="Fill-4" fill="#334659"></path>
                        <path d="M34.07238,27.9838222 C33.57558,30.3367111 36.51228,35.5633778 38.76768,38.1260444 C40.68468,40.3038222 46.98018,47.2007111 51.44328,51.6078222 C52.09848,52.2558222 54.33588,49.5802667 53.76798,48.7562667 C50.98518,44.7153778 42.63408,32.1011556 42.63408,32.1011556 C36.12168,18.6104889 36.09018,18.6638222 34.47108,16.3642667 C31.69098,12.4131556 34.56828,25.6300444 34.07238,27.9838222" id="Fill-7" fill="url(#linearGradient-12)"></path>
                        <path d="M36.32463,118.4856 C38.31453,119.815378 38.67633,119.623378 39.02283,120.650044 C39.36933,121.675822 36.37503,121.346933 34.93773,120.979822 C34.93773,120.979822 33.76233,120.671378 33.10893,119.986044 C32.45463,119.300711 31.91823,119.731822 30.79323,119.470489 C29.66913,119.209156 29.42703,118.187822 29.72943,116.505156 C30.03093,114.824267 33.35463,116.106044 34.09083,116.562044 C34.82703,117.017156 36.32463,118.4856 36.32463,118.4856" id="Fill-9" fill="#334659"></path>
                        <path d="M33.30162,116.279822 C33.65982,116.722489 33.39792,116.958044 32.97312,117.087822 C32.54742,117.2176 30.98682,116.927822 30.62232,116.296711 C30.25782,115.664711 27.67572,95.6087111 27.65052,87.9064889 C27.62532,80.2042667 24.16752,57.3136 23.29452,51.7056 C22.42242,46.0967111 32.29452,43.7998222 33.53472,53.6407111 C34.77582,63.4824889 34.83522,85.8780444 34.01262,90.7527111 C33.19002,95.6291556 32.78322,111.630933 32.76342,113.520711 C32.75442,114.355378 32.76792,115.621156 33.30162,116.279822" id="Fill-11" fill="#FFD6D6"></path>
                        <path d="M25.61472,120.521156 C25.73622,121.119378 25.85592,121.798489 24.93792,122.073156 C24.16572,122.304267 22.98762,121.403822 23.20992,120.241156 C23.54742,118.474044 19.64232,99.9682667 19.63152,92.2651556 C19.62072,84.5611556 18.76302,61.4047111 17.88552,55.7976 C17.00712,50.1887111 27.06372,47.8731556 28.30842,57.7140444 C29.55312,67.5549333 27.05382,91.0633778 26.20692,95.9416 C25.36092,100.818933 25.37082,115.479378 25.34742,117.370044 C25.33662,118.2056 25.45722,119.742489 25.61472,120.521156" id="Fill-13" fill="#FFD6D6"></path>
                    </g>
                    <g id="Group-18" transform="translate(15.000000, 45.000000)" fill="url(#linearGradient-12)">
                        <path d="M0.558035714,4.14841509 C2.67946429,33.1110566 2.83392857,35.8760755 3.08125,42.5580566 C3.18482143,45.3532264 4.16517857,46.9671887 9.12321429,46.974283 C14.08125,46.9822642 22.8580357,41.3271887 23.1160714,38.2588868 C23.7473214,30.7646038 26.4455357,26.3146792 22.7348214,0.0860188679 L0.558035714,4.14841509 Z" id="Fill-16"></path>
                    </g>
                    <path d="M31.9238696,59.6974499 C39.4806382,55.5967344 40.5001301,52.8046625 39.826521,46.3779674 C38.5582839,34.2721173 35.8829119,14.8118693 30.2080728,12.4383841 C25.0960877,10.3006341 14.7704407,16.2244874 11.8408766,24.9162116 C9.29169275,32.4821438 13.2707072,51.012 14.1286056,57.3060381 C14.9874119,63.6000762 22.0067457,65.0808155 31.9238696,59.6974499" id="Fill-19" fill="#FFFFFF"></path>
                    <path d="M19.5390075,20.2176086 C23.1095231,22.2015316 27.7956705,19.9656132 28.4564025,18.4472744 C28.7332125,17.8111748 29.5272122,16.6641208 28.4564025,15.8519502 C26.9712419,14.7255093 23.3136963,14 22.365889,14 C21.3073496,14 20.5539195,14.6228624 18.5039939,16.2803521 C17.3950365,17.1770117 18.2855424,19.5211326 19.5390075,20.2176086 Z" id="Path-2" fill="url(#linearGradient-12)"></path>
                    <g id="Group-23" transform="translate(20.000000, 10.000000)" fill="#FFD6D6">
                        <path d="M0.976360571,7.24655067 C0.486170231,8.0278259 1.99326787,8.79254374 3.32866828,8.69264276 C4.88907543,8.57590908 6.46955274,7.75742374 5.75485853,7.24655067 C4.42852721,6.29847113 7.13393778,4.40424774 6.52581278,4.34970228 L6.971125,3.62727273 C6.069875,3.28818182 5.06275,2.72727273 4.71975,1.85090909 C4.396,1.02545455 3.367,0.811818182 2.387,0.811818182 C1.33525,0.811818182 1.06299027,1.31319508 1.92165148,1.31319508 C0.354201788,2.4905911 2.43623896,4.91976713 0.976360571,7.24655067 Z" id="Fill-21"></path>
                    </g>
                    <g id="Group-28" transform="translate(20.000000, 1.000000)" fill="#FFD6D6">
                        <path d="M0.704846154,5.89941176 C0.511076923,13.1717647 6.36392308,15.12 7.68476923,14.3029412 C9.51753846,13.1673529 11.0736154,11.5958824 9.64023077,4.93588235 C9.06230769,2.25 6.88176923,0.673235294 4.81884615,0.673235294 C2.75169231,0.673235294 0.801307692,2.25882353 0.704846154,5.89941176" id="Fill-26"></path>
                    </g>
                    <g id="Group-47" transform="translate(12.000000, 0.000000)">
                        <path d="M38.4554211,55.8256597 C38.5580877,54.5962052 38.9750585,53.6508156 39.8288129,52.9912831 C39.7639708,52.5450234 39.5676433,51.9742052 39.012883,51.5602052 C37.971807,50.782387 40.0314444,48.6756468 40.5808012,49.143413 C44.3092222,52.3236857 44.2903099,54.4259455 41.0725205,56.9825299 C39.3280877,58.3696987 38.3923801,56.5819714 38.4554211,55.8256597" id="Fill-29" fill="#FFD6D6"></path>
                        <polygon id="Fill-31" fill="#92D2FD" fill-rule="nonzero" points="17.0212327 36.9549662 17.0212327 58.0922649 35.5192444 68.7182649 35.5192444 47.5818623"></polygon>
                        <polygon id="Fill-33" fill="url(#linearGradient-13)" points="54.0177965 36.9549662 54.0177965 58.0922649 35.5188842 68.7182649 35.5188842 47.5818623"></polygon>
                        <polygon id="Fill-35" fill="#E6F4FF" points="17.0212327 36.9549662 35.5192444 26.3280701 54.0181567 36.9549662 35.5192444 47.5818623"></polygon>
                        <path d="M21.0492784,57.3631948 C22.1993251,58.2037403 22.5226351,61.5282857 24.2715708,62.2102208 C26.1618982,62.9468182 27.3551731,64.0284156 27.3551731,64.0284156 C26.7355708,65.3895974 22.4487871,64.6888442 21.5130795,64.1986753 C20.5782725,63.7085065 18.5051263,60.1482857 18.5051263,60.1482857 L17.3199567,57.0934675 L20.3738398,56.8398701 L21.0492784,57.3631948 Z" id="Fill-38" fill="#FFD6D6"></path>
                        <path d="M0.934266667,27.8618416 C-0.126622222,31.0609325 0.578535673,32.7160364 0.828898246,35.1265558 C1.0801614,37.5379714 4.70321404,47.9041013 6.67549474,50.0520623 C8.64687485,52.1982312 18.504676,60.1484649 18.504676,60.1484649 C18.504676,60.1484649 17.9111906,59.2030753 19.396255,57.5712701 C20.1419392,56.7531273 20.8525006,57.2101403 20.8525006,57.2101403 L10.331869,44.9792182 C10.331869,44.9792182 6.30805614,30.3341922 5.08776374,27.4344 C3.86837193,24.5364 1.21705029,27.0078545 0.934266667,27.8618416" id="Fill-40" fill="url(#linearGradient-12)"></path>
                        <path d="M21.0492784,57.3631948 C23.6456643,58.8543117 24.1797111,58.0451299 24.5354421,59.0917792 C24.8902725,60.1384286 22.5496526,59.8857273 21.9750795,59.8301688 C21.4005064,59.7737143 21.0492784,57.3631948 21.0492784,57.3631948" id="Fill-42" fill="#FFD6D6"></path>
                        <g id="Group-46" transform="translate(5.403509, 0.000000)" fill="#334659">
                            <path d="M2.60269006,13.2939701 C3.46454971,11.6460351 5.76554386,12.6362299 5.2062807,10.9183987 C4.64611696,9.20056753 6.03481871,8.78029481 6.87866667,10.0402169 C7.7234152,11.300139 7.46945029,8.83585325 8.08905263,7.91197013 C8.70775439,6.98808701 10.875462,9.54556753 12.957614,8.26772338 C15.0406667,6.98808701 15.1532398,3.99151558 12.957614,1.83548961 C10.7628889,-0.320536364 5.32695906,-0.147588312 3.55911111,1.09530779 C-1.92004678,4.94407403 1.28783626,15.8075416 2.60269006,13.2939701" id="Fill-44"></path>
                        </g>
                    </g>
                </g>
                <path d="M390.267458,466.71917 C400.039967,461.145272 414.698732,452.784425 434.243751,441.636629 L434.195751,409.214629 C434.187751,401.459629 427.891751,391.546629 420.130751,387.076629 L348.255751,345.667629 L320.044009,329.730929 C316.197091,327.55782 311.316895,328.914711 309.143787,332.761629 C308.465619,333.962148 308.109248,335.317566 308.109248,336.696391 L308.109248,368.144176 C287.707969,380.111512 273.966802,388.118333 266.885746,392.164639 L390.267458,466.71917 Z" id="Fill-67" fill="url(#linearGradient-14)" style="mix-blend-mode: multiply;"></path>
                <path d="M565.552419,391.448838 C569.595358,387.909953 555.677148,363.358289 563.405986,358.955161 C571.134825,354.552033 585.404824,374.687969 592.440587,371.281924 C599.476351,367.875879 594.408501,352.787842 601.139731,347.688489 C607.870962,342.589135 614.956081,352.840348 620.792614,347.688489 C626.629148,342.536629 623.680428,335.925112 626.448528,333.004745" id="Path-9" stroke="#48D88A" stroke-linecap="round" stroke-linejoin="round" fill-rule="nonzero"></path>
                <path d="M565.552419,391.448838 C569.595358,387.909953 555.677148,363.358289 563.405986,358.955161 C571.134825,354.552033 585.404824,374.687969 592.440587,371.281924 C599.476351,367.875879 594.408501,352.787842 601.139731,347.688489 C607.870962,342.589135 614.956081,352.840348 620.792614,347.688489 C626.629148,342.536629 623.680428,335.925112 626.448528,333.004745 C628.359274,336.429461 633.651942,345.760696 642.326532,360.998451 L571.381121,398.612778 C568.869751,396.538932 566.92685,394.150952 565.552419,391.448838 Z" id="Path-9" fill="url(#linearGradient-15)"></path>
                <path d="M561.440204,386.363269 C570.859501,379.767509 569.921122,365.920055 579.236734,361.002827 C588.552346,356.085598 603.454372,363.260111 613.599672,357.955384 C620.363205,354.418899 618.075378,347.455999 630.186719,339.580428" id="Path-12" stroke="#51A3FF" stroke-linecap="round" fill-rule="nonzero"></path>
                <path d="M561.440204,386.363269 C570.859501,379.767509 569.921122,365.920055 579.236734,361.002827 C588.552346,356.085598 603.454372,363.260111 613.599672,357.955384 C620.363205,354.418899 618.075378,347.455999 630.186719,339.580428 L638.216752,353.76977 L566.45038,393.00601 L561.440204,386.363269 Z" id="Path-12" fill="url(#linearGradient-16)"></path>
                <g id="Group-34" transform="translate(603.000000, 326.000000)">
                    <path d="M35.4090754,128 C27.4517278,128 21,131.350563 21,135.483249 C21,138.238913 37.3565372,146.744497 70.0696116,161 L101,144.703548 L35.4090754,128 Z" id="Fill-1" fill="url(#linearGradient-11)"></path>
                    <g id="Group-5" transform="translate(0.000000, 32.000000)" fill="#FFD6D6">
                        <path d="M24.1983654,7.81558065 C20.4329808,7.17009677 18.2474038,6.93783871 17.3243269,5.39429032 C16.6464423,4.26203226 18.5522115,5.30235484 19.1502885,5.19493548 C19.5695192,5.11848387 19.1704808,3.42009677 17.88875,2.79590323 C16.6060577,2.17074194 15.2839423,1.28332258 16.1454808,0.900096774 C17.0070192,0.516870968 18.6099038,0.739451613 19.4906731,1.32396774 C20.3724038,1.90848387 21.61375,2.59364516 21.9954808,3.92429032 C22.3752885,5.25493548 24.0185577,5.25493548 24.0185577,5.25493548 L24.1983654,7.81558065 Z" id="Fill-1"></path>
                        <path d="M10.2466346,27.9283548 C6.75721154,29.0170645 8.16490385,29.9141613 4.74471154,29.0799677 C1.32644231,28.2477097 1.32644231,28.2477097 0.627403846,27.4715806 C-0.36875,26.3635161 -0.351442308,24.8170645 1.96009615,25.0841613 C4.27163462,25.3512581 5.41394231,25.839 5.57163462,25.5399677 C5.72836538,25.242871 4.96009615,24.1541613 5.62259615,24.0477097 C6.28605769,23.9431935 6.34951923,24.5460968 6.83894231,25.2119032 C7.32740385,25.8806129 9.86298077,24.7444839 9.86298077,24.7444839 L10.2466346,27.9283548 Z" id="Fill-3"></path>
                    </g>
                    <g id="Group-8" transform="translate(21.000000, 133.000000)" fill="#334659">
                        <path d="M0.881066667,2.698 C1.30386667,3.613 5.07453333,6.38 5.9584,6.567 C6.84133333,6.755 7.31453333,6.676 7.65053333,7.315 C7.9856,7.954 8.6912,8.349 9.83826667,8.851 C10.0641333,8.949 10.3245333,8.996 10.598,9 L10.6857333,9 C11.6293333,8.984 12.6989333,8.487 13.0274667,7.889 C13.4614667,7.096 13.0928,6.331 13.0498667,4.76 L12.2686667,4.255 C12.2686667,4.255 8.11626667,2.125 5.3676,1.198 C4.57986667,0.933 3.81266667,0.812 3.13786667,0.812 C1.4644,0.812 0.351866667,1.556 0.881066667,2.698" id="Fill-6"></path>
                    </g>
                    <g id="Group-11" transform="translate(44.000000, 131.000000)" fill="#334659">
                        <path d="M0.85,2.121 C1.172,3.294 5.275,5.139 6.275,5.707 C6.754,5.98 7.086,5.973 7.328,5.965 C7.59,5.958 7.746,5.95 7.871,6.297 C8.112,6.964 10.94,8.029 11.74,7.134 C12.54,6.237 12.432,5.818 12.335,3.129 L8.985,1.562 C8.985,1.562 6.084,1.409 4.28,0.92 C3.759,0.778 3.256,0.712 2.802,0.712 C1.506,0.712 0.612,1.252 0.85,2.121" id="Fill-9"></path>
                    </g>
                    <g id="Group-14" transform="translate(43.000000, 58.000000)" fill="url(#linearGradient-17)">
                        <path d="M2.57266667,37.0008765 C3.09683333,43.440358 7.25238889,71.5101852 7.35061111,73.9314074 C7.44977778,76.351679 12.8142222,78.957321 13.3147778,73.5901358 C13.8172222,68.2239012 14.6615556,46.1771852 14.4112778,38.9116173 C14.1628889,31.647 15.8581667,21.8442346 16.9282222,0.916395062 L0.497722222,0.238604938 C0.497722222,0.238604938 2.04755556,30.5604444 2.57266667,37.0008765" id="Fill-12"></path>
                    </g>
                    <g id="Group-17" transform="translate(27.000000, 58.000000)" fill="url(#linearGradient-12)">
                        <path d="M0.288321429,40.1723721 C-0.4725,46.9154419 1.97582143,75.236907 2.50328571,78.7114186 C3.03171429,82.1859302 8.30925,82.6693488 8.55417857,78.3710233 C8.80007143,74.0736512 8.58792857,58.9656279 11.1673929,48.7613953 C13.7468571,38.5571628 15.8509286,39.7366279 26.1456429,16.1444651 L23.6201786,5.86204651 L12.8008929,0.469116279 C12.8008929,0.469116279 1.05010714,33.4293023 0.288321429,40.1723721" id="Fill-15"></path>
                    </g>
                    <path d="M47.9418073,18.650776 C46.830515,17.0337172 46.2767461,14.5437159 46.7206998,13.209306 C47.1665308,11.874896 48.3407087,4.97403525 43.0855351,3.33101894 C37.8303614,1.68896403 34.0468992,6.42573485 35.2116912,11.5903244 C36.3774218,16.7558754 37.0550849,19.6198576 38.4188583,19.7246491 C39.7816931,19.8294407 40.2481731,19.5025679 40.6057764,20.5927847 C40.9624412,21.6830015 46.6718931,20.238993 46.6718931,20.238993 L48,19.7063827 L47.9418073,18.650776 Z" id="Fill-18" fill="#FFD6D6"></path>
                    <g id="Group-22" transform="translate(22.000000, 19.000000)" fill="#FFFFFF">
                        <path d="M1.65725714,16.5613636 C0.113657143,16.9116818 -1.41245714,20.8253182 3.19114286,20.9751818 C23.6746857,21.6433636 33.6706857,8.16327273 33.6706857,8.16327273 L27.7517714,0.0124090909 C27.7517714,0.0124090909 21.3471429,12.1065 1.65725714,16.5613636" id="Fill-20"></path>
                    </g>
                    <g id="Group-25" transform="translate(34.000000, 18.000000)" fill="#FFFFFF">
                        <path d="M15.5430333,0.60561194 C4.31423333,7.80513433 3.49643333,7.17086567 0.760766667,17.0335522 C-1.29146667,24.4298507 4.8952,43.0442985 0.808133333,53.1324179 C-0.631233333,56.6877612 2.1576,58.4635224 5.23836667,57.6439403 C9.20073333,56.5912836 7.78166667,61.0158806 14.3579,63.0772537 C20.7031,65.0679403 26.2952667,58.9497313 27.9859667,52.5019701 C28.855,49.1873433 28.0961667,22.6445373 27.6524667,20.7837612 C25.1062667,10.1014925 20.2217,0.283701493 16.6141,0.282746269 C16.2419333,0.282746269 15.8833,0.386865672 15.5430333,0.60561194" id="Fill-23"></path>
                    </g>
                    <g id="Group-30" transform="translate(32.000000, 0.000000)">
                        <path d="M15.917345,18.6063462 C15.917345,18.6063462 17.566545,19.8505769 18.117545,20.7678846 C18.360745,21.1707692 12.560045,23.7111538 8.711595,24.4698077 L8.492145,20.5486538 C8.492145,20.5486538 16.194745,19.8111538 15.917345,18.6063462" id="Fill-26" fill="#D0E9FB"></path>
                        <path d="M4.456165,0.894326923 C-0.917985,1.58663462 0.123215,7.31644231 1.620415,9.61355769 C3.116665,11.9106731 3.143265,11.1106731 5.090765,12.2000962 C5.090765,12.2000962 5.456515,11.9972115 6.152865,15.2943269 C6.152865,15.2943269 6.843515,15.4395192 7.185515,15.5116346 C7.527515,15.58375 6.812165,14.5568269 7.271015,14.0943269 C7.729865,13.6318269 9.400915,14.5991346 8.867965,16.1299038 C8.333115,17.6606731 8.305565,17.2250962 8.305565,17.2250962 C8.305565,17.2250962 9.682115,18.64625 10.418365,18.3308654 C11.155565,18.0164423 14.718065,17.58375 14.829215,16.24625 C14.941315,14.9077885 16.342565,12.9924038 15.874215,9.43663462 C15.403965,5.88182692 12.880765,2.67317308 9.409465,2.27317308 C5.939115,1.87221154 5.730115,0.729903846 4.456165,0.894326923" id="Fill-28" fill="#334659"></path>
                    </g>
                    <g id="Group-33" transform="translate(8.000000, 28.000000)" fill="#FFFFFF">
                        <path d="M27.2111351,5.93805882 C21.527027,18.0956471 20.5803243,18.4596176 0.830918919,28.8429706 C-0.573081081,29.5815882 -0.116756757,33.5881765 4.37837838,32.5593529 C24.3875676,27.9801176 33.695027,27.2531471 35.4317838,10.3493824 C35.6244324,8.48294118 34.5424865,0.558088235 31.7451892,0.559058824 C30.5552432,0.560029412 29.0549189,1.99358824 27.2111351,5.93805882" id="Fill-31"></path>
                    </g>
                </g>
            </g>
        </g>
    </g>
</svg>