<?xml version="1.0" encoding="UTF-8"?>
<svg width="226px" height="190px" viewBox="0 0 226 190" version="1.1" xmlns="http://www.w3.org/2000/svg" xmlns:xlink="http://www.w3.org/1999/xlink">
    <!-- Generator: Sketch 51.2 (57519) - http://www.bohemiancoding.com/sketch -->
    <title>sitman</title>
    <desc>Created with Sketch.</desc>
    <defs>
        <linearGradient x1="203.936924%" y1="41.6551548%" x2="-24.212446%" y2="52.0644882%" id="linearGradient-1">
            <stop stop-color="#FFFFFF" stop-opacity="0" offset="0%"></stop>
            <stop stop-color="#E6F4FF" offset="100%"></stop>
        </linearGradient>
        <linearGradient x1="5.65804329%" y1="45.7389957%" x2="50%" y2="45.7389957%" id="linearGradient-2">
            <stop stop-color="#A9DCFF" offset="0%"></stop>
            <stop stop-color="#86CCFB" offset="95.0450941%"></stop>
            <stop stop-color="#63BCF8" offset="100%"></stop>
        </linearGradient>
        <linearGradient x1="100%" y1="79.732578%" x2="43.3298319%" y2="33.4125191%" id="linearGradient-3">
            <stop stop-color="#A9DCFF" stop-opacity="0" offset="0%"></stop>
            <stop stop-color="#A9DCFF" offset="100%"></stop>
        </linearGradient>
        <polygon id="path-4" points="0.17907062 0.571063808 28.3470922 0.571063808 28.3470922 17.2509458 0.17907062 17.2509458"></polygon>
        <linearGradient x1="-21.0225035%" y1="13.3945334%" x2="51.9187309%" y2="50%" id="linearGradient-6">
            <stop stop-color="#54A4FF" offset="0%"></stop>
            <stop stop-color="#1066C9" offset="100%"></stop>
        </linearGradient>
        <path d="M66.1758427,0.543192308 C62.4438202,0.553788462 58.8837079,1.30834615 56.2207865,2.83586538 L3.98651685,32.8218654 C1.30955056,34.3583077 0.000561797753,36.4128462 0,38.5644231 L0,38.5744615 C0,38.6887885 0.00393258427,38.8036731 0.0117977528,38.9185577 C0.175842697,41.4114423 2.08033708,44.0035962 5.6494382,46.0469808 L20.3,54.3961923 C27.1314607,58.3078462 37.4634831,58.7289038 43.3764045,55.3359038 L95.6101124,25.3499038 C98.4342697,23.7298077 99.7359551,21.5330577 99.5859551,19.2543269 C99.4213483,16.7608846 97.5174157,14.1687308 93.9477528,12.1253462 L79.2977528,3.77557692 C75.5820225,1.64798077 70.8308989,0.553788462 66.3185393,0.543192308 L66.1758427,0.543192308 Z" id="path-7"></path>
        <linearGradient x1="-118.914647%" y1="50.0003687%" x2="43.2025539%" y2="50.0003687%" id="linearGradient-9">
            <stop stop-color="#C6E7FF" offset="0%"></stop>
            <stop stop-color="#FFFFFF" offset="100%"></stop>
        </linearGradient>
        <linearGradient x1="40.5747381%" y1="64.0703621%" x2="63.5067463%" y2="88.0469979%" id="linearGradient-10">
            <stop stop-color="#63BCF8" stop-opacity="0" offset="0%"></stop>
            <stop stop-color="#63BCF8" offset="100%"></stop>
        </linearGradient>
    </defs>
    <g id="web" stroke="none" stroke-width="1" fill="none" fill-rule="evenodd">
        <g id="index" transform="translate(-649.000000, -3102.000000)">
            <g id="sitman" transform="translate(649.000000, 3102.000000)">
                <g id="Group-40" transform="translate(0.000000, 64.000000)">
                    <path d="M128.741688,10 L98,10 L188.733575,62.3851337 C192.827641,64.7494652 192.827641,70.6589733 188.733575,73.0222481 L98,125.40791 L128.741688,125.40791 C131.736289,125.40791 134.678058,124.619095 137.271653,123.121773 L221.430629,74.5327786 C226.687032,71.4974524 226.687032,63.9104578 221.430629,60.8756599 L137.271653,12.2856086 C134.678058,10.7882866 131.736289,10 128.741688,10" id="Fill-33" fill="url(#linearGradient-1)"></path>
                    <path d="M88.198956,45.1738602 L33.0617276,76.9829493 L0.00915228449,60.9502041 L0.00915228449,68.4043442 C-0.00196868325,68.6025926 -0.00408696282,68.8018984 0.00915228449,69.0022614 C0.163257123,71.3664398 1.95796949,73.8231341 5.32285659,75.7612105 L86.67962,122.606516 C90.0196173,124.530319 94.2466442,125.560682 98.321155,125.660599 C102.101225,125.753644 105.748902,125.045236 108.432233,123.497841 L192.87533,74.7810704 C195.53483,73.2463634 196.761843,71.1666054 196.623096,69.0086054 L196.632628,69.0022614 L196.632628,60.9502041 L163.617652,76.9649748 L109.952099,46.063599 C106.433636,44.0377646 101.929115,43.0000003 97.6581335,43.0000003 C94.1121335,42.9994716 90.7276523,43.7147519 88.198956,45.1738602" id="Fill-38" fill="#3BADFB"></path>
                    <path d="M88.198956,42.1738602 L33.0617276,73.9829493 L0.00915228449,57.9502041 L0.00915228449,65.4043442 C-0.00196868325,65.6025926 -0.00408696282,65.8018984 0.00915228449,66.0022614 C0.163257123,68.3664398 1.95796949,70.8231341 5.32285659,72.7612105 L86.67962,119.606516 C90.0196173,121.530319 94.2466442,122.560682 98.321155,122.660599 C102.101225,122.753644 105.748902,122.045236 108.432233,120.497841 L192.87533,71.7810704 C195.53483,70.2463634 196.761843,68.1666054 196.623096,66.0086054 L196.632628,66.0022614 L196.632628,57.9502041 L163.617652,73.9649748 L109.952099,43.063599 C106.433636,41.0377646 101.929115,40.0000003 97.6581335,40.0000003 C94.1121335,39.9994716 90.7276523,40.7147519 88.198956,42.1738602" id="Fill-38" fill="url(#linearGradient-2)"></path>
                    <path d="M196.430243,57.661331 C196.275232,55.2979622 194.482297,52.8410312 191.12127,50.9042423 L109.845575,4.06397404 C103.41238,0.356376411 93.6827011,-0.0421876917 88.1139667,3.17328371 L3.7544646,51.8837374 C1.0954812,53.4198478 -0.130317559,55.5014731 0.0109376279,57.661331 C0.165418956,60.0252285 1.95835464,62.4816308 5.31991066,64.4189484 L86.5961347,111.258688 C93.0293297,114.966286 102.758479,115.365378 108.327214,112.149907 L192.686716,63.4394533 C195.345699,61.9033429 196.572027,59.8217176 196.430243,57.661331" id="Fill-41" fill="#FFFFFF"></path>
                    <path d="M196.430243,56.6616814 C196.275232,54.297784 194.482297,51.8413816 191.12127,49.904064 L109.845575,3.0637958 C103.41238,-0.643273237 93.6827011,-1.04236594 88.1139667,2.17310546 L3.7544646,50.8840877 C1.0954812,52.4196696 -0.130317559,54.5012948 0.0109376279,56.6616814 C0.165418956,59.0255788 1.95835464,61.4819812 5.31991066,63.4192988 L86.5961347,110.259038 C93.0293297,113.966636 102.758479,114.365729 108.327214,111.150257 L192.686716,62.4392751 C195.345699,60.9036932 196.572027,58.8215394 196.430243,56.6616814" id="Fill-43" fill="#E6F4FF"></path>
                    <g id="Group-145" transform="translate(35.000000, 20.000000)" fill="#A9DCFF">
                        <path d="M2.44017012,35.6349609 C2.96709959,35.9389057 2.96709959,36.4315606 2.44017012,36.7355053 C1.91376971,37.0394501 1.059361,37.0394501 0.532431535,36.7355053 C0.00550207469,36.4315606 0.00550207469,35.9389057 0.532431535,35.6349609 C1.059361,35.3310162 1.91376971,35.3310162 2.44017012,35.6349609" id="Fill-45"></path>
                        <path d="M12.6614907,29.7388024 C13.1884201,30.0422185 13.1884201,30.535402 12.6614907,30.8393467 C12.1345612,31.1432915 11.2806815,31.1432915 10.7537521,30.8393467 C10.2262936,30.535402 10.2262936,30.0422185 10.7537521,29.7388024 C11.2806815,29.4348576 12.1345612,29.4348576 12.6614907,29.7388024" id="Fill-47"></path>
                        <path d="M22.8828112,23.8421152 C23.4097407,24.14606 23.4097407,24.6392434 22.8828112,24.9431882 C22.3558817,25.2466043 21.5020021,25.2466043 20.9750726,24.9431882 C20.4476141,24.6392434 20.4476141,24.14606 20.9750726,23.8421152 C21.5020021,23.538699 22.3558817,23.538699 22.8828112,23.8421152" id="Fill-49"></path>
                        <path d="M33.1041317,17.9459566 C33.6310612,18.2499014 33.6310612,18.7430848 33.1041317,19.046501 C32.5772023,19.3504458 31.7233226,19.3504458 31.1963932,19.046501 C30.6689346,18.7430848 30.6689346,18.2499014 31.1963932,17.9459566 C31.7233226,17.6420118 32.5772023,17.6425404 33.1041317,17.9459566" id="Fill-51"></path>
                        <path d="M12.6620197,41.5311195 C13.1889492,41.8350643 13.1889492,42.3282477 12.6620197,42.6316639 C12.1350902,42.9356087 11.2812106,42.9356087 10.7542811,42.6316639 C10.2268226,42.3282477 10.2268226,41.8350643 10.7542811,41.5311195 C11.2812106,41.2271748 12.1350902,41.2271748 12.6620197,41.5311195" id="Fill-53"></path>
                        <path d="M22.8833402,35.6349609 C23.4097407,35.9389057 23.4097407,36.4320892 22.8833402,36.7355053 C22.3564108,37.0394501 21.5020021,37.0394501 20.9756017,36.7355053 C20.4481432,36.4315606 20.4481432,35.9389057 20.9756017,35.6349609 C21.5020021,35.3310162 22.3564108,35.3310162 22.8833402,35.6349609" id="Fill-55"></path>
                        <path d="M33.1041317,29.7388024 C33.6310612,30.0427471 33.6310612,30.535402 33.1041317,30.8393467 C32.5777313,31.1432915 31.7233226,31.1432915 31.1963932,30.8393467 C30.6694637,30.535402 30.6689346,30.0427471 31.1963932,29.7388024 C31.7233226,29.4348576 32.5777313,29.4348576 33.1041317,29.7388024" id="Fill-57"></path>
                        <path d="M43.3254523,23.8426438 C43.8523817,24.1465886 43.8523817,24.6392434 43.3254523,24.9431882 C42.7985228,25.2471329 41.9446432,25.2471329 41.4177137,24.9431882 C40.8902552,24.6392434 40.8902552,24.1465886 41.4177137,23.8426438 C41.9446432,23.538699 42.7985228,23.538699 43.3254523,23.8426438" id="Fill-59"></path>
                        <path d="M22.8833402,47.4278067 C23.4102697,47.7317515 23.4102697,48.2244063 22.8833402,48.5283511 C22.3564108,48.8322959 21.5025311,48.8322959 20.9756017,48.5283511 C20.4481432,48.2244063 20.4481432,47.7317515 20.9756017,47.4278067 C21.5025311,47.1238619 22.3564108,47.1238619 22.8833402,47.4278067" id="Fill-61"></path>
                        <path d="M33.1046608,41.5316481 C33.6315902,41.8350643 33.6315902,42.3282477 33.1046608,42.6321925 C32.5777313,42.9361373 31.7238517,42.9361373 31.1969222,42.6321925 C30.6694637,42.3282477 30.6694637,41.8350643 31.1969222,41.5316481 C31.7238517,41.2277034 32.5777313,41.2277034 33.1046608,41.5316481" id="Fill-63"></path>
                        <path d="M43.3259813,35.6349609 C43.8529108,35.9389057 43.8529108,36.4320892 43.3259813,36.7360339 C42.7990519,37.0394501 41.9451722,37.0394501 41.4182427,36.7360339 C40.8907842,36.4320892 40.8907842,35.9389057 41.4182427,35.6349609 C41.9446432,35.3315448 42.7990519,35.3315448 43.3259813,35.6349609" id="Fill-65"></path>
                        <path d="M53.5473019,29.7388024 C54.0737023,30.0427471 54.0737023,30.5359306 53.5473019,30.8393467 C53.0203724,31.1432915 52.1659637,31.1432915 51.6390342,30.8393467 C51.1121048,30.5359306 51.1121048,30.0427471 51.6390342,29.7388024 C52.1659637,29.4348576 53.0203724,29.4348576 53.5473019,29.7388024" id="Fill-67"></path>
                        <path d="M33.1046608,53.3239653 C33.6315902,53.6279101 33.6315902,54.1210935 33.1051898,54.4250383 C32.5782604,54.7284544 31.7238517,54.7284544 31.1974512,54.4250383 C30.6699927,54.1210935 30.6699927,53.6279101 31.1974512,53.3239653 C31.7238517,53.0205491 32.5782604,53.0205491 33.1046608,53.3239653" id="Fill-69"></path>
                        <path d="M43.3259813,47.4278067 C43.8529108,47.7317515 43.8529108,48.2249349 43.3259813,48.5283511 C42.7995809,48.8322959 41.9451722,48.8322959 41.4182427,48.5283511 C40.8913133,48.2244063 40.8913133,47.7317515 41.4182427,47.4278067 C41.9451722,47.1238619 42.7990519,47.1238619 43.3259813,47.4278067" id="Fill-71"></path>
                        <path d="M53.5473019,41.5316481 C54.0742313,41.8355929 54.0742313,42.3282477 53.5473019,42.6321925 C53.0203724,42.9361373 52.1664927,42.9361373 51.6395633,42.6321925 C51.1121048,42.3282477 51.1121048,41.8355929 51.6395633,41.5316481 C52.1664927,41.2277034 53.0203724,41.2277034 53.5473019,41.5316481" id="Fill-73"></path>
                        <path d="M63.7686224,35.6354895 C64.2955519,35.9394343 64.2955519,36.4320892 63.7686224,36.7360339 C63.2416929,37.0399787 62.3878133,37.0399787 61.8608838,36.7360339 C61.3334253,36.4320892 61.3334253,35.9394343 61.8608838,35.6354895 C62.3878133,35.3315448 63.2416929,35.3315448 63.7686224,35.6354895" id="Fill-75"></path>
                        <path d="M43.3265104,59.2205996 C43.8534398,59.5245444 43.8534398,60.0171992 43.3265104,60.321144 C42.7995809,60.6250888 41.9457012,60.6250888 41.4187718,60.321144 C40.8913133,60.0171992 40.8913133,59.5245444 41.4187718,59.2205996 C41.9457012,58.9166548 42.7995809,58.9166548 43.3265104,59.2205996" id="Fill-77"></path>
                        <path d="M53.5478309,53.324441 C54.0742313,53.6278572 54.0742313,54.1210406 53.5478309,54.4249854 C53.0209015,54.7289302 52.1670218,54.7289302 51.6400923,54.4249854 C51.1126338,54.1210406 51.1126338,53.6278572 51.6400923,53.324441 C52.1664927,53.0204963 53.0209015,53.0204963 53.5478309,53.324441" id="Fill-79"></path>
                        <path d="M63.7686224,47.4283353 C64.2955519,47.7317515 64.2955519,48.2249349 63.7686224,48.5288797 C63.242222,48.8322959 62.3878133,48.8322959 61.8608838,48.5288797 C61.3339544,48.2249349 61.3339544,47.7317515 61.8608838,47.4278067 C62.3878133,47.1243905 63.242222,47.1243905 63.7686224,47.4283353" id="Fill-81"></path>
                        <path d="M73.9899429,41.5316481 C74.5168724,41.8355929 74.5168724,42.3287763 73.9899429,42.6321925 C73.4635425,42.9361373 72.6091338,42.9361373 72.0822044,42.6321925 C71.5547459,42.3287763 71.5547459,41.8355929 72.0822044,41.5316481 C72.6091338,41.228232 73.4630135,41.228232 73.9899429,41.5316481" id="Fill-83"></path>
                        <path d="M73.9899429,41.5316481 C74.5168724,41.8355929 74.5168724,42.3287763 73.9899429,42.6321925 C73.4635425,42.9361373 72.6091338,42.9361373 72.0822044,42.6321925 C71.5547459,42.3287763 71.5547459,41.8355929 72.0822044,41.5316481 C72.6091338,41.228232 73.4630135,41.228232 73.9899429,41.5316481" id="Fill-85"></path>
                        <path d="M43.3254523,12.049798 C43.8518527,12.3537428 43.8518527,12.8469262 43.3254523,13.1503424 C42.7985228,13.4542872 41.9441141,13.4542872 41.4177137,13.1503424 C40.8902552,12.8469262 40.8902552,12.3537428 41.4177137,12.049798 C41.9441141,11.7458533 42.7985228,11.7458533 43.3254523,12.049798" id="Fill-87"></path>
                        <path d="M53.5462967,6.15363945 C54.0732261,6.45758422 54.0732261,6.95023905 53.5462967,7.25418383 C53.0198963,7.5581286 52.1654876,7.5581286 51.6385581,7.25418383 C51.1116286,6.95023905 51.1116286,6.45758422 51.6385581,6.15363945 C52.1654876,5.84969467 53.0198963,5.84969467 53.5462967,6.15363945" id="Fill-89"></path>
                        <path d="M63.7676172,0.257533728 C64.2945467,0.561478501 64.2945467,1.05413333 63.7676172,1.35807811 C63.2406878,1.66202288 62.3868081,1.66202288 61.8598786,1.35807811 C61.3324201,1.05413333 61.3324201,0.561478501 61.8598786,0.257533728 C62.3868081,-0.0464110454 63.2406878,-0.0464110454 63.7676172,0.257533728" id="Fill-91"></path>
                        <path d="M53.5467728,17.9464852 C54.0737023,18.2499014 54.0737023,18.7430848 53.5467728,19.0470296 C53.0198434,19.3509744 52.1659637,19.3509744 51.6390342,19.0470296 C51.1115757,18.7430848 51.1115757,18.2499014 51.6390342,17.9464852 C52.1659637,17.6425404 53.0198434,17.6425404 53.5467728,17.9464852" id="Fill-93"></path>
                        <path d="M63.7680934,12.049798 C64.2950228,12.3537428 64.2950228,12.8469262 63.7680934,13.150871 C63.2411639,13.4542872 62.3872842,13.4542872 61.8603548,13.150871 C61.3328963,12.8469262 61.3328963,12.3537428 61.8603548,12.049798 C62.3867552,11.7463819 63.2411639,11.7463819 63.7680934,12.049798" id="Fill-95"></path>
                        <path d="M73.9889378,6.15363945 C74.5158672,6.45758422 74.5158672,6.95076765 73.9889378,7.25418383 C73.4625373,7.5581286 72.6081286,7.5581286 72.0817282,7.25418383 C71.5542697,6.95076765 71.5542697,6.45758422 72.0811992,6.15363945 C72.6081286,5.84969467 73.4625373,5.84969467 73.9889378,6.15363945" id="Fill-97"></path>
                        <path d="M63.7680934,23.8426438 C64.2950228,24.1465886 64.2950228,24.639772 63.7680934,24.9431882 C63.2416929,25.2471329 62.3872842,25.2471329 61.8603548,24.9431882 C61.3328963,24.6392434 61.3328963,24.1465886 61.8603548,23.8426438 C62.3872842,23.538699 63.2411639,23.538699 63.7680934,23.8426438" id="Fill-99"></path>
                        <path d="M73.9894668,17.9464852 C74.5163963,18.25043 74.5163963,18.7430848 73.9894668,19.0470296 C73.4625373,19.3509744 72.6086577,19.3509744 72.0817282,19.0470296 C71.5542697,18.7430848 71.5542697,18.25043 72.0817282,17.9464852 C72.6086577,17.6425404 73.4625373,17.6425404 73.9894668,17.9464852" id="Fill-101"></path>
                        <path d="M84.2107873,12.0503266 C84.7377168,12.3542714 84.7377168,12.8469262 84.2107873,13.150871 C83.6838579,13.4548158 82.8299782,13.4548158 82.3030488,13.150871 C81.7755902,12.8469262 81.7755902,12.3542714 82.3030488,12.0503266 C82.8299782,11.7463819 83.6838579,11.7463819 84.2107873,12.0503266" id="Fill-103"></path>
                        <path d="M73.9899429,29.739331 C74.5163434,30.0427471 74.5168724,30.5359306 73.9899429,30.8398753 C73.4630135,31.1438201 72.6086048,31.1438201 72.0822044,30.8398753 C71.5547459,30.5359306 71.5547459,30.0427471 72.0822044,29.739331 C72.6086048,29.4353862 73.4630135,29.4353862 73.9899429,29.739331" id="Fill-105"></path>
                        <path d="M84.2107873,23.8426438 C84.7377168,24.1465886 84.7377168,24.639772 84.2107873,24.9437168 C83.6843869,25.2471329 82.8299782,25.2471329 82.3030488,24.9437168 C81.7761193,24.639772 81.7761193,24.1465886 82.3030488,23.8426438 C82.8299782,23.5392276 83.6843869,23.5392276 84.2107873,23.8426438" id="Fill-107"></path>
                        <path d="M94.4321079,17.9464852 C94.9590373,18.25043 94.9590373,18.7436134 94.4321079,19.0470296 C93.9051784,19.3509744 93.0512988,19.3509744 92.5243693,19.0470296 C91.9969108,18.7436134 91.9969108,18.25043 92.5243693,17.9464852 C93.0512988,17.6425404 93.9051784,17.6425404 94.4321079,17.9464852" id="Fill-109"></path>
                        <path d="M84.2112635,35.6354895 C84.7381929,35.9394343 84.7381929,36.4326178 84.2112635,36.7360339 C83.684334,37.0399787 82.8304544,37.0399787 82.3035249,36.7360339 C81.7760664,36.4320892 81.7760664,35.9394343 82.3035249,35.6354895 C82.8304544,35.3315448 83.684334,35.3315448 84.2112635,35.6354895" id="Fill-111"></path>
                        <path d="M94.4326369,29.739331 C94.9595664,30.0432757 94.9595664,30.5359306 94.4326369,30.8398753 C93.9057075,31.1438201 93.0518278,31.1438201 92.5248983,30.8398753 C91.9974398,30.5359306 91.9974398,30.0432757 92.5248983,29.739331 C93.0518278,29.4353862 93.9057075,29.4353862 94.4326369,29.739331" id="Fill-113"></path>
                        <path d="M104.653957,23.8431724 C105.180358,24.1471172 105.180358,24.639772 104.653957,24.9437168 C104.127028,25.2476615 103.272619,25.2476615 102.746219,24.9437168 C102.21876,24.639772 102.21876,24.1471172 102.746219,23.8431724 C103.272619,23.5392276 104.127028,23.5392276 104.653957,23.8431724" id="Fill-115"></path>
                        <path d="M53.5478309,65.1167582 C54.0747604,65.420703 54.0747604,65.9138864 53.5478309,66.2178312 C53.0209015,66.5212473 52.1670218,66.5212473 51.6400923,66.2178312 C51.1126338,65.9138864 51.1126338,65.420703 51.6400923,65.1167582 C52.1670218,64.813342 53.0209015,64.813342 53.5478309,65.1167582" id="Fill-117"></path>
                        <path d="M63.7691515,59.2205996 C64.2960809,59.5245444 64.2960809,60.0177278 63.7691515,60.321144 C63.242222,60.6250888 62.3883423,60.6250888 61.8614129,60.321144 C61.3339544,60.0177278 61.3339544,59.5245444 61.8614129,59.2205996 C62.3883423,58.9166548 63.242222,58.9166548 63.7691515,59.2205996" id="Fill-119"></path>
                        <path d="M73.990472,53.324441 C74.5174015,53.6283858 74.5174015,54.1210406 73.990472,54.4249854 C73.4635425,54.7289302 72.6096629,54.7289302 72.0827334,54.4249854 C71.5552749,54.1210406 71.5552749,53.6283858 72.0827334,53.324441 C72.6096629,53.0204963 73.4635425,53.0204963 73.990472,53.324441" id="Fill-121"></path>
                        <path d="M84.2117925,47.4283353 C84.7381929,47.7322801 84.7381929,48.2249349 84.2117925,48.5288797 C83.6848631,48.8328245 82.8304544,48.8328245 82.3040539,48.5288797 C81.7765954,48.2249349 81.7765954,47.7322801 82.3040539,47.4283353 C82.8304544,47.1243905 83.6848631,47.1243905 84.2117925,47.4283353" id="Fill-123"></path>
                        <path d="M63.7696805,71.0134454 C64.2960809,71.3173901 64.2960809,71.810045 63.7696805,72.1139897 C63.242751,72.4179345 62.3883423,72.4179345 61.8619419,72.1139897 C61.3344834,71.810045 61.3344834,71.3173901 61.8619419,71.0134454 C62.3883423,70.7095006 63.242751,70.7095006 63.7696805,71.0134454" id="Fill-125"></path>
                        <path d="M73.990472,65.1172868 C74.5174015,65.420703 74.5174015,65.9138864 73.990472,66.2178312 C73.4640716,66.5217759 72.6096629,66.5217759 72.0827334,66.2178312 C71.5558039,65.9138864 71.5558039,65.420703 72.0827334,65.1172868 C72.6096629,64.813342 73.4640716,64.813342 73.990472,65.1172868" id="Fill-127"></path>
                        <path d="M84.2117925,59.2211282 C84.738722,59.5245444 84.738722,60.0177278 84.2117925,60.3216726 C83.6848631,60.6250888 82.8309834,60.6250888 82.3040539,60.3216726 C81.7765954,60.0177278 81.7765954,59.5245444 82.3040539,59.2205996 C82.8309834,58.9171834 83.6848631,58.9171834 84.2117925,59.2211282" id="Fill-129"></path>
                        <path d="M94.4331131,53.324441 C94.9600425,53.6283858 94.9600425,54.1215692 94.4331131,54.425514 C93.9061836,54.7289302 93.0523039,54.7289302 92.5253745,54.425514 C91.997916,54.1215692 91.997916,53.6283858 92.5253745,53.324441 C93.0523039,53.0210249 93.9061836,53.0210249 94.4331131,53.324441" id="Fill-131"></path>
                        <path d="M94.4326369,41.5321767 C94.9595664,41.8355929 94.9595664,42.3287763 94.4326369,42.6327211 C93.9062365,42.9366659 93.0518278,42.9366659 92.5248983,42.6327211 C91.9979689,42.3287763 91.9979689,41.8355929 92.5248983,41.5321767 C93.0518278,41.228232 93.9057075,41.228232 94.4326369,41.5321767" id="Fill-133"></path>
                        <path d="M104.653957,35.6360181 C105.180887,35.9394343 105.180887,36.4326178 104.653957,36.7365625 C104.127028,37.0399787 103.273148,37.0399787 102.746219,36.7365625 C102.21876,36.4326178 102.21876,35.9394343 102.746219,35.6354895 C103.273148,35.3320734 104.127028,35.3320734 104.653957,35.6360181" id="Fill-135"></path>
                        <path d="M114.875278,29.739331 C115.402207,30.0432757 115.402207,30.5364592 114.875278,30.8398753 C114.348349,31.1438201 113.494469,31.1438201 112.967539,30.8398753 C112.440081,30.5364592 112.440081,30.0432757 112.967539,29.739331 C113.494469,29.4359148 114.348349,29.4359148 114.875278,29.739331" id="Fill-137"></path>
                        <path d="M104.654434,47.4283353 C105.180834,47.7322801 105.181363,48.2254635 104.654434,48.5288797 C104.127504,48.8328245 103.273624,48.8328245 102.746695,48.5288797 C102.219237,48.2254635 102.219237,47.7322801 102.746695,47.4283353 C103.273095,47.1243905 104.127504,47.1243905 104.654434,47.4283353" id="Fill-139"></path>
                        <path d="M114.875278,41.5321767 C115.402207,41.8361215 115.402207,42.3287763 114.875807,42.6327211 C114.348878,42.9366659 113.494469,42.9366659 112.968068,42.6327211 C112.44061,42.3287763 112.44061,41.8361215 112.967539,41.5321767 C113.494469,41.228232 114.348878,41.228232 114.875278,41.5321767" id="Fill-141"></path>
                        <path d="M125.096599,35.6360181 C125.623528,35.9399629 125.623528,36.4326178 125.096599,36.7365625 C124.570198,37.0405073 123.715789,37.0405073 123.18886,36.7365625 C122.66193,36.4326178 122.66193,35.9399629 123.18886,35.6360181 C123.715789,35.3320734 124.569669,35.3320734 125.096599,35.6360181" id="Fill-143"></path>
                    </g>
                </g>
                <g id="Group-56" transform="translate(19.000000, 0.000000)">
                    <g id="Group-8" transform="translate(21.000000, 79.000000)">
                        <g id="Group-3" fill="url(#linearGradient-3)">
                            <path d="M71.1214381,39.3352967 L95.8263931,25.047588 C98.655785,23.4117628 99.9609652,21.1936851 99.8100643,18.8922676 C99.6456498,16.3751802 97.7374291,13.7572967 94.1602895,11.6940734 L79.4761679,3.26380159 C72.629321,-0.685266368 62.2745913,-1.110412 56.3477895,2.31496664 L3.99643813,32.5920929 C1.16592011,34.2279181 -0.138697002,36.4459958 0.0116408356,38.7468501 C0.176618313,41.2650637 2.08483903,43.881821 5.66254174,45.9456074 L20.3461003,54.3758793 C24.1000417,56.541588 28.9069111,57.6396463 33.4620913,57.6323259 C38.0172715,57.6250055 50.032542,48.6343401 52.6265735,48.6343401 C56.3968151,48.6343401 61.1665282,51.271966 66.9357129,56.547218 L94.1602895,57.6323259 L119.027902,44.8579577 L71.1214381,39.3352967 Z" id="Fill-1"></path>
                        </g>
                        <path d="M47.3317005,37.292635 C46.6278716,38.5033146 50.6284347,40.2635864 52.5175113,40.6949262 C53.6239302,40.946635 55.0923986,42.4658971 56.1999437,42.1443631 C58.9826014,41.3385573 57.7235923,39.2201495 57.2956644,38.3574699 C56.5997185,36.9536447 55.354223,36.9879942 55.354223,36.9879942 C55.354223,36.9879942 52.4184122,37.140033 51.4741554,36.9164796 C50.613232,36.7120718 48.2697635,35.6787709 47.3317005,37.292635" id="Fill-4" fill="#334659"></path>
                        <path d="M53.2631194,36.4974718 C53.2315878,37.647899 53.4483671,39.0348311 55.3244932,39.2651417 C58.7163851,39.6812777 56.5243806,35.7288311 56.5243806,35.7288311 L53.2631194,36.4974718 Z" id="Fill-6" fill="#FFFFFF"></path>
                    </g>
                    <g id="Group-11" transform="translate(67.000000, 88.000000)" fill="#0754AC">
                        <path d="M1.41509434,2.02528302 C-2.68415094,5.71867925 5.85226415,24.2875472 7.46264151,27.6022642 C9.07188679,30.9164151 12.8020755,29.6954717 12.2337736,27.3283019 C11.6660377,24.9611321 10.6188679,12.5745283 10.6188679,12.5745283 C10.6188679,12.5745283 19.0030189,19.4032075 27.0045283,19.0098113 C32.8437736,18.7228302 26.6360377,10.2084906 24.5773585,8.44641509 C18.3888679,3.15 11.6258491,0.337924528 6.69169811,0.337924528 C4.50283019,0.337924528 2.67509434,0.890943396 1.41509434,2.02528302" id="Fill-9"></path>
                    </g>
                    <g id="Group-25" transform="translate(55.000000, 100.000000)">
                        <g id="Group-14" transform="translate(18.501348, 17.825977)">
                            <mask id="mask-5" fill="white">
                                <use xlink:href="#path-4"></use>
                            </mask>
                            <g id="Clip-13"></g>
                        </g>
                        <polygon id="Fill-15" fill="#63BCF8" points="18.6804183 8.58223052 18.6804183 25.171315 32.7644291 33.5109972 32.7644291 16.9224878"></polygon>
                        <polygon id="Fill-17" fill="#1066C9" points="46.8482717 8.58223052 46.8482717 25.171315 32.7642609 33.5109972 32.7642609 16.9224878"></polygon>
                        <polygon id="Fill-19" fill="#087BFF" points="18.6804183 8.58223052 32.7644291 0.242548298 46.8484399 8.58223052 32.7644291 16.9224878"></polygon>
                        <path d="M0.325231267,20.0239203 C-0.375577358,21.2596631 3.60781887,23.0572116 5.48878922,23.4976858 C6.59046038,23.7552999 8.05262749,25.3061599 9.15541995,24.9783919 C11.9261369,24.1549468 10.6725305,21.9916782 10.2464388,21.1107299 C9.55347925,19.6771763 8.31388895,19.7122532 8.31388895,19.7122532 C8.31388895,19.7122532 5.39011536,19.8680868 4.44991051,19.6392242 C3.5926814,19.4310628 1.259269,18.3753049 0.325231267,20.0239203" id="Fill-21" fill="#334659"></path>
                        <path d="M6.23091752,19.2119183 C6.19952129,20.3861327 6.41537035,21.8024353 8.28344582,22.0376232 C11.6613434,22.4631465 10.7054404,19.2119183 10.7054404,19.2119183 L6.23091752,19.2119183 Z" id="Fill-23" fill="#FFFFFF"></path>
                    </g>
                    <g id="Group-28" transform="translate(57.000000, 93.000000)" fill="url(#linearGradient-6)">
                        <path d="M1.66591549,1.80096 C-2.41464789,5.45384 2.8456338,20.076 3.34591549,24.44736 C3.75943662,28.06832 8.58422535,28.79576 8.69971831,26.39 C8.83211268,23.64712 8.69971831,11.78688 8.69971831,11.78688 C8.69971831,11.78688 18.9752113,19.0568 26.9397183,18.66816 C32.7509859,18.38424 36.6433803,15.80992 38.1639437,13.87232 C41.1521127,10.06376 39.4878873,4.19384 39.4878873,4.19384 L24.5239437,8.21744 C16.9915493,3.90656 10.2907042,0.4452 5.66929577,0.44464 C4.06760563,0.44464 2.71605634,0.86072 1.66591549,1.80096" id="Fill-26"></path>
                    </g>
                    <g id="Group-31" transform="translate(0.000000, 57.000000)" fill="#FFFFFF">
                        <path d="M99.5858504,18.7111304 C99.4212436,16.2171304 97.5173111,13.6255342 93.9482099,11.5815919 L79.2976481,3.23238035 C72.4661875,-0.679273494 62.134165,-1.0992158 56.2206818,2.29266881 L3.98697398,32.2786688 C1.16337847,33.898765 -0.138868717,36.095515 0.0116930805,38.3748034 C0.176299822,40.867688 2.07967061,43.4603996 5.64933353,45.5037842 L20.2998953,53.8535534 C27.131356,57.7646496 37.4633785,58.1851496 43.3768616,54.7927073 L95.6105695,24.8067073 C98.434165,23.1866111 99.7364122,20.9904188 99.5858504,18.7111304" id="Fill-29"></path>
                    </g>
                    <g id="Group-34" transform="translate(0.000000, 52.000000)">
                        <mask id="mask-8" fill="white">
                            <use xlink:href="#path-7"></use>
                        </mask>
                        <g id="Clip-33"></g>
                        <path d="M66.1758427,2 C62.4438202,2.01059615 58.8837079,2.76515385 56.2207865,4.29267308 L3.98651685,34.2786731 C1.30955056,35.8151154 0.000561797753,37.8696538 0,40.0212308 L0,40.0312692 C0,40.1455962 0.00393258427,40.2604808 0.0117977528,40.3753654 C0.175842697,42.86825 2.08033708,45.4604038 5.6494382,47.5037885 L20.3,55.853 C27.1314607,59.7646538 37.4634831,60.1857115 43.3764045,56.7927115 L95.6101124,26.8067115 C98.4342697,25.1866154 99.7359551,22.9898654 99.5859551,20.7111346 C99.4213483,18.2176923 97.5174157,15.6255385 93.9477528,13.5821538 L79.2977528,5.23238462 C75.5820225,3.10478846 70.8308989,2.01059615 66.3185393,2 L66.1758427,2 Z" id="Fill-32" fill="#E6F4FF" mask="url(#mask-8)"></path>
                    </g>
                    <g id="Group-43" transform="translate(37.000000, 72.000000)">
                        <path d="M30.5604091,0.710161125 C29.5965568,0.710161125 28.6327045,0.967272236 27.7729773,1.48265001 L1.61867045,17.1508278 C1.03401136,17.5015389 0.684329545,18.1290056 0.684329545,18.8304278 C0.684329545,19.53185 1.03401136,20.1598945 1.61867045,20.5106056 L7.454125,24.0061611 C9.17357955,25.0369167 11.3100909,25.0369167 13.0295455,24.0061611 L39.1832955,8.33798335 C39.7685114,7.98785001 40.1181932,7.35980557 40.1181932,6.65838335 C40.1181932,5.95696112 39.7690682,5.32891668 39.1832955,4.97820557 L33.3483977,1.48265001 C32.4881136,0.967272236 31.5242614,0.710161125 30.5604091,0.710161125 M10.2421136,25.4887389 C9.15965909,25.4887389 8.07776136,25.19985 7.11223864,24.6214945 L1.27678409,21.1253611 C0.477193182,20.6463833 0,19.7889611 0,18.8304278 C0,17.8724722 0.477193182,17.01505 1.27678409,16.5360722 L27.4305341,0.86731668 C29.3610227,-0.289394431 31.7597955,-0.288816653 33.6902841,0.86731668 L39.5257386,4.36287224 C40.3253295,4.84185001 40.8025227,5.70042779 40.8025227,6.65896112 C40.8025227,7.6163389 40.3253295,8.4743389 39.5257386,8.95331668 L13.3714318,24.6214945 C12.4064659,25.19985 11.3245682,25.4887389 10.2421136,25.4887389" id="Fill-35" fill="#A9DCFF"></path>
                        <path d="M30.1288091,6.44832444 C30.1288091,6.44832444 28.6387636,6.49685778 27.4510705,5.96530222 C26.2633773,5.43374667 25.4103318,5.17259111 23.9770818,5.98321333 C23.1156841,6.47085778 22.1100705,7.68823556 22.8996386,7.89796889 C24.2053773,8.24348 24.3640705,7.68014667 24.7393659,7.39125778 C25.1464,7.07694667 26.3001273,7.25721333 26.4499114,7.46348 C26.6631727,7.75756889 25.8257182,8.49885778 25.9376386,8.74441333 C26.1993432,9.31930222 27.29015,8.06379111 28.5686045,7.72925778 C29.8531841,7.39299111 30.2969682,7.86445778 30.2763659,7.72925778 C30.2552068,7.59348 30.1288091,6.44832444 30.1288091,6.44832444" id="Fill-37" fill="#FFD6D6"></path>
                        <path d="M29.4828443,6.07987556 C29.1075489,5.97587556 28.4644239,7.69187556 29.0507534,8.01543111 C29.6365261,8.33840889 41.8659239,12.5469422 41.8659239,12.5469422 L47.677992,3.24876444 L40.257833,7.19960889 L29.4828443,6.07987556 Z" id="Fill-39" fill="#FFFFFF"></path>
                        <path d="M16.915792,13.7822311 C15.1094739,12.0933867 14.7442011,12.5232533 14.8683716,12.8444978 C14.9808489,13.13512 15.5231898,13.5424533 15.3873261,13.7568089 C15.2514625,13.9717422 14.891758,13.5314756 13.3014852,14.1797422 C11.7112125,14.8285867 10.5446784,16.7600978 11.4489511,17.0200978 C12.3537807,17.2806756 14.1706784,16.4157422 15.326633,16.7756978 C16.4837011,17.1356533 18.107383,16.3556533 18.107383,16.3556533 L18.2037125,14.9990311 C18.2037125,14.9990311 17.1452011,13.9960089 16.915792,13.7822311" id="Fill-41" fill="#FFD6D6"></path>
                    </g>
                    <g id="Group-46" transform="translate(75.000000, 68.000000)" fill="url(#linearGradient-9)">
                        <path d="M1.30482927,9.67362162 C-0.471219512,18.8863784 5.34441463,21.7157027 0.839780488,31.5822973 C-1.6582439,37.0553514 4.12204878,41.3603514 10.9816585,41.4420811 C16.1196341,41.5039459 22.724561,36.7386486 22.6707073,34.3508919 C22.2746585,16.6456216 20.0773171,7.40108108 15.3067805,1.90702703 C14.1982927,0.630567568 12.8962683,0.0993243243 11.5392683,0.0993243243 C7.08904878,0.0987567568 2.0492439,5.81245946 1.30482927,9.67362162" id="Fill-44"></path>
                    </g>
                    <g id="Group-55" transform="translate(54.000000, 54.000000)">
                        <path d="M33.1373067,17.148506 C34.0405733,16.5493269 33.8212733,15.5602672 32.48394,15.2852522 C30.9630067,14.9726851 31.6974067,11.4046701 31.6974067,11.4046701 L26.55774,14.7440582 C26.55774,14.7440582 27.5533733,16.5349687 27.0666067,16.9502522 C24.88154,18.8162672 26.3480733,21.6487 33.1373067,17.148506" id="Fill-47" fill="#FFD6D6"></path>
                        <path d="M26.5577967,14.7443343 C26.27673,14.0993194 24.9070967,15.1132299 24.08713,14.7421254 C23.26603,14.3704687 20.84353,8.36376716 22.5242633,5.62687164 C24.2055633,2.88997612 29.24663,5.08954328 31.6974633,11.404394 L26.5577967,14.7443343 Z" id="Fill-49" fill="#FFD6D6"></path>
                        <path d="M21.0884433,6.69749701 C21.6335767,8.73028806 24.4714433,10.3041687 24.79671,10.6769299 C25.1225433,11.0491388 24.6907433,10.0976313 25.1463433,9.9689597 C25.6019433,9.83973582 26.36581,10.2848403 26.0280767,11.3865567 C25.69091,12.4882731 27.9003433,13.4944522 28.52821,13.8589299 C29.1560767,14.2234075 31.5842433,14.5022881 32.3520767,14.025706 C33.1204767,13.5480194 32.20701,9.3129 32.54191,6.62846716 C32.87681,3.94458657 31.8488767,1.97530299 29.3606433,2.42924328 C26.87241,2.8820791 27.1653767,-0.287771642 24.94801,0.481497015 C22.7300767,1.25131791 23.3205433,2.99804925 21.2969767,2.89975075 C19.27341,2.80200448 20.8674433,5.87300448 21.0884433,6.69749701" id="Fill-51" fill="#334659"></path>
                        <path d="M1.49889,32.3070746 C0.0646566667,32.4385075 -0.145576667,34.1802687 0.510056667,34.5900299 C1.16569,34.9992388 10.32699,37.2838507 14.61779,36.297 C22.04509,34.5889254 27.64149,28.8550299 26.8209567,24.2957463 C25.4853233,16.8830448 22.7630567,22.8417015 14.8059233,29.6778657 C9.83682333,33.9477761 1.49889,32.3070746 1.49889,32.3070746" id="Fill-53" fill="#FFFFFF"></path>
                    </g>
                    <polygon id="Path-14" fill="url(#linearGradient-10)" fill-rule="nonzero" points="12 90.2772257 63.806214 59.9278952 63.806214 16 12 45.208214"></polygon>
                    <path d="M13.5674627,26.836007 L61.3055545,0.253009717 C62.2705908,-0.284371587 63.4885409,0.0623113068 64.0259223,1.02734763 C64.1916066,1.32488578 64.2785694,1.65980382 64.2785694,2.00036256 L64.2785694,42.6587955 C64.2785694,44.4728602 63.2960122,46.1446216 61.7111067,47.0271776 L13.9730149,73.6101749 C13.0079786,74.1475562 11.7900285,73.8008733 11.2526472,72.835837 C11.0869628,72.5382988 11,72.2033808 11,71.862822 L11,31.2043891 C11,29.3903244 11.9825572,27.718563 13.5674627,26.836007 Z" id="Rectangle-14-Copy" fill="#334659" fill-rule="nonzero"></path>
                    <path d="M12,89.3580548 L64.1396297,59" id="Path-15" stroke="#3BADFB" stroke-width="2" stroke-linecap="round" stroke-linejoin="round" fill-rule="nonzero"></path>
                </g>
                <g id="Group-38" transform="translate(37.000000, 3.000000)">
                    <path d="M2.56746269,26.836007 L50.3055545,0.253009717 C51.2705908,-0.284371587 52.4885409,0.0623113068 53.0259223,1.02734763 C53.1916066,1.32488578 53.2785694,1.65980382 53.2785694,2.00036256 L53.2785694,42.6587955 C53.2785694,44.4728602 52.2960122,46.1446216 50.7111067,47.0271776 L2.97301493,73.6101749 C2.0079786,74.1475562 0.790028463,73.8008733 0.252647158,72.835837 C0.0869627895,72.5382988 -1.70330529e-14,72.2033808 -1.46549439e-14,71.862822 L-1.42108547e-14,31.2043891 C-1.20161939e-14,29.3903244 0.982557167,27.718563 2.56746269,26.836007 Z" id="Rectangle-14-Copy-2" fill="#90F0BC" opacity="0.5"></path>
                    <path d="M27.9665844,44.3134968 C33.7597391,42.1094493 38.247122,35.2574907 37.9894346,29.009219 C37.7317471,22.7609472 32.8265704,19.4824557 27.0334156,21.6865032 C21.2402609,23.8905507 16.752878,30.7425093 17.0105654,36.990781 C17.2682529,43.2390528 22.1734296,46.5175443 27.9665844,44.3134968 Z" id="Oval-4-Copy-3" fill="#FFFFFF" opacity="0.900000036"></path>
                    <path d="M27.7633906,26.1910731 C29.1876813,25.5431336 30.4427169,26.5962942 30.5652676,28.5453851 C30.6577114,30.0190192 30.0760296,31.5792711 29.1722419,32.5345158 C31.2121813,32.1341905 32.8433608,33.4989872 32.9973695,35.9517801 C33.0867254,37.3711837 30.8848646,39.1029767 28.6382293,40.1250679 C26.3919801,41.1469708 24.1007633,41.4593601 24.0117934,40.0401447 C23.8575918,37.5871636 25.2313182,34.8554988 27.2079558,33.4281865 C26.2364274,33.326128 25.497649,32.3667407 25.4050122,30.8931067 C25.2826544,28.9440158 26.3381349,26.8395775 27.7633906,26.1910731" id="Fill-11" fill="#90F0BC"></path>
                </g>
                <g id="Group-36" transform="translate(46.000000, 6.000000)">
                    <path d="M2.56746269,26.836007 L50.3055545,0.253009717 C51.2705908,-0.284371587 52.4885409,0.0623113068 53.0259223,1.02734763 C53.1916066,1.32488578 53.2785694,1.65980382 53.2785694,2.00036256 L53.2785694,42.6587955 C53.2785694,44.4728602 52.2960122,46.1446216 50.7111067,47.0271776 L2.97301493,73.6101749 C2.0079786,74.1475562 0.790028463,73.8008733 0.252647158,72.835837 C0.0869627895,72.5382988 -1.70330529e-14,72.2033808 -1.46549439e-14,71.862822 L-1.42108547e-14,31.2043891 C-1.20161939e-14,29.3903244 0.982557167,27.718563 2.56746269,26.836007 Z" id="Rectangle-14-Copy-2" fill="#90F0BC" opacity="0.5"></path>
                    <polygon id="Rectangle-17" fill="#FFFFFF" fill-rule="nonzero" opacity="0.699999988" points="8 42.9111915 20 36 20 59.5119238 8 66.4231153"></polygon>
                    <polygon id="Rectangle-17-Copy-3" fill="#FFFFFF" fill-rule="nonzero" opacity="0.699999988" points="22 34.9111915 34 28 34 51.5119238 22 58.4231153"></polygon>
                    <polygon id="Rectangle-17" fill="#48D88A" fill-rule="nonzero" opacity="0.800000012" points="10 52.7177311 18.3117883 48 18.3117883 48.8015527 10 53.5192838"></polygon>
                    <polygon id="Rectangle-17-Copy-4" fill="#48D88A" fill-rule="nonzero" opacity="0.800000012" points="24 44.7177311 32.3117883 40 32.3117883 40.8015527 24 45.5192838"></polygon>
                    <polygon id="Rectangle-17" fill="#48D88A" fill-rule="nonzero" opacity="0.800000012" points="12 48.3141052 15.8690057 46 15.8690057 46.8015527 12 49.1156579"></polygon>
                    <polygon id="Rectangle-17-Copy-5" fill="#48D88A" fill-rule="nonzero" opacity="0.800000012" points="26 40.3141052 29.8690057 38 29.8690057 38.8015527 26 41.1156579"></polygon>
                    <polygon id="Rectangle-17-Copy" fill="#48D88A" fill-rule="nonzero" opacity="0.800000012" points="10 55.7177311 18.3117883 51 18.3117883 51.8015527 10 56.5192838"></polygon>
                    <polygon id="Rectangle-17-Copy-6" fill="#48D88A" fill-rule="nonzero" opacity="0.800000012" points="24 47.7177311 32.3117883 43 32.3117883 43.8015527 24 48.5192838"></polygon>
                    <polygon id="Rectangle-17-Copy-2" fill="#48D88A" fill-rule="nonzero" opacity="0.800000012" points="10 58.7177311 18.3117883 54 18.3117883 54.8015527 10 59.5192838"></polygon>
                    <polygon id="Rectangle-17-Copy-7" fill="#48D88A" fill-rule="nonzero" opacity="0.800000012" points="24 50.7177311 32.3117883 46 32.3117883 46.8015527 24 51.5192838"></polygon>
                    <polygon id="Rectangle-17-Copy-12" fill="#FFFFFF" fill-rule="nonzero" opacity="0.699999988" points="36 26.9111915 48 20 48 43.5119238 36 50.4231153"></polygon>
                    <polygon id="Rectangle-17-Copy-11" fill="#48D88A" fill-rule="nonzero" opacity="0.800000012" points="38 36.7177311 46.3117883 32 46.3117883 32.8015527 38 37.5192838"></polygon>
                    <polygon id="Rectangle-17-Copy-10" fill="#48D88A" fill-rule="nonzero" opacity="0.800000012" points="40 32.3141052 43.8690057 30 43.8690057 30.8015527 40 33.1156579"></polygon>
                    <polygon id="Rectangle-17-Copy-9" fill="#48D88A" fill-rule="nonzero" opacity="0.800000012" points="38 39.7177311 46.3117883 35 46.3117883 35.8015527 38 40.5192838"></polygon>
                    <polygon id="Rectangle-17-Copy-8" fill="#48D88A" fill-rule="nonzero" opacity="0.800000012" points="38 42.7177311 46.3117883 38 46.3117883 38.8015527 38 43.5192838"></polygon>
                </g>
                <path d="" id="Path-3" stroke="#979797" fill-rule="nonzero"></path>
            </g>
        </g>
    </g>
</svg>