<?xml version="1.0" encoding="UTF-8"?>
<svg width="54px" height="74px" viewBox="0 0 54 74" version="1.1" xmlns="http://www.w3.org/2000/svg" xmlns:xlink="http://www.w3.org/1999/xlink">
    <!-- Generator: Sketch 51.2 (57519) - http://www.bohemiancoding.com/sketch -->
    <title>sitman_2</title>
    <desc>Created with Sketch.</desc>
    <defs></defs>
    <g id="web" stroke="none" stroke-width="1" fill="none" fill-rule="evenodd">
        <g id="index" transform="translate(-686.000000, -3105.000000)">
            <g id="sitman_2" transform="translate(686.000000, 3105.000000)">
                <path d="M2.56746269,26.836007 L50.3055545,0.253009717 C51.2705908,-0.284371587 52.4885409,0.0623113068 53.0259223,1.02734763 C53.1916066,1.32488578 53.2785694,1.65980382 53.2785694,2.00036256 L53.2785694,42.6587955 C53.2785694,44.4728602 52.2960122,46.1446216 50.7111067,47.0271776 L2.97301493,73.6101749 C2.0079786,74.1475562 0.790028463,73.8008733 0.252647158,72.835837 C0.0869627895,72.5382988 -1.70330529e-14,72.2033808 -1.46549439e-14,71.862822 L-1.42108547e-14,31.2043891 C-1.20161939e-14,29.3903244 0.982557167,27.718563 2.56746269,26.836007 Z" id="Rectangle-14-Copy-2" fill="#90F0BC" opacity="0.5"></path>
                <path d="M27.9665844,44.3134968 C33.7597391,42.1094493 38.247122,35.2574907 37.9894346,29.009219 C37.7317471,22.7609472 32.8265704,19.4824557 27.0334156,21.6865032 C21.2402609,23.8905507 16.752878,30.7425093 17.0105654,36.990781 C17.2682529,43.2390528 22.1734296,46.5175443 27.9665844,44.3134968 Z" id="Oval-4-Copy-3" fill="#FFFFFF" opacity="0.900000036"></path>
                <path d="M27.7633906,26.1910731 C29.1876813,25.5431336 30.4427169,26.5962942 30.5652676,28.5453851 C30.6577114,30.0190192 30.0760296,31.5792711 29.1722419,32.5345158 C31.2121813,32.1341905 32.8433608,33.4989872 32.9973695,35.9517801 C33.0867254,37.3711837 30.8848646,39.1029767 28.6382293,40.1250679 C26.3919801,41.1469708 24.1007633,41.4593601 24.0117934,40.0401447 C23.8575918,37.5871636 25.2313182,34.8554988 27.2079558,33.4281865 C26.2364274,33.326128 25.497649,32.3667407 25.4050122,30.8931067 C25.2826544,28.9440158 26.3381349,26.8395775 27.7633906,26.1910731" id="Fill-11" fill="#90F0BC"></path>
            </g>
        </g>
    </g>
</svg>