<?xml version="1.0" encoding="UTF-8"?>
<svg width="54px" height="74px" viewBox="0 0 54 74" version="1.1" xmlns="http://www.w3.org/2000/svg" xmlns:xlink="http://www.w3.org/1999/xlink">
    <!-- Generator: Sketch 51.2 (57519) - http://www.bohemiancoding.com/sketch -->
    <title>sitman_1</title>
    <desc>Created with Sketch.</desc>
    <defs></defs>
    <g id="web" stroke="none" stroke-width="1" fill="none" fill-rule="evenodd">
        <g id="index" transform="translate(-695.000000, -3108.000000)">
            <g id="sitman_1" transform="translate(695.000000, 3108.000000)">
                <path d="M2.56746269,26.836007 L50.3055545,0.253009717 C51.2705908,-0.284371587 52.4885409,0.0623113068 53.0259223,1.02734763 C53.1916066,1.32488578 53.2785694,1.65980382 53.2785694,2.00036256 L53.2785694,42.6587955 C53.2785694,44.4728602 52.2960122,46.1446216 50.7111067,47.0271776 L2.97301493,73.6101749 C2.0079786,74.1475562 0.790028463,73.8008733 0.252647158,72.835837 C0.0869627895,72.5382988 -1.70330529e-14,72.2033808 -1.46549439e-14,71.862822 L-1.42108547e-14,31.2043891 C-1.20161939e-14,29.3903244 0.982557167,27.718563 2.56746269,26.836007 Z" id="Rectangle-14-Copy-2" fill="#90F0BC" opacity="0.5"></path>
                <polygon id="Rectangle-17" fill="#FFFFFF" fill-rule="nonzero" opacity="0.699999988" points="8 42.9111915 20 36 20 59.5119238 8 66.4231153"></polygon>
                <polygon id="Rectangle-17-Copy-3" fill="#FFFFFF" fill-rule="nonzero" opacity="0.699999988" points="22 34.9111915 34 28 34 51.5119238 22 58.4231153"></polygon>
                <polygon id="Rectangle-17" fill="#48D88A" fill-rule="nonzero" opacity="0.800000012" points="10 52.7177311 18.3117883 48 18.3117883 48.8015527 10 53.5192838"></polygon>
                <polygon id="Rectangle-17-Copy-4" fill="#48D88A" fill-rule="nonzero" opacity="0.800000012" points="24 44.7177311 32.3117883 40 32.3117883 40.8015527 24 45.5192838"></polygon>
                <polygon id="Rectangle-17" fill="#48D88A" fill-rule="nonzero" opacity="0.800000012" points="12 48.3141052 15.8690057 46 15.8690057 46.8015527 12 49.1156579"></polygon>
                <polygon id="Rectangle-17-Copy-5" fill="#48D88A" fill-rule="nonzero" opacity="0.800000012" points="26 40.3141052 29.8690057 38 29.8690057 38.8015527 26 41.1156579"></polygon>
                <polygon id="Rectangle-17-Copy" fill="#48D88A" fill-rule="nonzero" opacity="0.800000012" points="10 55.7177311 18.3117883 51 18.3117883 51.8015527 10 56.5192838"></polygon>
                <polygon id="Rectangle-17-Copy-6" fill="#48D88A" fill-rule="nonzero" opacity="0.800000012" points="24 47.7177311 32.3117883 43 32.3117883 43.8015527 24 48.5192838"></polygon>
                <polygon id="Rectangle-17-Copy-2" fill="#48D88A" fill-rule="nonzero" opacity="0.800000012" points="10 58.7177311 18.3117883 54 18.3117883 54.8015527 10 59.5192838"></polygon>
                <polygon id="Rectangle-17-Copy-7" fill="#48D88A" fill-rule="nonzero" opacity="0.800000012" points="24 50.7177311 32.3117883 46 32.3117883 46.8015527 24 51.5192838"></polygon>
                <polygon id="Rectangle-17-Copy-12" fill="#FFFFFF" fill-rule="nonzero" opacity="0.699999988" points="36 26.9111915 48 20 48 43.5119238 36 50.4231153"></polygon>
                <polygon id="Rectangle-17-Copy-11" fill="#48D88A" fill-rule="nonzero" opacity="0.800000012" points="38 36.7177311 46.3117883 32 46.3117883 32.8015527 38 37.5192838"></polygon>
                <polygon id="Rectangle-17-Copy-10" fill="#48D88A" fill-rule="nonzero" opacity="0.800000012" points="40 32.3141052 43.8690057 30 43.8690057 30.8015527 40 33.1156579"></polygon>
                <polygon id="Rectangle-17-Copy-9" fill="#48D88A" fill-rule="nonzero" opacity="0.800000012" points="38 39.7177311 46.3117883 35 46.3117883 35.8015527 38 40.5192838"></polygon>
                <polygon id="Rectangle-17-Copy-8" fill="#48D88A" fill-rule="nonzero" opacity="0.800000012" points="38 42.7177311 46.3117883 38 46.3117883 38.8015527 38 43.5192838"></polygon>
            </g>
        </g>
    </g>
</svg>