<?xml version="1.0" encoding="UTF-8"?>
<svg width="153px" height="124px" viewBox="0 0 153 124" version="1.1" xmlns="http://www.w3.org/2000/svg" xmlns:xlink="http://www.w3.org/1999/xlink">
    <!-- Generator: Sketch 51.2 (57519) - http://www.bohemiancoding.com/sketch -->
    <title>title</title>
    <desc>Created with Sketch.</desc>
    <defs>
        <linearGradient x1="-65.3752336%" y1="143.599174%" x2="79.4713145%" y2="-6.16467104%" id="linearGradient-1">
            <stop stop-color="#54A4FF" offset="0%"></stop>
            <stop stop-color="#087CFF" offset="100%"></stop>
        </linearGradient>
        <linearGradient x1="0%" y1="92.9202908%" x2="152.394755%" y2="-140.867058%" id="linearGradient-2">
            <stop stop-color="#54A4FF" offset="0%"></stop>
            <stop stop-color="#087CFF" offset="100%"></stop>
        </linearGradient>
    </defs>
    <g id="web" stroke="none" stroke-width="1" fill="none" fill-rule="evenodd">
        <g id="index" transform="translate(-656.000000, -2689.000000)">
            <g id="title" transform="translate(656.000000, 2689.000000)">
                <path d="M2.20491267,70.9696856 L140.861526,1.33903032 C143.187276,0.171084109 145.968984,0.389845599 148.08357,1.90699249 L152.082624,4.77618338 L148.956183,48.5692209 L7.39576496,123.445334 L1.22332686,117.492799 C0.441592472,116.738915 7.56307177e-17,115.699573 2.30926389e-14,114.613548 L8.05577827e-13,74.5442711 C8.3763511e-13,73.031694 0.853203621,71.6484876 2.20491267,70.9696856 Z" id="Rectangle-3-Copy-4" fill="url(#linearGradient-1)"></path>
                <path d="M6.21721709,74.0804189 L147.217217,3.87914011 C149.194804,2.89453629 151.596134,3.69950823 152.580738,5.67709526 C152.856485,6.23093525 153,6.84119008 153,7.45987817 L153,49.3388431 C153,50.8563759 152.141255,52.2432233 150.782783,52.9195811 L9.78278291,123.12086 C7.80519589,124.105464 5.40386575,123.300492 4.41926194,121.322905 C4.1435153,120.769065 4,120.15881 4,119.540122 L4,77.6611569 C4,76.1436241 4.85874522,74.7567767 6.21721709,74.0804189 Z" id="Rectangle-3-Copy-3" fill="url(#linearGradient-2)"></path>
                <path d="M24.894927,84.0482328 L29.9534615,81.5275591 L29.9534615,78.0264823 L31.6878162,77.1622513 L31.6878162,80.6633281 L33.5486342,79.7360802 L33.5486342,81.4403081 L31.6878162,82.3675559 L31.6878162,92.1112934 C31.6878162,93.5191338 30.9651684,94.6016744 29.537939,95.3128645 L26.7918774,96.6812303 L26.4305535,95.1385263 C27.2977309,94.7805077 28.146842,94.394443 28.9417546,93.9983372 C29.6102038,93.6652481 29.9534615,93.1607665 29.9534615,92.5309432 L29.9534615,83.2317869 L24.894927,85.7524607 L24.894927,84.0482328 Z M18.6440237,88.4782847 C19.691863,89.1416949 20.6855037,89.8135882 21.6068796,90.5400153 C22.1849978,88.7329526 22.5101893,86.9407783 22.6005203,85.15449 L17.7949126,87.54913 L17.7949126,85.8449022 L24.1361468,82.6850576 L24.1361468,83.9817527 C24.1000145,86.4634782 23.6302934,88.9574951 22.7089175,91.4728057 C23.3954329,92.0939735 24.0277497,92.7236243 24.6239341,93.3712799 L23.3593005,95.2981434 C22.9076456,94.7081381 22.4017922,94.14514 21.8417401,93.5906249 C20.8661656,95.7068858 19.5653996,97.8369963 17.9755745,100 L17,98.94862 C18.6259575,96.8787568 19.8905911,94.7666511 20.811967,92.640349 C19.8363925,91.7927354 18.7162885,90.9615684 17.4877873,90.1658916 L18.6440237,88.4782847 Z M26.105362,87.0202452 C27.2796647,87.9170261 28.1829744,88.8006493 28.8152912,89.6340664 L27.4603266,91.2725061 C26.7918774,90.4015211 25.9066339,89.5274197 24.804596,88.6502019 L26.105362,87.0202452 Z M40.8112444,77.9139618 L45.598786,75.5283242 L45.598786,73.0090308 C44.3702847,73.7323398 43.0514525,74.4450881 41.6603555,75.1382734 L41.1545021,73.8157824 C44.8219396,71.9882939 47.9112589,70.0413497 50.4224599,67.993474 L51.2535048,69.0427763 C50.0972684,70.0264631 48.7965024,70.989548 47.3331406,71.9410335 L47.3331406,74.6640932 L51.8496893,72.4134916 L51.8496893,74.1177195 L47.3331406,76.368321 L47.3331406,78.943187 L50.7295852,77.2507346 L50.7295852,84.753042 L49.0313629,85.5992682 L49.0313629,84.7842027 L43.9366961,87.3228813 L43.9366961,88.1379467 L42.2384738,88.9841729 L42.2384738,81.4818656 L45.598786,79.807418 L45.598786,77.232552 L40.8112444,79.6181897 L40.8112444,77.9139618 Z M43.9366961,85.6742261 L49.0313629,83.1355475 L49.0313629,79.7085676 L43.9366961,82.2472462 L43.9366961,85.6742261 Z M37.4870646,74.4577211 C38.6613672,74.7802512 39.6550079,75.1928054 40.4679867,75.7139079 L39.2936841,77.5216626 C38.5710363,77.0111207 37.5773956,76.5800423 36.2946958,76.2559539 L37.4870646,74.4577211 Z M35.0481283,81.0450684 L39.2214193,78.9655126 L39.2214193,86.8383043 C39.7634051,86.0866025 40.3415233,85.2613232 40.955774,84.3439423 L41.4074288,85.9713037 C40.2692586,87.631384 39.0588235,89.2163287 37.7761237,90.7076134 L37.1257407,89.4571417 C37.4147998,89.0537642 37.5773956,88.6578309 37.5773956,88.2873466 L37.5773956,81.4704352 L35.0481283,82.7307721 L35.0481283,81.0450684 Z M58.5703136,71.7876562 L58.1909235,70.4947695 C58.3354531,70.3671776 58.4619165,70.2485881 58.5341812,70.17553 C59.166498,69.4714373 59.9614106,68.0564996 60.9369851,65.9402386 L58.0825264,67.3626188 L58.0825264,65.7880605 L62.9062003,63.384418 C62.689406,62.899672 62.4545455,62.4609768 62.2016187,62.0683325 L63.9540396,60.8987116 C64.1889001,61.3744552 64.4237607,61.9057715 64.6586212,62.5111846 L69.283567,60.2065686 L69.283567,61.781127 L62.7074722,65.0580028 C61.9848244,66.7147942 61.3525076,68.030186 60.7743894,69.0221832 C62.5810088,67.9922731 64.4056945,66.9163121 66.2123139,65.8123051 C65.8690562,65.5202455 65.5257985,65.2281858 65.1644746,64.9451285 L66.5555716,63.3813051 C67.802139,64.2791248 68.7596473,65.1357408 69.4100304,65.9601555 L67.982801,67.6901775 C67.7298743,67.37163 67.4588813,67.0435607 67.1698222,66.743018 C64.5321578,68.372281 61.6596329,70.0630026 58.5703136,71.7876562 Z M54.9570747,65.7709184 C56.0410464,66.0087911 56.9804885,66.3372073 57.7392687,66.7556475 L56.5107675,68.6274578 C55.8423183,68.2195782 54.9028761,67.8726378 53.7105073,67.6146827 L54.9570747,65.7709184 Z M54.5234861,70.4142637 C55.6435901,70.7452769 56.6010984,71.1758359 57.3598786,71.6868972 L56.1313774,73.5587075 C55.4629282,73.0396826 54.5234861,72.6001212 53.2949848,72.2490256 L54.5234861,70.4142637 Z M55.9868478,74.6866071 L57.5044082,74.5231798 C56.8178928,77.2363709 56.0410464,79.8463802 55.1919353,82.3442055 L53.6201763,82.4049704 C54.5234861,79.8245653 55.3183986,77.242602 55.9868478,74.6866071 Z M62.1112878,70.6530079 L63.8456424,69.7887769 L63.8456424,77.9023834 L62.1112878,78.7666144 L62.1112878,70.6530079 Z M59.166498,72.1204001 L60.8285879,71.2921788 C60.7563232,73.7733849 60.5214626,75.6687409 60.1240064,77.0152952 C59.6904177,78.4169027 58.9497037,79.8048332 57.9379968,81.1981303 L56.835959,80.3579609 C57.6670039,79.2399301 58.2451221,78.1182634 58.5883798,76.9839584 C58.9135713,75.8957043 59.0942333,74.2866946 59.166498,72.1204001 Z M68.0189334,76.0080697 L67.2240208,76.4041756 C65.9955196,77.0163392 65.3993352,76.7576922 65.3993352,75.6832876 L65.3993352,69.01457 L67.0252927,68.2043534 L67.0252927,74.5396352 C67.0252927,74.7434016 67.1156236,74.828059 67.2962856,74.7750834 L67.9466686,74.4509968 C68.1815291,74.2969171 68.3079925,73.9745612 68.3441249,73.5119752 C68.3802573,73.0123408 68.4163897,72.2904158 68.4163897,71.4012534 L69.9158838,71.2283044 C69.9158838,72.9695807 69.7894204,74.107002 69.5545599,74.6130419 C69.3196994,75.1005574 68.8138459,75.5563912 68.0189334,76.0080697 Z M79.9968203,61.6294805 L79.9968203,63.6856684 L82.7970805,62.2902954 L82.7970805,60.2341075 L79.9968203,61.6294805 Z M79.9968203,65.3157994 L79.9968203,67.6128021 L82.7970805,66.2174292 L82.7970805,63.9204264 L79.9968203,65.3157994 Z M79.9968203,69.2985058 L79.9968203,70.1320955 L78.2985981,70.9783216 L78.2985981,60.7159061 C77.9372742,61.4331565 77.5398179,62.1498875 77.1242954,62.8756209 L76.5461772,61.3112763 C77.9734066,58.6365194 78.9851135,56.0020998 79.5632317,53.3799716 L81.2253216,52.8851861 C80.9723949,53.9374306 80.6652695,54.9796339 80.3039457,56.0117959 L83.0680734,54.6344278 C82.7790143,53.8893039 82.4538228,53.1621849 82.0924989,52.4901191 L83.7365226,51.2263189 C84.1339789,52.1582431 84.4591704,53.0150317 84.6759647,53.8332136 L87.4400925,52.4558455 L87.4400925,54.1415491 L84.4953028,55.6089413 L84.4953028,57.7392261 L87.0787686,56.451882 L87.0787686,58.1005372 L84.4953028,59.3878813 L84.4953028,61.4440692 L87.0787686,60.1567252 L87.0787686,61.7868561 L84.4953028,63.0742002 L84.4953028,65.371203 L87.6388206,63.8047843 L87.6388206,65.4904879 L79.9968203,69.2985058 Z M82.7970805,56.4551675 L79.9968203,57.8505405 L79.9968203,59.9808253 L82.7970805,58.5854523 L82.7970805,56.4551675 Z M76.8533025,62.1770673 L76.8533025,63.9739162 C76.3474491,64.4667984 75.8235294,64.9501587 75.317676,65.4245167 L75.317676,70.4631034 C75.317676,71.6671774 74.7034254,72.5845583 73.4929903,73.1877195 L71.8670328,73.9979361 L71.4876427,72.4827588 C71.97543,72.3137907 72.445151,72.1167766 72.8968059,71.8917164 C73.366527,71.6576538 73.6013875,71.318332 73.6013875,70.8737508 L73.6013875,66.9466171 C72.9148721,67.5295233 72.2102905,68.1029077 71.5237751,68.6487656 L71.0901864,67.0864986 C71.9392976,66.4781433 72.7703425,65.8417421 73.6013875,65.1682924 L73.6013875,61.2782071 L71.4334441,62.3584958 L71.4334441,60.654268 L73.6013875,59.5739792 L73.6013875,56.3137173 L75.317676,55.4584887 L75.317676,58.7187506 L76.9978321,57.8815268 L76.9978321,59.5857547 L75.317676,60.4229785 L75.317676,63.6647162 C75.8415956,63.1813558 76.3474491,62.6884737 76.8533025,62.1770673 Z M89.6983668,49.4781231 L93.6729296,47.4975937 L93.6729296,46.3305681 L95.4072843,45.4663371 L95.4072843,46.6333627 L99.7793034,44.4547804 L99.7793034,43.2877548 L101.513658,42.4235238 L101.513658,43.5905494 L105.488221,41.61002 L105.488221,43.2216268 L101.513658,45.2021562 L101.513658,46.4062302 L99.7793034,47.2704612 L99.7793034,46.0663872 L95.4072843,48.2449695 L95.4072843,49.4305193 L93.6729296,50.2947503 L93.6729296,49.1092005 L89.6983668,51.0897299 L89.6983668,49.4781231 Z M89.9874259,53.2056457 L95.009828,50.7029767 C95.2085561,50.1778933 95.3892181,49.6618123 95.5518138,49.1732579 L97.2139037,48.641424 C97.1055066,49.0288743 96.9790432,49.4068028 96.8525799,49.7847313 L105.39789,45.5265932 L105.39789,47.1381999 L96.0757335,51.7834415 C95.5337477,52.9982487 94.9014308,54.2024953 94.1787831,55.4147055 L94.1787831,63.1948761 L92.5347594,64.014095 L92.5347594,57.8825796 C91.8663102,58.8084436 91.1617286,59.7152639 90.4029484,60.612043 L89.3189767,59.7072985 C91.3423905,57.3652855 92.9141494,55.0630905 94.0703859,52.7827086 L89.9874259,54.8172524 L89.9874259,53.2056457 Z M99.9960977,53.7385289 C100.465819,53.1895547 101.098136,52.4669377 101.893048,51.570678 L96.4731898,54.2713999 L96.4731898,52.6783173 L104.350051,48.7532682 L104.350051,50.0129149 C103.59127,51.0023151 102.706027,52.1103047 101.730452,53.3374033 L101.730452,53.7634603 L105.506287,51.8819574 L105.506287,53.5491368 L101.730452,55.4306397 L101.730452,57.7276424 C101.730452,58.8205711 101.188467,59.6463698 100.122561,60.1775118 L97.9365515,61.2668029 L97.4306981,59.8146425 C98.2798092,59.4656262 98.9482584,59.1695856 99.4360457,58.9265207 C99.7973696,58.7464725 99.9960977,58.4622039 99.9960977,58.0917196 L99.9960977,56.2948707 L95.2085561,58.6805083 L95.2085561,57.0133289 L99.9960977,54.6276913 L99.9960977,53.7385289 Z M120.374765,33.0064875 L122.091054,32.1512589 L122.091054,49.2676342 L120.374765,50.1228628 L120.374765,33.0064875 Z M110.131233,44.4646578 L109.571181,47.4112195 L116.544732,43.9362907 C116.544732,47.0668831 116.400202,49.2136145 116.147276,50.3770043 C115.894349,51.5589183 114.738112,52.709323 112.678566,53.8282184 C112.100448,54.1162954 111.540396,54.3583215 110.962278,54.6093501 L110.528689,53.1952769 C111.106807,52.9627725 111.702992,52.7027415 112.28111,52.4146645 C113.581876,51.7664913 114.340656,51.0734786 114.55745,50.3726748 C114.738112,49.6898758 114.828443,48.3666929 114.828443,46.403126 L107.746495,49.9320693 L108.72207,43.5552387 L114.665848,40.5934471 L114.665848,38.0741538 L108.180084,41.3060176 L108.180084,39.712935 L116.36407,35.634845 L116.36407,41.3588277 L110.131233,44.4646578 Z M135.622633,29.7801715 C135.369707,30.2766895 135.11678,30.7361591 134.827721,31.2136335 L133.924411,30.4411556 C134.827721,28.8054855 135.460038,27.0455124 135.803295,25.1702388 L137.375054,24.6278443 C137.284723,25.0989133 137.176326,25.5604605 137.067929,26.0220077 L141.403816,23.8614302 L141.403816,25.306319 L140.500506,25.7564393 C140.247579,27.1791681 139.795924,28.4786328 139.109409,29.6913623 C139.922388,29.7678837 140.879896,29.6982889 142,29.4920998 L141.223154,31.2870436 C139.95852,31.4726309 138.892615,31.4850948 138.025437,31.3059112 C137.176326,32.3588476 136.164619,33.3075636 134.97225,34.1981098 L134.339934,33.1053537 C135.315508,32.3969331 136.146553,31.6493866 136.815002,30.8717164 C136.309149,30.6051057 135.911692,30.2289079 135.622633,29.7801715 Z M136.507877,27.7459711 L136.417546,27.9762253 C136.670473,28.6652571 137.15826,29.1261123 137.862841,29.4048418 C138.422893,28.4588954 138.802284,27.4918278 138.982946,26.5126414 L136.507877,27.7459711 Z M139.127475,32.1275564 L139.922388,33.1392909 C138.422893,34.0717328 136.706605,35.0751551 134.755456,36.1400361 L134.755456,37.0662468 L140.175314,34.365525 L140.175314,35.6251716 L134.755456,38.3258935 L134.755456,39.140959 L141.638676,35.7110422 L141.638676,37.1559311 L134.755456,40.5858478 L134.755456,41.4379618 C134.755456,42.4938421 134.177338,43.3191213 133.039168,43.8862729 L130.871224,44.9665616 L130.527966,43.6371459 C131.214482,43.3506271 131.882931,43.0545865 132.515248,42.7395023 C132.912704,42.5414493 133.111432,42.2386565 133.111432,41.849648 L133.111432,41.4050668 L125.830756,45.0330365 L125.830756,43.5881477 L133.111432,39.960178 L133.111432,39.1451125 L127.113456,42.1339114 L127.113456,40.8742647 L133.111432,37.8854658 L133.111432,37.0333519 C131.41321,37.9351507 129.588524,38.8814422 127.637375,39.8537021 L127.221853,38.7640623 C131.919063,36.4234367 135.893626,34.2020925 139.127475,32.1275564 Z M128.016765,29.142897 L129.425929,28.4407093 L129.425929,29.1261053 L131.069952,28.3068863 L131.069952,27.6029661 L132.479115,26.9007785 L132.479115,27.6046987 L134.502529,26.5964292 L134.502529,27.9301727 L132.479115,28.9384422 L132.479115,29.697935 L131.069952,30.4001227 L131.069952,29.6406299 L129.425929,30.4598488 L129.425929,31.2563901 L128.414222,31.7605249 C128.378089,31.9267234 128.323891,32.0834001 128.287758,32.2310745 L133.942477,29.4133213 C133.870212,31.9501 133.797948,33.4495227 133.707617,33.9205917 C133.59922,34.3821389 133.418558,34.7500262 133.147565,35.033256 C132.858506,35.3254882 132.208123,35.7421959 131.196416,36.2463307 L130.564099,36.5614149 L130.347305,35.9840478 L126.842463,37.7305146 L126.842463,35.4335119 C126.697933,35.6537248 126.535337,35.8829402 126.372742,36.1121556 L125.469432,35.4137745 C126.246278,34.3597993 126.788264,33.219089 127.077323,31.9821217 L128.016765,31.6621904 L128.016765,31.1620365 L125.848822,32.2423253 L125.848822,30.9085817 L128.016765,29.828293 L128.016765,29.142897 Z M131.395144,34.9061818 L131.575806,34.8161577 C131.900997,34.6541144 132.099725,34.4995153 132.208123,34.3528798 C132.280387,34.2057248 132.334586,33.9934755 132.370718,33.7531801 C132.370718,33.5123653 132.406851,32.7163434 132.442983,31.3831193 L127.763839,33.7147425 C127.619309,34.0090523 127.492846,34.2943597 127.348316,34.5701454 L131.395144,32.5536064 L131.395144,34.9061818 Z M130.076312,35.0632036 L130.076312,34.2481381 L128.179361,35.1933908 L128.179361,36.0084562 L130.076312,35.0632036 Z" id="对话流推荐引擎" fill="#FFFFFF"></path>
            </g>
        </g>
    </g>
</svg>