<?xml version="1.0" encoding="UTF-8"?>
<svg width="24px" height="24px" viewBox="0 0 24 24" version="1.1" xmlns="http://www.w3.org/2000/svg" xmlns:xlink="http://www.w3.org/1999/xlink">
    <!-- Generator: Sketch 51.2 (57519) - http://www.bohemiancoding.com/sketch -->
    <title>Group 15 Copy</title>
    <desc>Created with Sketch.</desc>
    <defs></defs>
    <g id="Page-1" stroke="none" stroke-width="1" fill="none" fill-rule="evenodd">
        <g id="icon" transform="translate(-58.000000, -421.000000)" fill="#58A7F8">
            <g id="Group-15-Copy" transform="translate(58.000000, 421.000000)">
                <g id="Page-1-Copy-3">
                    <path d="M14,2 C14,3.104 13.104,4 12,4 C10.896,4 10,3.104 10,2 C10,0.896 10.896,0 12,0 C13.104,0 14,0.896 14,2" id="Fill-1" opacity='0.9'>
                        <animate attributeName="opacity"  values="0.2;1;0.2" dur="1s" begin="0.875s" repeatCount="indefinite"/>
                    </path>
                    <path d="M14,22 C14,23.104 13.104,24 12,24 C10.896,24 10,23.104 10,22 C10,20.896 10.896,20 12,20 C13.104,20 14,20.896 14,22" id="Fill-3" opacity="0.5">
                        <animate attributeName="opacity"  values="0.2;1;0.2" dur="1s" begin="0.375s" repeatCount="indefinite" />
                    </path>
                    <path d="M20.4854,6.3433 C19.7044,7.1243 18.4374,7.1243 17.6574,6.3433 C16.8764,5.5623 16.8764,4.2963 17.6574,3.5143 C18.4374,2.7343 19.7044,2.7343 20.4854,3.5143 C21.2664,4.2963 21.2664,5.5623 20.4854,6.3433" id="Fill-5" opacity="0.2">
                        <animate attributeName="opacity"  values="0.2;1;0.2" dur="1s" begin="0s" repeatCount="indefinite" />
                    </path>
                    <path d="M6.3428,20.4854 C5.5628,21.2664 4.2958,21.2664 3.5148,20.4854 C2.7338,19.7044 2.7338,18.4384 3.5148,17.6564 C4.2958,16.8764 5.5628,16.8764 6.3428,17.6564 C7.1238,18.4384 7.1238,19.7044 6.3428,20.4854" id="Fill-7" opacity="0.6">
                        <animate attributeName="opacity"  values="0.2;1;0.2" dur="1s" begin="0.5s" repeatCount="indefinite" />
                    </path>
                    <path d="M22,14 C20.896,14 20,13.104 20,12 C20,10.896 20.896,10 22,10 C23.104,10 24,10.896 24,12 C24,13.104 23.104,14 22,14" id="Fill-9" opacity="0.3">
                        <animate attributeName="opacity"  values="0.2;1;0.2" dur="1s" begin="0.125s" repeatCount="indefinite" />
                    </path>
                    <path d="M2,14 C0.896,14 0,13.104 0,12 C0,10.896 0.896,10 2,10 C3.104,10 4,10.896 4,12 C4,13.104 3.104,14 2,14" id="Fill-11" opacity="0.7">
                        <animate attributeName="opacity"  values="0.2;1;0.2" dur="1s" begin="0.625s" repeatCount="indefinite" />
                    </path>
                    <path d="M17.6572,20.4854 C16.8762,19.7044 16.8762,18.4384 17.6572,17.6564 C18.4372,16.8764 19.7042,16.8764 20.4852,17.6564 C21.2662,18.4384 21.2662,19.7044 20.4852,20.4854 C19.7042,21.2664 18.4372,21.2664 17.6572,20.4854" id="Fill-13" opacity="0.4">
                        <animate attributeName="opacity"  values="0.2;1;0.2" dur="1s" begin="0.25s" repeatCount="indefinite" />
                    </path>
                    <path d="M3.5146,6.3433 C2.7336,5.5623 2.7336,4.2963 3.5146,3.5143 C4.2956,2.7343 5.5626,2.7343 6.3426,3.5143 C7.1236,4.2963 7.1236,5.5623 6.3426,6.3433 C5.5626,7.1243 4.2956,7.1243 3.5146,6.3433" id="Fill-15" opacity="0.8">
                        <animate attributeName="opacity"  values="0.2;1;0.2" dur="1s" begin="0.75s" repeatCount="indefinite" />
                    </path>
                </g>
            </g>
        </g>
    </g>
</svg>
