<?xml version="1.0" encoding="UTF-8"?>
<svg width="86px" height="25px" viewBox="0 0 86 25" version="1.1" xmlns="http://www.w3.org/2000/svg" xmlns:xlink="http://www.w3.org/1999/xlink">
    <!-- Generator: Sketch 48.2 (47327) - http://www.bohemiancoding.com/sketch -->
    <title>logo</title>
    <desc>Created with Sketch.</desc>
    <defs>
        <path d="M31.8486667,0.331012658 C32.0783185,0.231962025 32.3226222,0.17943038 32.5656519,0.17943038 C32.799763,0.17943038 33.0329185,0.228164557 33.2507852,0.331012658 L41.7803926,4.37879747 C42.4769926,4.70759494 42.8936148,5.4664557 42.8139852,6.26170886 L41.7845333,16.5094937 C41.7071333,17.2797468 41.1806222,17.918038 40.4639556,18.1107595 L16.5626444,24.6240506 C15.3669259,24.9452532 14.2317259,23.9199367 14.3607259,22.635443 C14.4339852,21.9098101 14.9066667,21.296519 15.5688667,21.0683544 L36.4541259,13.7648734 C36.9424148,13.5971519 37.2911926,13.1446203 37.3450222,12.6098101 L37.6832889,9.23955696 C37.7418963,8.65348101 37.4348444,8.09398734 36.9213926,7.85158228 L32.6981556,5.85886076 C32.2535037,5.64936709 31.7464222,5.64050633 31.2954,5.83481013 L22.7148296,9.67943038 C22.188637,9.90601266 21.5961926,9.89588608 21.0773259,9.65126582 L13.0388741,5.85886076 C12.5948593,5.64936709 12.0874593,5.64050633 11.6367556,5.83481013 L6.88191111,7.88386076 C6.34775556,8.11424051 5.977,8.63227848 5.9168,9.23322785 L5.17911111,16.5765823 C5.11540741,17.210443 5.40748889,17.8259494 5.9289037,18.1560127 L9.8161037,20.4952532 C10.981563,21.2085443 10.8000074,22.6813291 10.8000074,22.6813291 C10.6022074,23.8825949 9.31157037,24.4936709 8.29135556,24.1996835 L1.19985926,21.8882911 C0.480325926,21.6316456 0.00445925926,20.9275316 0,20.1468354 L0,20.1208861 C0.000318518519,20.0610759 0.00382222222,20.0006329 0.00987407407,19.9401899 L1.4068963,6.02848101 C1.47505926,5.35126582 1.89263704,4.76803797 2.49431852,4.5085443 L12.1893852,0.331012658 C12.6400889,0.136708861 13.1474889,0.121202532 13.5918222,0.331012658 L21.7471704,4.20221519 C22.1911852,4.41202532 22.6985852,4.42056962 23.1492889,4.22658228 L31.8486667,0.331012658 Z" id="path-1"></path>
    </defs>
    <g id="栗子云_portal_新品发布推广" stroke="none" stroke-width="1" fill="none" fill-rule="evenodd" transform="translate(-120.000000, -20.000000)">
        <g id="Group-6" transform="translate(120.000000, 19.000000)">
            <g id="logo" transform="translate(0.000000, 1.000000)">
                <g id="Group-3">
                    <mask id="mask-2" fill="white">
                        <use xlink:href="#path-1"></use>
                    </mask>
                    <use id="Clip-2" fill="#FFFFFF" xlink:href="#path-1"></use>
                </g>
                <polygon id="Fill-4" fill="#FFFFFF" points="48.9756222 17 49.6279481 17 48.7752741 20.9139241 50.6478444 20.9139241 50.5319037 21.478481 48 21.478481"></polygon>
                <polygon id="Fill-6" fill="#FFFFFF" points="52.9686148 17 53.6209407 17 52.6523259 21.478481 52 21.478481"></polygon>
                <polygon id="Fill-8" fill="#FFFFFF" points="55.1032 20.9139241 58.0733852 17.564557 55.8587259 17.564557 55.9746667 17 58.9776593 17 58.8744593 17.5712025 55.9039556 20.9139241 58.2351926 20.9139241 58.1249852 21.478481 55 21.478481"></polygon>
                <path d="M62.9453407,21.510443 C62.6867037,21.5917722 62.4111852,21.6322785 62.1184667,21.6322785 C61.8126889,21.6322785 61.5320741,21.5917722 61.2756667,21.510443 C61.0195778,21.4294304 60.7956593,21.3041139 60.6039111,21.1351266 C60.4124815,20.9661392 60.2640519,20.7522152 60.1583037,20.4936709 C60.0531926,20.2348101 60,19.931962 60,19.585443 C60,19.2949367 60.0519185,18.9987342 60.1551185,18.6968354 C60.2583185,18.3955696 60.4210815,18.1161392 60.6427704,17.8594937 C60.8647778,17.6028481 61.1485778,17.3955696 61.4954444,17.2373418 C61.8416741,17.0791139 62.2455556,17 62.7064519,17 C63.0807111,17 63.4384074,17.0683544 63.7779481,17.2050633 L63.5909778,17.756962 C63.2896593,17.628481 62.9988519,17.564557 62.7188741,17.564557 C62.3876148,17.564557 62.0936222,17.6202532 61.8375333,17.7313291 C61.581763,17.8427215 61.3683556,17.9943038 61.1985852,18.1870253 C61.0278593,18.3791139 60.9001333,18.5984177 60.8141333,18.8446203 C60.7278148,19.0908228 60.6848148,19.3481013 60.6848148,19.6177215 C60.6848148,20.0927215 60.8259185,20.4528481 61.1074889,20.6987342 C61.3896963,20.9446203 61.7610889,21.0677215 62.2219852,21.0677215 C62.510563,21.0677215 62.7793926,21.0164557 63.0291111,20.9139241 L62.9453407,21.510443 Z" id="Fill-10" fill="#FFFFFF"></path>
                <polygon id="Fill-12" fill="#FFFFFF" points="65.9753037 17 66.6276296 17 65.7752741 20.9139241 67.6478444 20.9139241 67.5319037 21.478481 65 21.478481"></polygon>
                <path d="M70.0014222,20.7148734 C70.211963,20.9503165 70.5177407,21.0677215 70.9181185,21.0677215 C71.1853556,21.0677215 71.4280667,21.003481 71.648163,20.8753165 C71.8673037,20.7468354 72.0558667,20.5759494 72.2128963,20.3620253 C72.3702444,20.1481013 72.4887333,19.9139241 72.568363,19.6594937 C72.6479926,19.4050633 72.6878074,19.153481 72.6878074,18.9053797 C72.6878074,18.4693038 72.5900222,18.1367089 72.3941333,17.9075949 C72.1979259,17.6791139 71.9083926,17.564557 71.5252148,17.564557 C71.2582963,17.564557 71.0108074,17.6234177 70.7824296,17.7411392 C70.5543704,17.8588608 70.3584815,18.0199367 70.194763,18.2253165 C70.031363,18.4306962 69.9052296,18.6648734 69.817,18.9278481 C69.7290889,19.1911392 69.6848148,19.4661392 69.6848148,19.7522152 C69.6848148,20.1588608 69.7902444,20.4797468 70.0014222,20.7148734 M69.1681778,18.7610759 C69.2796593,18.4382911 69.4459259,18.1433544 69.6650667,17.8756329 C69.885163,17.6085443 70.1539926,17.3955696 70.4725111,17.2373418 C70.7910296,17.0791139 71.1487259,17 71.5446444,17 C72.1173407,17 72.5648593,17.160443 72.8881556,17.4810127 C73.2108148,17.8018987 73.3719852,18.2468354 73.3719852,18.8158228 C73.3719852,19.175 73.3184741,19.5237342 73.2108148,19.8613924 C73.102837,20.1993671 72.9445333,20.5022152 72.7362222,20.7693038 C72.5272741,21.0370253 72.2667259,21.2474684 71.9548963,21.4012658 C71.6424296,21.5553797 71.288237,21.6322785 70.892637,21.6322785 C70.2724815,21.6322785 69.8020296,21.4708861 69.4812815,21.1481013 C69.1605333,20.825 69,20.353481 69,19.7332278 C69,19.4082278 69.0557407,19.0841772 69.1681778,18.7610759" id="Fill-14" fill="#FFFFFF"></path>
                <path d="M78.5645407,19.6306962 C78.413563,20.3022152 78.1781778,20.7911392 77.8574296,21.0968354 C77.536363,21.4028481 77.1133704,21.5556962 76.5884519,21.5556962 C76.2954148,21.5556962 76.0450593,21.5107595 75.8361111,21.4208861 C75.627163,21.3310127 75.4615333,21.2155063 75.3385852,21.0743671 C75.2162741,20.9332278 75.1286815,20.7867089 75.0770815,20.6348101 C75.0254815,20.4829114 75,20.3386076 75,20.2015823 C75,20.081962 75.0105111,19.9556962 75.0318519,19.8231013 C75.0535111,19.6905063 75.086,19.5237342 75.1286815,19.3224684 C75.1376,19.2886076 75.1462,19.2481013 75.1548,19.2006329 L75.6325778,17 L76.2782148,17 L75.697237,19.7012658 C75.662837,19.8724684 75.645637,20.0050633 75.645637,20.0990506 C75.645637,20.3813291 75.7357778,20.6006329 75.9166963,20.7566456 C76.0976148,20.9129747 76.3342741,20.9908228 76.6269926,20.9908228 C76.8556889,20.9908228 77.0490296,20.939557 77.2082889,20.8370253 C77.3675481,20.7341772 77.4978222,20.6006329 77.5991111,20.4357595 C77.7000815,20.2712025 77.7800296,20.0949367 77.838,19.9066456 C77.8959704,19.7183544 77.9510741,19.5066456 78.0026741,19.2712025 L78.4998815,17 L79.1455185,17 L78.5645407,19.6306962 Z" id="Fill-16" fill="#FFFFFF"></path>
                <path d="M81.7749556,20.9139241 L82.4594519,20.9139241 C82.7735111,20.9139241 83.0601778,20.864557 83.3181778,20.7664557 C83.5764963,20.668038 83.7962741,20.5287975 83.9768741,20.3490506 C84.1577926,20.1693038 84.2957111,19.9547468 84.3903111,19.7044304 C84.4849111,19.4541139 84.5323704,19.1794304 84.5323704,18.8797468 C84.5323704,18.6791139 84.5052963,18.4993671 84.4517852,18.3411392 C84.397637,18.1829114 84.3084519,18.0449367 84.1835926,17.9272152 C84.0587333,17.8094937 83.8876889,17.7196203 83.6701407,17.6575949 C83.4529111,17.5955696 83.185037,17.564557 82.8662,17.564557 L82.4916222,17.564557 L81.7749556,20.9139241 Z M81.9555556,17 L82.9502889,17 C83.3376074,17 83.6758741,17.0458861 83.9641333,17.1379747 C84.2523926,17.2297468 84.4893704,17.3582278 84.6744296,17.5231013 C84.8598074,17.6876582 84.9964519,17.8778481 85.0846815,18.0939873 C85.1729111,18.3098101 85.2171852,18.5484177 85.2171852,18.8094937 C85.2171852,19.2113924 85.1557111,19.575 85.0330815,19.9 C84.9104519,20.2253165 84.7273037,20.5063291 84.4839556,20.7436709 C84.2409259,20.9813291 83.9392889,21.1629747 83.5796815,21.2892405 C83.2203926,21.4151899 82.8082296,21.478481 82.3431926,21.478481 L81,21.478481 L81.9555556,17 Z" id="Fill-18" fill="#FFFFFF"></path>
                <path d="M56.8478446,8.25094937 L56.9867187,7.26993671 L58.6544817,7.28797468 C58.7449409,7.28860759 58.8172446,7.34018987 58.8430446,7.42151899 L58.9249039,7.68449367 C58.944652,7.74651899 58.9338224,7.81835443 58.8952817,7.88132911 L58.7449409,8.12848101 C58.6927039,8.21392405 58.5987409,8.26867089 58.504778,8.26867089 L58.5022298,8.26867089 L56.8478446,8.25094937 Z M53.6107409,8.25063291 L53.7492965,7.26962025 L55.7397187,7.26962025 L55.6011631,8.25063291 L53.6107409,8.25063291 Z M53.913015,5.97120253 L54.0053854,5.31867089 L55.9954891,5.31867089 L55.9031187,5.97120253 L53.913015,5.97120253 Z M50.4418002,7.70949367 L50.576852,7.44620253 C50.6249483,7.35253165 50.7240076,7.28860759 50.8240224,7.28765823 L52.502615,7.26993671 L52.3640594,8.25094937 L50.6755928,8.26867089 L50.6724076,8.26867089 C50.5758965,8.26867089 50.4991335,8.21107595 50.4781113,8.12151899 L50.4185483,7.87531646 C50.4058076,7.8221519 50.4144076,7.76329114 50.4418002,7.70949367 Z M60.5159039,4 L49.8468076,4 C49.484015,4 49.1473409,4.29335443 49.0960594,4.65379747 C49.0708965,4.83196203 49.1177187,4.99968354 49.2282446,5.12594937 C49.337178,5.25031646 49.4948446,5.31867089 49.6719409,5.31867089 L52.7587039,5.31867089 L52.6663335,5.97120253 L50.318215,5.97120253 C50.0474742,5.97120253 49.7891557,6.14367089 49.6767187,6.39778481 L49.1081631,7.44367089 C49.010378,7.66582278 48.9775705,7.90031646 49.0151557,8.1278481 L49.3521483,9.15094937 C49.3938742,9.40886076 49.6117409,9.58892405 49.8828002,9.58892405 L59.1284372,9.58892405 C59.3953557,9.58892405 59.6520817,9.41962025 59.7677039,9.16740506 L60.2362446,8.14493671 C60.3413557,7.91518987 60.3760742,7.67151899 60.3346668,7.43417722 L59.9811113,6.40411392 C59.9362002,6.14525316 59.7231113,5.97120253 59.450778,5.97120253 L57.1498002,5.97120253 L57.2421705,5.31867089 L60.3410372,5.31867089 C60.7038298,5.31867089 61.0408224,5.02563291 61.0917854,4.66518987 C61.1169483,4.48670886 61.0701261,4.31962025 60.9596002,4.19335443 C60.8506668,4.06867089 60.6933187,4 60.5159039,4 Z" id="Fill-20" fill="#FFFFFF"></path>
                <path d="M59.4265762,10.6844937 L54.7271539,10.6844937 L54.7424428,10.5772152 C54.7641021,10.4221519 54.7271539,10.2844937 54.6351021,10.1791139 C54.5341317,10.0636076 54.3774206,10 54.1949095,10 C53.8368947,10 53.5435391,10.2379747 53.4976725,10.5658228 L53.4804725,10.6844937 L48.7571613,10.6844937 C48.3940502,10.6844937 48.0580132,10.9775316 48.0067317,11.3376582 C47.9812502,11.5158228 48.0287095,11.6835443 48.1389169,11.8098101 C48.2475317,11.9344937 48.4051984,12.0031646 48.5826132,12.0031646 L49.6885095,12.0031646 L48.4692206,14.3765823 C48.3965984,14.5300633 48.3927762,14.7060127 48.459028,14.8582278 C48.5230502,15.0050633 48.6415391,15.1136076 48.793791,15.1636076 C48.8555836,15.1841772 48.9196058,15.1936709 48.983628,15.1936709 C49.249591,15.1936709 49.5193762,15.0287975 49.6407317,14.7712025 L51.0629169,12.0031646 L53.2941391,12.0031646 L52.870191,14.9987342 C52.8466206,15.1664557 52.8905762,15.3237342 52.9944132,15.4424051 C53.0969762,15.5591772 53.2447687,15.6237342 53.4110354,15.6237342 C53.7518502,15.6237342 54.0675021,15.3484177 54.1155984,15.010443 L54.5408206,12.0031646 L56.7389169,12.0031646 L57.333591,14.7468354 C57.3571613,14.881962 57.4441169,15.0012658 57.5788502,15.0835443 C57.686828,15.1496835 57.8135984,15.1841772 57.9381391,15.1841772 C58.0018428,15.1841772 58.0655465,15.175 58.1257465,15.1566456 C58.4722947,15.0518987 58.6041613,14.6822785 58.5522428,14.3863924 L58.0359243,12.0031646 L59.2517095,12.0031646 C59.6145021,12.0031646 59.9511762,11.7098101 60.0027762,11.3493671 C60.0276206,11.1712025 59.9807984,11.003481 59.8702725,10.8772152 C59.7613391,10.7528481 59.603991,10.6844937 59.4265762,10.6844937" id="Fill-22" fill="#FFFFFF"></path>
                <path d="M73.5747137,8.6664557 L68.9944174,8.6664557 L69.0090693,8.56455696 C69.0195804,8.49018987 69.0657656,8.41962025 69.1326545,8.37531646 L72.9462767,6.34556962 C73.2010915,6.17911392 73.3775508,5.91012658 73.4180026,5.62531646 L73.5113285,4.89968354 C73.54541,4.65822785 73.4820248,4.43132911 73.3326396,4.26107595 C73.1854841,4.09240506 72.9720767,4 72.7322322,4 L64.5287878,4 C64.1653582,4 63.8286841,4.29335443 63.7774026,4.65379747 C63.7525582,4.83227848 63.7993804,4.99968354 63.9095878,5.12594937 C64.0185211,5.25031646 64.1765063,5.31898734 64.3536026,5.31898734 L71.9082248,5.31898734 C71.9445359,5.31898734 71.9569582,5.34177215 71.9610989,5.35537975 C71.9687434,5.38132911 71.9601434,5.41898734 71.9254248,5.44177215 L68.1815582,7.4193038 C67.9276989,7.58512658 67.7518767,7.85348101 67.7114248,8.13734177 L67.636573,8.6664557 L62.7571878,8.6664557 C62.3943952,8.6664557 62.0580396,8.95981013 62.0067582,9.31993671 C61.9812767,9.49841772 62.0284174,9.66582278 62.1386248,9.79208861 C62.2472396,9.91677215 62.4052248,9.98512658 62.5823211,9.98512658 L67.4499211,9.98512658 L66.9087582,13.8123418 C66.8918767,13.9322785 66.7797582,14.0300633 66.6590396,14.0300633 L64.9243878,14.0300633 C64.5867582,14.0300633 64.2733359,14.3028481 64.2255582,14.6379747 C64.2023063,14.8041139 64.2459434,14.960443 64.3488248,15.0778481 C64.4504322,15.1939873 64.5969508,15.2579114 64.7622619,15.2579114 L67.3409878,15.2579114 C67.7388174,15.2579114 68.1079804,14.9363924 68.1637211,14.5417722 L68.8080841,9.98512658 L73.3998471,9.98512658 C73.7629582,9.98512658 74.0993137,9.69208861 74.1505952,9.33196203 C74.1760767,9.15348101 74.1286174,8.98575949 74.0187285,8.85949367 C73.9097952,8.73512658 73.75181,8.6664557 73.5747137,8.6664557" id="Fill-24" fill="#FFFFFF"></path>
                <path d="M76.5823211,5.31835443 L84.6898915,5.31835443 C85.0530026,5.31835443 85.3893582,5.02531646 85.4403211,4.66518987 C85.4658026,4.48702532 85.4183434,4.3193038 85.3081359,4.19335443 C85.1995211,4.06867089 85.0418545,4 84.8644396,4 L76.7571878,4 C76.3940767,4 76.0577211,4.29335443 76.0067582,4.65348101 C75.9812767,4.83164557 76.0284174,4.99936709 76.1386248,5.12531646 C76.2475582,5.24968354 76.4052248,5.31835443 76.5823211,5.31835443" id="Fill-26" fill="#FFFFFF"></path>
                <path d="M84.9426312,7 L75.5253126,7 C75.1622015,7 74.8255275,7.29335443 74.774883,7.65379747 C74.7494015,7.83196203 74.7965423,7.99968354 74.9067497,8.12594937 C75.015683,8.25063291 75.1736682,8.3193038 75.350446,8.3193038 L76.8095793,8.3193038 L74.1002608,13.396519 C73.9677571,13.6446203 73.966483,13.921519 74.0970756,14.1367089 C74.2181126,14.3367089 74.4305645,14.4509494 74.680283,14.4509494 L83.3204163,14.4509494 C83.4545126,14.4509494 83.5854238,14.3667722 83.6462608,14.2417722 L84.5626386,12.3670886 C84.6247497,12.1889241 84.6202904,12.0313291 84.5495793,11.8990506 C84.4352312,11.6851266 84.1899719,11.6177215 84.1788238,11.6148734 C83.8319571,11.5287975 83.52172,11.6718354 83.3685126,11.985443 L82.8085571,13.131962 L76.0180608,13.131962 C75.9626386,13.131962 75.9154978,13.106962 75.8893793,13.0636076 C75.8597571,13.0148734 75.8607126,12.9515823 75.8912904,12.8936709 L78.3292312,8.3193038 L84.7677645,8.3193038 C85.1305571,8.3193038 85.4672312,8.02594937 85.5185126,7.66550633 C85.5439941,7.48734177 85.4968534,7.3193038 85.386646,7.19335443 C85.2777126,7.06867089 85.1197275,7 84.9426312,7 Z" id="Fill-28" fill="#FFFFFF"></path>
            </g>
        </g>
    </g>
</svg>